<?xml version="1.0" encoding="UTF-8"?>
<svg width="100px" height="100px" viewBox="0 0 100 100" version="1.1" xmlns="http://www.w3.org/2000/svg" xmlns:xlink="http://www.w3.org/1999/xlink">
    <title>dong</title>
    <g id="ТракТек" stroke="none" stroke-width="1" fill="none" fill-rule="evenodd">
        <path d="M50.8742081,80.0697833 C51.0037587,80.2415674 51.0781207,80.3897732 51.1947163,80.4871953 C56.0437951,84.5328013 61.3854253,87.6723304 67.5515154,89.2474066 C68.0686814,89.3795482 68.7532267,89.2647664 69.2452599,89.0271706 C76.9281284,85.3189143 83.0221885,79.8122367 87.4287225,72.5224247 C94.7643954,60.3871612 95.6468941,47.5981855 91.0367065,34.3145856 C90.9234793,33.9883772 90.7312262,33.6896335 90.5757655,33.3779348 C91.1144369,45.2471013 89.4541165,56.451155 81.4468532,65.766102 C73.4714594,75.0442566 62.8338009,78.9279243 50.8742081,80.0697833 M10.0142092,67.2147367 C8.24765732,55.0978695 11.0130443,44.1174201 18.7793435,34.6729225 C26.5637797,25.2056241 36.8438786,20.3834918 49.5362095,19.9287692 C48.7534648,19.2120953 48.3197294,18.7475269 47.8212188,18.3687209 C43.3719331,14.9874504 38.6365997,12.1505514 33.2011749,10.6086403 C32.1805753,10.3192242 31.2890081,10.2883912 30.3702353,10.8467542 C28.7917908,11.8059469 27.1200699,12.6275567 25.6123601,13.6849487 C13.1744665,22.4052584 6.55365373,34.3062944 6.19583498,49.5588042 C6.05125652,55.7158258 7.28354178,61.6072687 10.0142092,67.2147367 M33.150132,9.37454128 C33.1918473,9.54502986 33.2335626,9.71525934 33.2752778,9.88574793 C45.0213713,9.02138635 55.4841365,12.1559926 64.2808811,20.0686839 C73.0543065,27.9601289 77.2944975,37.9969317 77.5460848,49.8471838 C77.8697022,49.670995 78.0000301,49.632389 78.0865699,49.5484402 C83.3087544,44.488453 87.3579878,38.7053144 89.1058845,31.5287296 C89.2248119,31.0398056 89.2017519,30.3643288 88.94861,29.9616856 C87.327673,27.3836287 85.801567,24.716441 83.9142739,22.3404831 C77.9883705,14.8799234 70.2155939,10.1210118 61.0988593,7.59503429 C54.8226512,5.85620619 48.4026418,5.69737716 42.0168339,6.92758962 C39.0154057,7.50564438 36.1028492,8.54438106 33.150132,9.37454128 M22.6798528,49.6342027 C21.3276037,51.0815419 20.1528389,52.244129 19.0863784,53.4986969 C15.272927,57.9842568 12.4290324,62.9921646 11.1003614,68.7755623 C10.9980165,69.2206982 11.068492,69.8093761 11.2851006,70.208651 C16.307259,79.4707413 23.6574416,86.2084087 33.3872096,90.2693017 C42.1748856,93.9368791 51.2467956,94.4097387 60.47313,92.2892546 C62.5187339,91.8189859 64.5000807,91.0683698 66.510965,90.446786 C66.4840185,90.303503 66.4573311,90.159961 66.4303846,90.016678 C54.8431202,90.5048247 44.4041922,87.5249019 35.7613538,79.5824139 C27.1428708,71.6622087 23.0612498,61.6321425 22.6798528,49.6342027 M50.1388789,20.6897494 C32.8270328,35.8334368 32.8918081,63.7072839 50.1430245,79.3202035 C69.9557154,61.6007912 64.869559,33.8660814 50.1388789,20.6897494 M100,49.8495158 C100.134527,77.4279875 77.5613718,98.7354331 52.0181399,99.6508376 C22.695658,100.701752 0.0170488584,77.0056526 -6.15352465e-05,49.9373511 C-0.0171524989,22.6685052 22.5438247,-0.125403923 50.3145495,7.10542736e-15 C77.0480923,0.121778614 100.149036,22.0956325 100,49.8495158" id="dong" fill="#FEFEFE"></path>
    </g>
</svg>