<?xml version="1.0" encoding="UTF-8"?>
<svg width="100px" height="100px" viewBox="0 0 100 100" version="1.1" xmlns="http://www.w3.org/2000/svg" xmlns:xlink="http://www.w3.org/1999/xlink">
    <title>shaanxi</title>
    <g id="ТракТек" stroke="none" stroke-width="1" fill="none" fill-rule="evenodd">
        <path d="M84.9793489,14.4603859 C103.718934,32.8519285 104.034191,60.8123797 90.8552201,78.5106109 C89.3593925,77.3804805 87.8643215,76.2508544 86.4976228,75.2185795 C87.9631858,72.3149437 89.6310172,69.6188727 90.7412235,66.7099406 C97.0362594,50.2159881 94.4998341,35.0650271 83.4557787,21.3296925 C83.1306865,20.925408 82.4141722,20.6421818 81.8752102,20.6343634 C78.0991974,20.5801394 74.3219237,20.5854357 70.5454065,20.6283105 C68.0629531,20.6565575 66.2685148,21.9279227 65.3666298,24.1659896 C62.7535342,30.6504314 60.2420771,37.1757304 57.7190187,43.6959854 C56.9465149,45.6926921 57.8685762,47.0266042 60.0029868,47.047285 C62.3943943,47.07074 64.7868106,47.0192902 67.1784703,47.03871 C70.0853847,47.0624173 71.410974,48.9668169 70.3504521,51.6381719 C66.4571641,61.4444054 62.5510136,71.2453425 58.6256955,81.0389657 C57.431505,84.0185151 55.5508126,85.2603724 52.3296508,85.2661731 C43.391759,85.2818098 34.4538673,85.280801 25.5159756,85.2866017 L24.0862256,85.2866017 L24.0862256,85.2866017 C27.6249135,89.6018286 40.5531922,94.0587948 49.3695211,94.1251247 C58.6958085,94.1952377 67.2157966,91.6050927 74.9983374,86.3625081 C76.1809265,87.9390413 77.3055084,89.438652 78.430847,90.9390194 C60.9553128,103.747753 32.4417761,104.263008 13.3342236,84.0444922 C-4.94307022,64.7049111 -4.36577305,33.4637778 14.6646048,14.7067902 C34.4346997,-4.77932202 65.2100105,-4.94199422 84.9793489,14.4603859 Z M84.4605633,76.9001057 C84.775315,76.928857 85.1241145,77.04815 85.3748063,77.2352861 C86.7493233,78.2604992 88.0981155,79.3202645 89.5528337,80.443081 C86.9866482,83.9515043 83.899155,86.8437908 80.4802645,89.5625603 C79.3107901,88.1030502 78.0399293,86.7905756 77.1317392,85.2624657 C76.7085393,84.5507433 76.8132043,83.3885828 76.9806684,82.4864456 C77.6058845,79.121527 81.0578139,76.5893891 84.4605633,76.9001057 Z M41.7435996,6.74013974 C8.43842079,13.175906 -5.37080984,52.6116831 16.5657258,78.5191859 C16.9566435,78.980721 17.734948,79.3433917 18.3409965,79.3567586 C21.9061659,79.4354465 25.4741095,79.407704 29.0407921,79.3940849 C31.8591826,79.3829879 33.9323074,77.9915731 34.9613037,75.3504827 C37.4081962,69.0703269 39.8296161,62.7798307 42.239939,56.4852991 C43.0664146,54.3266769 42.1768877,53.0361441 39.8798049,53.0179853 C37.446027,52.9985655 35.0114925,53.04598 32.578219,53.0051228 C30.2740744,52.9665355 29.0526458,51.3920199 29.5358705,49.1479001 C29.6317084,48.7020017 29.8006857,48.2682092 29.9689064,47.8417306 C33.6735451,38.4559228 37.3819669,29.0716283 41.0911453,19.6878382 C42.6129501,15.8381816 44.0104178,14.811203 48.1796181,14.7900178 C54.8516374,14.7555918 61.5237985,14.7601788 68.1959951,14.7624959 L76.085593,14.7625275 L76.085593,14.7625275 C76.1108135,14.6727425 76.1362862,14.5829575 76.1615067,14.4931726 C76.0018609,14.3695921 75.8475115,14.2381933 75.6818128,14.1236923 C65.3815099,7.01201669 54.048932,4.36235133 41.7435996,6.74013974 Z" id="shaanxi" fill="#000000"></path>
    </g>
</svg>