<?xml version="1.0" encoding="UTF-8"?>
<svg width="120px" height="65px" viewBox="0 0 120 65" version="1.1" xmlns="http://www.w3.org/2000/svg" xmlns:xlink="http://www.w3.org/1999/xlink">
    <title>Camc</title>
    <g id="ТракТек" stroke="none" stroke-width="1" fill="none" fill-rule="evenodd">
        <path d="M25.0742121,29.7678485 C33.2319386,27.5191977 41.0352055,25.3554475 48.8454463,23.2189867 C59.214528,20.3823999 69.5772422,17.5206461 79.9775551,14.8038297 C81.2228637,14.478782 82.7923104,14.7107424 84.0285225,15.1734502 C86.8902762,16.2447127 89.63984,17.6155528 92.8048099,19.030056 C91.8323958,19.5152018 91.1580431,19.8757258 90.4645879,20.1941027 C84.5633957,22.9015194 78.6449203,25.5719438 72.7655597,28.3254494 C71.4083643,28.9609904 70.1024125,29.7702742 68.9086506,30.6784065 C64.3082556,34.1784302 64.7706602,39.6824092 68.0845092,43.4289476 C71.4447503,47.2276392 76.0157333,48.8528776 80.7556077,49.9726547 C85.2004528,51.0226921 89.7062444,51.1482236 93.9151873,49.0505745 C97.9312849,47.0493481 101.471636,44.3510278 103.928293,40.5068538 C107.904669,34.2842526 107.106301,26.9964531 101.962543,21.622857 C96.5319425,15.9493802 89.6841096,12.7267993 82.3162611,10.5448561 C69.2843354,6.68552128 56.039552,6.52481674 42.775666,9.02028541 C34.7422581,10.5318178 27.1864156,13.436325 20.6038969,18.4627386 C17.63814,20.7274598 15.0853635,23.4051614 13.7205877,26.941571 C11.4331253,32.8703558 12.8533896,38.1902827 16.9343754,42.8012902 C22.3103972,48.8753156 29.4996514,51.9465916 37.0454878,54.2037324 C44.5725248,56.4554154 52.3072648,57.4778601 60.1799682,57.2425644 C61.4349797,57.2052688 62.4962361,57.4818019 63.5629504,58.2010306 C66.2988695,60.0464039 69.1184762,61.7677618 72.2221964,63.7404859 C66.2385295,64.2893071 60.6414631,64.7511052 55.0165008,64.2417021 C50.6553434,63.8469147 46.2644707,63.607374 41.9494021,62.9105834 C32.1233805,61.3235502 22.7779564,58.2625834 14.2606156,52.9763136 C10.3342701,50.5393656 6.73570113,47.7067206 3.96976368,43.9465375 C-1.66702401,36.2836597 -1.27617843,26.6798955 4.98432482,19.1331495 C8.69750944,14.6573763 13.4952981,11.6146025 18.5765939,8.95933897 C26.5166112,4.81012958 35.0218234,2.53540224 43.8275228,1.1239312 C52.4124808,-0.252366777 61.0702107,-0.195968579 69.6406143,0.396515721 C82.5667176,1.29039685 94.9661344,4.55178944 106.088102,11.5736684 C111.542657,15.0175971 116.402604,19.1628647 118.675209,25.4379223 C121.134595,32.2284473 120.204328,38.7145433 115.594534,44.3476924 C108.73154,52.7346503 99.7348143,57.5936887 89.098296,59.3089823 C79.7368015,60.8186953 71.2898068,58.0982403 63.3737436,53.2346537 C51.6884007,46.0554056 39.9772845,38.9183046 28.2782969,31.7611913 C27.3013345,31.1635523 26.3331655,30.5516622 25.0742121,29.7678485" id="Camc" fill="#1D1D1B"></path>
    </g>
</svg>