<?xml version="1.0" encoding="UTF-8"?>
<svg width="100px" height="100px" viewBox="0 0 100 100" version="1.1" xmlns="http://www.w3.org/2000/svg" xmlns:xlink="http://www.w3.org/1999/xlink">
    <title>foton</title>
    <g id="ТракТек" stroke="none" stroke-width="1" fill="none" fill-rule="evenodd">
        <path d="M49.8607242,-0.000101472238 C78.3216747,-0.152208516 99.561229,22.1287725 100,49.7828659 C99.8088885,77.6547741 77.778185,100.167183 49.3093807,99.8017153 C21.8558234,99.4498607 -0.150271221,78.016577 -0.000246773322,49.7435965 C0.150271221,21.7779651 21.2107567,0.155140637 49.8607242,-0.000101472238 Z M5.37351179,49.8530274 C5.43280206,76.1154104 25.9299014,94.2034578 49.8963286,94.474679 C74.2256058,94.7506126 94.5980899,74.3875531 94.6043748,50.2483402 C94.6111798,25.337351 74.8502524,5.49160157 50.0392695,5.49160157 C27.1477789,5.06120803 5.31342283,23.3948206 5.37351179,49.8530274 Z M79.3327853,27.7845729 C81.4763755,30.6198295 83.5440447,33.5137286 85.7127673,36.3296123 C87.0709678,38.0930739 87.0934823,39.7099294 85.7677446,41.5231323 C74.922037,56.3601902 64.1250236,71.2323287 53.2578487,86.0536788 C53.1206673,86.2400779 52.9662073,86.4139108 52.7965631,86.5798898 C51.2959453,88.0490921 48.9868997,88.1171592 47.411408,86.7280667 C47.2375751,86.5746539 47.0773556,86.4133872 46.9344147,86.2385071 C45.0688525,83.9608771 43.390213,81.5293107 41.6639265,79.1396318 C39.414047,76.0253 39.3836786,75.5504011 41.6089493,72.4936645 L48.2015294,63.4596085 L48.2015294,63.4596085 L61.4091461,45.4076696 L61.4091461,45.4076696 C65.6549626,39.5978805 69.8960668,33.7849498 74.1335058,27.9688776 C76.0692295,25.3132134 77.4122458,25.2446227 79.3327853,27.7845729 Z M58.0780468,25.9506854 C58.579998,25.9508024 59.071917,25.9539702 59.5604286,25.9588273 L61.0223667,25.9771042 C62.2431718,25.9942884 63.4840874,26.0135192 64.8486292,26.0135192 C65.8267012,26.0135192 67.2608227,26.6543971 67.5477517,27.3722433 C67.9116489,28.2822481 67.6603242,29.8053804 67.0807066,30.6625024 C64.5072465,34.4658827 61.7185896,38.1231805 59.0131841,41.8365028 C52.8876683,50.2438373 46.7872851,58.6684504 40.6324481,67.0543175 C37.7039919,71.044097 35.7923534,71.0105871 32.9094498,67.062695 C31.0695436,64.5421178 29.2736193,61.9880307 27.3693112,59.5166712 C26.2231659,58.0296668 26.3315496,56.6536641 27.3635516,55.2373448 C33.9990471,46.1289191 40.5701405,36.9717993 47.3700442,27.9879888 C48.2371144,26.8418435 50.2367164,26.0302742 51.8362934,26.0302742 C53.7976732,26.0302742 55.993099,25.9501644 58.0780468,25.9506854 Z M38.0784133,25.9657151 C41.0927388,26.0594383 42.27763,28.2260666 40.5356357,30.6775295 C35.9138794,37.1810794 31.2209144,43.6348881 26.4651182,50.0410497 C24.723124,52.387794 22.3878987,52.4375353 20.5961631,50.1729952 C18.2834524,47.2502984 15.9838314,44.2815255 14.0753346,41.0949379 C13.4454521,40.0430394 13.5349865,37.9523321 14.181624,36.8606405 C15.9854022,33.8143758 18.0645904,30.8733533 20.4233774,28.2386328 C21.486795,27.0506 23.3837728,26.1149392 25.0577,26.0384946 C27.4960731,25.9274928 29.2134584,25.9500073 31.2994534,25.9510545 C33.5592812,25.9521017 35.8206798,25.8955536 38.0784133,25.9657151 Z" id="foton" fill="#FEFEFE"></path>
    </g>
</svg>