<?xml version="1.0" encoding="UTF-8"?>
<svg width="121px" height="82px" viewBox="0 0 121 82" version="1.1" xmlns="http://www.w3.org/2000/svg" xmlns:xlink="http://www.w3.org/1999/xlink">
    <title>faw</title>
    <g id="ТракТек" stroke="none" stroke-width="1" fill="none" fill-rule="evenodd">
        <path d="M86.6820683,3.96811422 C95.835809,6.92147874 104.194317,11.3726423 111.032916,18.239811 C116.474828,23.7043303 120.118587,30.2085393 120.868107,38.0269557 C121.635763,46.035423 119.005609,53.0414654 114.226764,59.3680452 C109.687158,65.3776253 103.686273,69.54334 97.113,72.976179 C87.4782942,78.0076807 77.1377919,80.4177235 66.3443973,81.0790506 C64.406873,81.1975528 62.4666158,81.2748153 61.3861833,81.3284767 C50.0710806,81.2335755 39.8704458,79.711927 30.1169893,75.8284316 C22.3706182,72.7438947 15.2184975,68.6318414 9.4496485,62.5204041 C3.65620465,56.3828814 -0.0131420746,49.2069112 -1.04746468e-05,40.54929 C0.010707437,33.5507005 2.59365922,27.4477099 6.76831748,21.9250574 C11.3625781,15.8474069 17.4417192,11.651135 24.10095,8.20438371 C33.7142906,3.22853093 44.024981,0.885067991 54.7736577,0.197158643 C65.6467991,-0.498700543 76.3090214,0.621729635 86.6820683,3.96811422 Z M60.4235077,4.51019375 C51.9720854,4.51590769 43.707236,5.72651884 35.6940485,8.44213353 C26.6891189,11.4938773 18.6252512,15.9661576 12.1851378,23.2131795 C5.39249878,30.8571963 3.46938348,41.8485915 7.7411788,51.1402122 C10.3298445,56.7706844 14.4876094,61.0981286 19.4073164,64.696672 C27.4316833,70.5658878 36.5859209,73.8335193 46.2750334,75.5409953 C59.1311623,77.8064504 71.8707763,77.1538185 84.3559956,73.1413866 C93.8190346,70.100077 102.408088,65.6322685 108.924222,57.8491295 C114.662266,50.9956245 116.934925,43.2626688 114.775799,34.4557398 C113.119997,27.7026016 108.891181,22.6425302 103.736953,18.2713619 C97.3460296,12.8515604 89.7926905,9.66541473 81.8488157,7.36965081 C74.8656291,5.35138589 67.6956212,4.47963656 60.4235077,4.51019375 Z M66.6167786,11.8598182 L66.6167786,60.8255982 L66.6167786,60.8255982 C66.6170271,63.9372142 67.0927751,64.4159434 70.1927148,64.4310978 L71.3832029,64.4313462 L71.3832029,64.4313462 L71.3832029,69.508311 L49.5636326,69.508311 L49.5636326,64.4310978 C50.2962598,64.4310978 51.0239183,64.441532 51.7513284,64.4288619 C53.5134595,64.3980563 54.3181321,63.6140036 54.3322927,61.8307557 C54.3558938,58.8162769 54.3399941,55.8013011 54.3399941,52.7865738 L54.3399941,23.7957535 L54.3399941,23.7957535 C54.3397457,20.737302 53.926851,20.3159607 50.8537421,20.2183267 C50.6115205,20.2106253 50.370541,20.1743542 49.9660931,20.1360956 C49.9660931,19.1570235 49.944231,18.2919818 49.9720555,17.4284307 C50.0028611,16.4714691 50.4766217,15.7994594 51.3719721,15.4275561 C54.2281995,14.2407945 57.0029412,12.7516906 59.9647524,11.9629177 C61.9884828,11.4240678 64.2720735,11.8598182 66.6167786,11.8598182 Z M50.4064644,48.9998179 C50.4064644,51.9492075 50.4278296,54.7000996 50.3761556,57.4497495 C50.3704417,57.7488621 50.0037554,58.1490868 49.7014132,58.3172755 C47.9367978,59.298832 46.1515625,60.2458563 44.34844,61.155119 C43.9263533,61.3680255 43.4086202,61.483795 42.9341143,61.4862794 C38.3117808,61.5101289 33.6891989,61.5088867 29.0668655,61.4959682 C27.0329493,61.4902543 25.6392435,60.520871 24.8554392,58.6367596 C24.132004,56.8977327 23.3675775,55.1760961 22.511231,53.1913696 L24.3903738,53.1913696 L24.3903738,53.1913696 C29.8382481,53.1913696 35.2863709,53.21348 40.7339968,53.1662779 C41.5232666,53.1595702 42.3676884,52.9441793 43.0866518,52.6102861 C45.1034261,51.6734475 47.0662906,50.6218331 49.0535015,49.6216442 C49.442795,49.4256311 49.845504,49.2564486 50.4064644,48.9998179 Z M82.2777591,52.2187567 C83.4843954,53.0490178 84.8018324,53.2701226 86.2603791,53.239317 C89.8137079,53.1637936 93.3697695,53.2147222 96.9248373,53.2147222 L98.4907068,53.2147222 L98.4907068,53.2147222 C97.4599607,55.5030331 96.6314386,57.6099884 95.5743587,59.5954603 C94.8732824,60.9116552 93.5426784,61.4919933 92.0272407,61.4964651 C89.050772,61.5051602 86.0745517,61.5123648 83.0983314,61.4872731 C82.6615872,61.483795 82.2131667,61.3379652 81.7943097,61.1894026 C81.4084941,61.0525164 81.0480187,60.8358833 80.688537,60.6331625 C80.4239565,60.4838688 80.1600367,60.3323739 79.8961193,60.1808574 L79.3680927,59.8784414 C76.7260248,58.3726759 74.0403082,57.0100596 70.6526129,57.9702154 L70.6526129,49.9838587 C71.5511929,49.9838587 72.4885284,50.078263 73.4005238,49.9667168 C76.6636835,49.5677344 79.5984156,50.3753882 82.2777591,52.2187567 Z M50.3504429,38.4793263 L50.3504429,46.5876634 C49.8749432,46.6179721 49.4396896,46.6696461 49.0046845,46.6698945 C40.7418225,46.6746147 32.478712,46.6659196 24.21585,46.6781023 C21.8589717,46.6815708 20.1847857,45.7340496 19.3155207,43.4653648 C18.6857445,41.8219844 17.9739856,40.2099065 17.2552707,38.4793263 L50.3504429,38.4793263 Z M103.767262,38.4786804 C102.824213,40.6276208 102.02277,42.6997955 101.014879,44.6661381 C100.326473,46.0091637 98.9595981,46.6339712 97.4940953,46.6406789 C88.692135,46.6811734 79.8896777,46.6578207 71.0874689,46.6516099 C70.969712,46.6513615 70.851955,46.5919861 70.6455077,46.5363373 L70.6455077,38.4786804 L103.767262,38.4786804 Z M50.3304937,25.6327372 L50.3304937,33.8280257 C49.8855513,33.852372 49.4478134,33.8968414 49.009827,33.8970899 C39.2235775,33.9010648 29.4370795,33.8734888 19.6508299,33.9182066 C17.1752009,33.9296345 15.6053565,32.8593877 14.7129873,30.5939325 C14.0702926,28.9627253 13.3254922,27.3720126 12.5695124,25.6327372 L50.3304937,25.6327372 Z M78.328603,24.1807492 C78.4013937,24.6202261 78.4659861,25.0112587 78.5559186,25.5535867 L108.502707,25.5535867 C107.404636,27.9079806 106.514751,30.0683489 105.401774,32.1069853 C104.737465,33.3235588 103.466982,33.8847676 102.047688,33.8860098 C91.7673059,33.8949533 81.4869242,33.8922206 71.2062942,33.8887425 C71.0482912,33.8887425 70.8902881,33.8348327 70.6463275,33.7901149 L70.6463275,24.1807492 L78.328603,24.1807492 Z" id="faw" fill="#FEFEFE"></path>
    </g>
</svg>