<?xml version="1.0" encoding="UTF-8"?>
<svg width="110px" height="88px" viewBox="0 0 110 88" version="1.1" xmlns="http://www.w3.org/2000/svg" xmlns:xlink="http://www.w3.org/1999/xlink">
    <title>zoomlion</title>
    <g id="ТракТек" stroke="none" stroke-width="1" fill="none" fill-rule="evenodd">
        <path d="M72.1726822,20.3827554 C59.4486693,25.0231057 11.8667934,60.4822621 8.57380432,67.7098888 C31.5268662,54.0970514 53.362592,39.3093715 72.1726822,20.3827554 M37.5574551,67.4405175 C48.0286357,64.444644 99.0260798,26.5016214 101.432767,20.0074515 C78.5346886,33.5673227 56.6253146,48.2369635 37.5574551,67.4405175 M23.2933847,67.2725387 C38.6238428,60.4953775 83.3561331,27.0973659 86.842323,19.9363254 C63.8312504,33.534534 41.9395317,48.2268746 23.2933847,67.2725387 M53.0669897,67.9046029 C64.225723,60.6900917 75.3844563,53.4755804 86.761108,46.1203302 C93.7350011,51.3760981 100.968681,56.7055144 108.052542,62.2271226 C110.795691,64.3644379 110.600472,68.0327309 107.722134,70.2643766 C100.348219,75.9801945 92.8935939,81.5915932 85.4172779,87.1732298 C84.7589828,87.6645551 83.7097461,87.8133651 82.8410991,87.8148784 C64.3477977,87.8511981 45.8544962,87.8643136 27.3616992,87.7921786 C26.2211587,87.788143 24.9000284,87.2917734 23.9748841,86.6042207 C17.0927993,81.4922183 10.2823451,76.2843723 3.46533308,71.0861106 C-1.24210778,67.4970148 -1.10136881,63.9820718 4.03686442,60.9327277 C19.1700862,51.9521694 33.7892829,42.258332 46.9107951,30.4508879 C50.5064486,27.2159095 54.0491358,23.9229204 57.6160362,20.6561623 C57.4071977,20.3716577 57.1978548,20.0876576 56.9890163,19.803153 C45.9725353,26.9046696 34.9560543,34.0061861 23.6369088,41.3024168 C16.5631365,36.0052847 9.13121132,30.556316 1.84506947,24.9176776 C-0.563635,23.0537691 -0.634256701,19.4838421 1.75275682,17.5967293 C9.13625573,11.761359 16.6731046,6.11868501 24.2033958,0.472479961 C24.7900603,0.0331120886 25.7903663,0.0225188334 26.5984803,0.0215099519 C45.5119809,-0.00371208442 64.4254815,-0.0178364248 83.3389821,0.0437053439 C84.4104142,0.0472364289 85.6584006,0.476011046 86.5214987,1.11564189 C93.5418003,6.32247906 100.49148,11.6236467 107.458311,16.90161 C110.812842,19.4429824 110.784089,23.335247 107.257544,25.6430633 C100.158045,30.288458 92.8577786,34.6372415 85.8788412,39.4546504 C74.5193405,47.2956771 63.8206571,55.985173 53.9684253,65.6840549 C53.4720556,66.1733624 53.0225989,66.7100873 52.5509468,67.2251213 C52.7229611,67.4516152 52.8949754,67.678109 53.0669897,67.9046029" id="zoomlion" fill="#1D1D1B"></path>
    </g>
</svg>