<?xml version="1.0" encoding="UTF-8"?>
<svg width="97px" height="100px" viewBox="0 0 97 100" version="1.1" xmlns="http://www.w3.org/2000/svg" xmlns:xlink="http://www.w3.org/1999/xlink">
    <title>SANY</title>
    <g id="ТракТек" stroke="none" stroke-width="1" fill="none" fill-rule="evenodd">
        <path d="M42.7874597,52.6136878 C42.8739866,52.8682421 42.932509,53.0348334 42.987441,53.2025017 C43.6932997,55.3513137 45.1610263,56.6280347 47.3827219,57.056002 C55.1712228,58.5567595 62.9590056,60.0621845 70.7475065,61.5650963 C70.9636443,61.6071031 71.1801412,61.6577267 71.3987922,61.6763965 C72.0482827,61.7327646 72.3215068,61.4103531 72.1089593,60.7867129 C71.7301796,59.6758651 71.3233953,58.5743521 70.9119436,57.4753524 C70.7431981,57.024048 70.6746228,56.6054157 71.1524956,56.3128038 C71.5984145,56.0395798 71.9351874,56.2873125 72.2575989,56.5881821 C78.9955695,62.8730531 85.7367714,69.155052 92.4736649,75.4413592 C93.1691117,76.0904907 93.3328307,76.8498453 92.9644629,77.5481643 C92.5856832,78.265871 91.8916726,78.5423264 90.8720191,78.3452173 C86.2566511,77.4540976 81.6434372,76.5543612 77.0291463,75.6596512 C66.5263566,73.6242936 56.0235669,71.5900131 45.5207772,69.5550146 C40.7136856,68.6236832 35.906953,67.6923519 31.1002204,66.7595844 C30.9878431,66.7376834 30.8790562,66.6974717 30.6464028,66.6306916 C34.7124505,61.9363363 38.7138723,57.3166598 42.7874597,52.6136878 Z M44.0163575,29.0494963 C46.0592548,34.9695899 48.0497332,40.7392488 50.0125662,46.4270481 C49.0309702,46.4270481 48.0852775,46.3401621 47.1622039,46.448231 C45.8991261,46.5957936 44.8751643,47.2743658 44.0450802,48.2326246 C38.7532941,54.3433647 33.4597129,60.4519506 28.1815701,66.5741798 C27.9668684,66.8233486 27.7295477,67.2617278 27.8149975,67.5012028 C27.8982932,67.7363693 28.3643179,67.9022425 28.6899607,67.9736901 C29.6934577,68.1934182 30.7088028,68.3628817 31.7223527,68.5334224 C32.1797606,68.6102554 32.6235253,68.6939101 32.6745079,69.2597459 C32.7290809,69.8668706 32.2845982,70.0198186 31.8121109,70.1648679 C24.2117432,72.5021721 16.6135298,74.846657 9.01459828,77.1886287 C7.8692833,77.5419171 6.72396832,77.8959235 5.57578108,78.2413132 C4.58915864,78.5378744 3.87432412,78.3332256 3.43199558,77.6428053 C3.00725965,76.9793125 3.12825374,76.2055966 3.79246462,75.4390613 C10.8345361,67.3123515 17.8784027,59.1874367 24.9215513,51.0614449 L43.4031293,29.7377624 L43.4031293,29.7377624 C43.5747471,29.5395762 43.7517503,29.3460575 44.0163575,29.0494963 Z M54.1627712,3.91733626 C56.6074262,4.41280168 59.0951653,4.76644909 61.4841702,5.45794648 C79.1733626,10.5756016 92.1581468,24.9721031 95.5632149,43.1495803 C95.7657095,44.2306284 95.9294285,45.3238836 96.0281625,46.4185749 C96.1868551,48.1731688 96.2758952,49.9338661 96.3376489,50.848323 C96.2827169,58.310822 95.0002513,64.6703719 92.3836195,70.7538255 C92.0601308,71.5056404 91.6170842,71.7785054 91.0541206,71.577447 C90.5195206,71.3864415 90.3414403,70.8611763 90.578402,70.0809978 C92.1114725,65.0333542 92.8650826,59.8772826 92.8385142,54.5980627 C92.7437295,35.6921077 81.4474771,17.8104737 64.39485,9.60118624 C61.1197518,8.02431371 57.7279679,6.77811048 54.1961612,5.91391827 C54.0536252,5.87873304 53.9139614,5.83277683 53.7714253,5.79759161 C53.1434767,5.64320746 52.8357855,5.23857737 52.9754493,4.61026978 C53.1111638,4.00027287 53.5850872,3.80029153 54.1627712,3.91733626 Z M43.9007489,4.66997695 C43.9872759,5.3600382 43.5252005,5.64726453 42.9008423,5.79123672 C39.7686392,6.51361094 36.7046523,7.46504815 33.7857148,8.81429382 C18.3429913,15.9533042 8.60171043,27.8046215 4.68502043,44.3344966 C2.70387684,52.6970911 3.12071404,61.0492737 5.48853608,69.3059535 C5.79981761,70.3909509 5.67379706,70.9075993 5.04656657,71.12266 C4.4523671,71.3262317 4.06568866,71.0106417 3.6395166,69.9798583 C1.21496736,64.1161328 0.0301587644,58.0064698 0,52.477722 C0.0380574883,29.0687763 15.830479,9.45409046 37.8650467,4.66961792 C39.4652564,4.32207406 41.0981381,4.1217337 42.7184536,3.8686155 C43.3435299,3.77095855 43.8196075,4.02335868 43.9007489,4.66997695 Z M48.3895938,0.0158692546 C49.0994019,0.102037153 49.5338317,0.524259854 49.7607405,1.18057201 C50.5998004,3.60655738 51.4367061,6.03290178 52.2739708,8.45960521 L69.5434538,58.5174095 L69.5434538,58.5174095 C69.6382384,58.7920697 69.7200979,59.0717563 69.8439643,59.4631022 C63.752971,58.28332 57.7380927,57.1186173 51.8650323,55.981201 C52.3870662,54.9870389 52.985215,54.0661195 53.3661489,53.0626225 C53.7463648,52.0602026 53.6153178,50.9884894 53.2613113,49.9645275 C50.617393,42.3164085 47.9785011,34.6668534 45.3184263,27.0244789 C45.2038948,26.6956047 44.9425188,26.2805627 44.6599599,26.1922406 C44.4495666,26.1265376 44.0402691,26.4758766 43.8133603,26.7254045 C43.1373014,27.4671664 42.5021721,28.2466269 41.8616574,29.0203428 C41.5525301,29.3940961 41.2304776,29.7707216 40.6940824,29.5215527 C40.1027552,29.2465335 40.2492406,28.7104974 40.3587457,28.2344198 C41.2369402,24.4222083 42.1241105,20.6121511 43.0094856,16.8017348 C44.1713161,11.8007655 45.3306334,6.799078 46.5014397,1.79990378 C46.5951473,1.40065918 46.7082427,0.983103911 46.9197131,0.63986845 C47.2417656,0.116039436 47.7828282,-0.0577324918 48.3895938,0.0158692546 Z M48.8718827,100 C32.2339387,99.498431 19.2922384,93.1740663 9.55562497,80.4958963 C9.10252544,79.9063642 9.10360254,79.3599161 9.52797943,78.9940616 C9.97856574,78.605229 10.5027538,78.6946281 11.0585367,79.2924179 C15.8426502,84.4384366 21.4403323,88.4477571 27.8853321,91.2535993 C35.5984361,94.6112751 43.6626742,95.9996553 52.050401,95.3243144 C64.8409484,94.294608 75.6970265,89.1184306 84.6656686,79.9659637 C84.8545199,79.773522 85.0336773,79.5692323 85.2397622,79.3972556 C85.6569584,79.0486346 86.1736068,79.0041145 86.4766305,79.4274143 C86.6845106,79.718231 86.7602665,80.2740139 86.6249111,80.5996568 C86.415954,81.1023028 85.9887048,81.51914 85.6325442,81.954647 C78.0070442,91.2729871 68.2675585,97.0469543 56.414446,99.1749424 C53.7001573,99.66215 50.9201654,99.7838622 48.8718827,100" id="SANY" fill="#1D1D1B"></path>
    </g>
</svg>