<?xml version="1.0" encoding="UTF-8"?>
<svg width="120px" height="89px" viewBox="0 0 120 89" version="1.1" xmlns="http://www.w3.org/2000/svg" xmlns:xlink="http://www.w3.org/1999/xlink">
    <title>Hongyan</title>
    <g id="ТракТек" stroke="none" stroke-width="1" fill="none" fill-rule="evenodd">
        <path d="M7.93157295,49.6578483 C23.7134198,35.3192225 38.9388372,21.4862877 54.1642547,7.65278924 C54.0064024,7.42390341 53.8491139,7.19501759 53.6912616,6.96613176 C46.6595057,7.40980946 39.8712933,8.99171494 33.4016043,11.8223448 C22.5999973,16.5483297 13.5691549,23.2694549 9.05232423,34.6359476 C7.24773426,39.1758923 6.45678152,43.9357027 7.93157295,49.6578483 M63.5356071,81.7052465 C64.6856738,81.9549913 64.9590965,82.0818369 65.2206803,82.0609779 C78.545669,80.9960387 90.7651278,76.9916642 100.952802,68.0713184 C108.80539,61.196851 113.429898,52.7156727 112.646274,41.9315423 C112.558328,40.7234085 112.124234,39.5400801 111.747644,37.8955974 C95.5424147,52.6209614 79.7797356,66.9443657 63.5356071,81.7052465 M62.6364128,49.2468686 C62.7858087,49.5259289 62.9352046,49.8049892 63.0846006,50.0840495 C66.8211899,50.0840495 70.5679268,50.2407743 74.2892946,50.0051234 C75.7347706,49.9137945 77.4051861,49.2581438 78.4909844,48.3099025 C84.1347677,43.3792733 89.5626315,38.2017181 95.2182537,33.2846192 C96.357609,32.294096 98.1232997,31.6891835 99.6578495,31.5538815 C102.681848,31.2877877 105.745874,31.4755191 108.877551,31.4755191 C108.815538,30.7155731 108.87586,30.4060698 108.758034,30.1974793 C108.252343,29.3022313 107.755672,28.3911981 107.145686,27.5681111 C99.0726685,16.6751753 87.7467664,11.1159558 74.8874421,8.17031926 C74.1196034,7.9944267 72.9312011,8.6309097 72.2535638,9.23864103 C64.9292174,15.806424 57.6646293,22.4407304 50.3994775,29.0739092 C49.9653837,29.4696675 49.6654643,30.0120029 48.7843103,31.1654521 L81.1919499,31.1654521 C81.2928626,31.4552238 81.3932116,31.7449955 81.4941243,32.0347673 C75.2082205,37.7721344 68.9223166,43.5095015 62.6364128,49.2468686 M56.8088444,36.2460409 C56.711878,35.9793833 56.6143478,35.7127257 56.5173814,35.4460681 C53.1934631,35.4460681 49.8650347,35.558256 46.5484453,35.4071688 C44.3255467,35.3056923 42.637091,35.9675444 41.0134674,37.4930741 C35.892288,42.3024952 30.5828133,46.9123459 25.4948956,51.7555925 C23.7213124,53.4434846 21.9110848,54.1436722 19.4931259,54.0162629 C16.1849929,53.8414979 12.8610746,53.9722898 8.87530416,53.9722898 C9.86413603,56.0300072 10.4166191,57.496906 11.2227933,58.8082075 C18.2088848,70.1690626 28.9676461,76.2052215 41.3883666,79.7416767 C42.4465407,80.0427236 44.1829159,79.4242808 45.0730901,78.6355831 C52.9284967,71.6782433 60.6688967,64.5906753 68.4245182,57.5217113 C68.9741824,57.0205303 69.3750145,56.3575507 70.3858329,55.0941686 L37.1658177,55.0941686 C37.0863278,54.869229 37.0068379,54.6442895 36.9267842,54.41935 C43.5543255,48.3612045 50.1813031,42.3036227 56.8088444,36.2460409 M61.9520104,88.6530024 C41.9673462,88.1833918 25.3956742,83.6034203 11.9669541,70.7610087 C4.95154715,64.0517225 0.563817146,55.8868126 0.0513609503,46.075165 C-0.574410642,34.1043236 4.55973521,24.4753337 13.1711416,16.5725713 C22.9416348,7.60543355 34.7315098,2.74358291 47.7204986,0.943503005 C67.0348542,-1.73378465 85.3400827,1.04159693 101.665392,12.4328949 C110.038893,18.2756848 116.313521,25.8046755 118.871856,35.9399202 C121.824822,47.6407215 118.86791,58.0279662 111.32257,67.1298422 C101.786037,78.6327643 88.9859069,84.4828831 74.5931603,87.1646808 C69.8203834,88.0537275 64.9297811,88.3153113 61.9520104,88.6530024" id="Hongyan" fill="#000000"></path>
    </g>
</svg>