<?xml version="1.0" encoding="UTF-8"?>
<svg width="107px" height="94px" viewBox="0 0 107 94" version="1.1" xmlns="http://www.w3.org/2000/svg" xmlns:xlink="http://www.w3.org/1999/xlink">
    <title>howo</title>
    <g id="ТракТек" stroke="none" stroke-width="1" fill="none" fill-rule="evenodd">
        <path d="M66.7193149,-0.000500000002 C69.2063828,4.27189888 71.623477,8.40534983 74.0235776,12.548797 C82.3734484,26.960896 90.7193207,41.3749942 99.0611945,55.7910916 C101.467793,59.950033 103.767931,64.17395 106.294484,68.2584194 C107.549513,70.2871591 107.128171,71.3977429 105.044952,72.2324301 C101.658221,73.5884219 98.3064773,75.0333804 94.9082508,76.3608829 C93.5752504,76.8816877 92.9724763,77.4889601 93.2238821,79.1043547 C93.8221579,82.9534123 94.0705648,86.8564496 94.6443497,90.7100054 C94.9177473,92.5453176 94.3279683,93.0836159 92.5781241,93.0681217 C86.3499581,93.0141419 80.1207926,93.0381329 73.8921268,93.0491288 C54.6253472,93.0831161 35.3585676,93.1261 16.0922878,93.1621445 C12.0832902,93.1690839 12.0647972,93.1585878 12.7105552,89.1305973 C13.2088684,86.0192633 13.6472041,82.8914355 14.3314477,79.8200865 C14.7487913,77.9477882 14.0970356,77.0991062 12.4326593,76.4443516 C8.80801767,75.018386 5.25684851,73.4069899 1.64370256,71.9495361 C-0.0246721971,71.2762884 -0.476003057,70.506077 0.534118391,68.7922193 C7.85287562,56.3723738 15.1186527,43.92104 22.3494429,31.4492139 C27.8778711,21.9137874 33.326829,12.3313785 38.8217697,2.77645931 C39.3100867,1.92777736 39.880373,1.12657762 40.5791112,0.0464823929 C44.4436629,2.89841361 48.0907961,5.48994241 51.615975,8.23791258 C53.0904224,9.38748177 54.0750534,9.49144281 55.6394672,8.22041914 C59.1646461,5.35549279 62.9277358,2.78295687 66.7193149,-0.000500000002 Z M65.2603616,7.28526959 C61.8661337,9.75634354 58.5328828,12.0354894 55.3835631,14.5455487 C54.0640576,15.5976545 53.144902,15.4986915 51.9313568,14.5910317 C48.7050659,12.1764366 45.4352913,9.82031956 41.9835848,7.29526585 C30.1295272,27.7605963 18.3614374,48.0764827 6.51137836,68.534316 C10.4339084,70.2681662 14.1130296,71.9500359 17.8416322,73.5124504 C19.2156173,74.0882346 19.6854413,74.8524482 19.4935132,76.3588836 C19.0021973,80.2214361 18.6763194,84.1054805 18.2464805,88.3503897 L88.9389879,88.3503897 C88.5121478,84.3039062 88.2647406,80.493834 87.65247,76.7427398 C87.3210942,74.7110012 88.068814,74.0007674 89.7926679,73.3170236 C93.3858214,71.8925574 96.8785125,70.2146862 100.692583,68.5158229 C96.7407308,61.6868821 92.8032619,54.8826543 88.8707727,48.0869418 L77.07884,27.7091526 C73.1469061,20.9142731 69.2105479,14.1117113 65.2603616,7.28526959 Z M55.6412665,58.7168451 C64.987264,64.2277799 74.4122319,69.6067641 83.8706873,74.9242713 C85.3261418,75.7424646 86.152832,76.6146378 86.2657897,78.3045045 C86.4472217,81.0179876 86.7870943,83.7209746 87.0934795,86.7578365 C85.8229556,86.8168144 85.0122594,86.887288 84.2010635,86.8877878 C63.8656843,86.8937856 43.5303052,86.8937856 23.194926,86.8912865 L22.7943447,86.8906801 C19.9844109,86.8799798 19.9470997,86.6919482 20.3090076,83.7029814 C20.4184666,82.7978206 20.7333485,81.8931596 20.6958626,80.9989947 C20.5434197,77.3243718 22.3872287,75.3526107 25.580532,73.6302562 C34.3987273,68.8745385 43.0144985,63.7409623 51.6547605,58.6623656 C53.1352057,57.7921917 54.116338,57.8176821 55.6412665,58.7168451 Z M44.8607066,11.4640036 C49.9313064,14.0875204 51.917562,17.7846349 51.1773394,23.4750023 C50.690022,27.2240973 51.0853739,31.0886491 51.0853739,34.9012203 C51.0853739,40.3716702 51.0308943,45.8431197 51.1193611,51.31257 C51.1453514,52.9394603 50.572566,53.8746098 49.1700916,54.6673127 C44.3416511,57.39629 39.5232069,60.1431356 34.7079489,62.8956041 L20.2649241,71.1576328 L20.2649241,71.1576328 C19.9060586,71.3630559 19.4307367,71.7789 19.1693347,71.6789375 C16.0340097,70.4798868 12.9141789,69.233354 9.85532518,67.8558702 C9.6943855,67.7833974 9.92879765,66.3184464 10.2921615,65.6791859 C14.3836282,58.4873811 18.5290746,51.3260649 22.6740213,44.1647487 C28.8082224,33.5667204 34.9849076,22.9936827 41.0661287,12.3651659 C42.1327289,10.5013643 42.866454,10.4318904 44.8607066,11.4640036 Z M65.9074691,11.8734001 C69.0248009,17.0559579 71.9656988,22.3434764 74.9980624,27.5775149 C80.2735853,36.6821029 85.5795968,45.7696972 90.8656158,54.8687872 C92.9873207,58.5204188 95.0310548,62.2195325 97.2302307,65.8241816 C98.2143618,67.437577 97.5706031,67.8479232 96.1756259,68.7595815 C90.7491595,72.3052528 86.035426,71.2541467 80.8298768,67.8989041 C73.3131938,63.0542197 65.3256872,58.9432603 57.6260727,54.3739727 C56.7993825,53.8831566 56.1266346,52.4361989 56.0996447,51.4135821 C55.9522,45.8571644 56.0296709,40.2942492 56.0296709,34.733833 C56.0296709,29.2563857 55.9916852,23.7784386 56.0676567,18.3014912 C56.080152,17.3943311 56.3130647,16.1717893 56.920837,15.6484854 C58.9870626,13.8691522 61.2032321,12.2337651 63.5228628,10.803801 C63.9591993,10.5349018 65.5201143,11.2301412 65.9074691,11.8734001 Z" id="howo" fill="#FEFEFE"></path>
    </g>
</svg>