<?xml version="1.0" encoding="UTF-8"?>
<svg width="121px" height="77px" viewBox="0 0 121 77" version="1.1" xmlns="http://www.w3.org/2000/svg" xmlns:xlink="http://www.w3.org/1999/xlink">
    <title>baw</title>
    <g id="ТракТек" stroke="none" stroke-width="1" fill="none" fill-rule="evenodd">
        <path d="M54.2034656,6.6893022 C45.7825434,7.45055984 38.218363,9.85990105 31.1767298,13.9317138 C24.773402,17.6346698 19.8167253,22.7483069 17.0104052,29.6323258 C14.5906,35.5700046 14.5677099,41.5685056 17.38711,47.4538643 C35.7756677,42.2780971 53.0818531,23.1962979 54.2034656,6.6893022 M103.597576,47.4976824 C106.524233,40.9720563 106.074934,34.7106467 103.353634,28.4538152 C97.6854035,15.4247991 79.3779419,6.9234347 66.883899,7.16737723 C67.0179692,19.4966119 80.8566391,40.5541494 103.597576,47.4976824 M26.65104,59.0937814 C43.0337754,74.2273741 79.1948216,73.4975085 93.9549794,59.0545413 C78.460378,47.2766299 43.8159611,46.381302 26.65104,59.0937814 M62.4994735,76.5183411 C44.5347087,76.2999046 28.8615648,73.0397076 14.9921568,63.4330808 C10.1872084,60.1048676 6.07680957,56.0762189 3.29795756,50.8854097 C-3.39247689,38.3913667 0.28758906,24.3957365 12.6024357,14.8100377 C21.3091565,8.0326211 31.263058,4.12300065 41.9494411,1.94190594 C60.5145792,-1.84737825 78.5918323,-0.133894545 95.9686498,7.45906186 C103.829093,10.8945313 110.860916,15.6124975 115.855525,22.8732212 C123.424937,33.8781029 122.582583,46.9404732 113.413483,56.7191023 C102.946191,67.8829064 89.5149639,73.0959517 74.7345319,75.3208645 C70.2232302,75.999718 65.6426043,76.2207704 62.4994735,76.5183411" id="baw" fill="#000000"></path>
    </g>
</svg>