<?xml version="1.0" encoding="UTF-8"?>
<svg width="122px" height="74px" viewBox="0 0 122 74" version="1.1" xmlns="http://www.w3.org/2000/svg" xmlns:xlink="http://www.w3.org/1999/xlink">
    <title>JAC</title>
    <g id="ТракТек" stroke="none" stroke-width="1" fill="none" fill-rule="evenodd">
        <path d="M36.8766205,67.3355609 C53.0216882,72.749711 68.5238083,72.8199816 84.5161622,67.2924026 C76.3598017,58.8106951 68.581906,50.7229451 60.6944547,42.5212131 C52.6874882,50.8629329 45.0086353,58.8632596 36.8766205,67.3355609 L36.8766205,67.3355609 Z M61.1791554,2.76967591 C61.1791554,3.20181197 61.1099915,3.65663378 61.189115,4.08379003 C62.5768195,11.5651109 64.030368,19.0348122 65.3511219,26.5277526 C65.682002,28.4029243 66.8810274,28.226418 68.174669,28.2242048 C80.8504755,28.201519 93.5262819,28.1904528 106.202088,28.1650005 C106.98945,28.1633405 107.776259,28.0703842 108.606226,28.0172664 C103.230807,11.1977122 77.8443357,1.4904204 61.1791554,2.76967591 L61.1791554,2.76967591 Z M55.7661118,28.0936233 C57.3624146,19.5350055 58.9288387,11.136848 60.5411875,2.49191044 C50.6607093,2.48914713 41.6716154,4.25365657 33.1450897,8.18050622 C25.2355059,11.8224006 18.4928555,16.8602992 14.1095241,24.5961432 C13.520801,25.6352616 13.1008378,26.7695496 12.4385243,28.2198686 C26.585032,28.2198686 40.1538827,28.2208849 53.7232868,28.2153518 C54.2655318,28.2153518 54.8072235,28.1528276 55.7661118,28.0936233 L55.7661118,28.0936233 Z M85.0218887,66.8442205 C104.396081,60.1818002 115.326744,42.339727 108.679816,28.6668537 C95.6366109,31.4002111 82.5762531,34.1374416 69.0937189,36.9626487 C74.5726065,47.2409577 79.8080371,57.0638916 85.0218887,66.8442205 L85.0218887,66.8442205 Z M12.5431001,28.6248021 C6.0411401,44.5358192 19.0229277,60.9248972 36.4035394,66.8359208 C41.6151776,57.0594651 46.850055,47.2392978 52.3272826,36.9643086 C38.8403219,34.1374416 25.7816241,31.4002111 12.5431001,28.6248021 L12.5431001,28.6248021 Z M66.7637254,-0.000199999999 C72.4539779,0.944855545 78.2156075,1.5844833 83.8178835,2.90191729 C94.040308,5.30550118 103.50525,9.4680614 111.368908,16.6517008 C116.884868,21.6918126 120.788479,27.6675737 121.331277,35.3751988 C121.816531,42.2655833 119.367575,48.1815867 115.027956,53.359473 C108.118758,61.6027034 99.0156824,66.4884414 88.9216261,69.5095206 C66.256339,76.2920094 43.9562374,75.4670224 22.3057231,65.4365968 C16.0787587,62.5516321 10.5976579,58.5428924 6.21598644,53.1724538 C-2.05822937,43.0302594 -2.0991744,30.7395575 6.25582485,20.6692935 C13.9003725,11.4544486 24.1903011,6.48516068 35.4590371,3.48621393 C40.9263052,2.03100545 46.6337103,1.47714093 52.2310065,0.504973134 C53.0360743,0.364985398 53.8317358,0.169666541 54.6318238,-0.000199999999 L66.7637254,-0.000199999999 Z" id="JAC" fill="#1D1D1B"></path>
    </g>
</svg>