<?xml version="1.0" encoding="UTF-8"?>
<svg width="108px" height="94px" viewBox="0 0 108 94" version="1.1" xmlns="http://www.w3.org/2000/svg" xmlns:xlink="http://www.w3.org/1999/xlink">
    <title>sitraK</title>
    <g id="ТракТек" stroke="none" stroke-width="1" fill="none" fill-rule="evenodd">
        <path d="M71.1475158,1.04900977 C76.4742668,10.2562544 81.8017619,19.463251 87.1525676,28.6563603 C93.7048682,39.9137097 100.287671,51.1532041 106.83898,62.4110495 C108.406007,65.1036874 108.61258,64.5782039 106.038479,66.586895 C99.2086817,71.9163739 94.8403986,78.8136238 92.7429284,87.1680426 C92.2536509,89.1169689 92.012112,91.1281398 91.6269889,93.2761993 L16.1381475,93.2761993 C16.0657354,92.8975239 15.9653009,92.5126487 15.9216552,92.121574 C14.8292745,82.2998187 10.4922377,74.163132 3.16225131,67.5887606 C2.42746716,66.9296124 1.64258973,66.3126218 0.82001835,65.7677954 C-0.136961743,65.1336938 -0.213837573,64.5003361 0.367690884,63.5096299 C4.68761657,56.1491411 8.96141676,48.7616218 13.2461284,41.3807982 L36.3964167,1.49488959 L36.3964167,1.49488959 C37.4396961,-0.302268933 37.4191132,-0.236800484 39.341009,0.522038356 C49.3113082,4.45783288 59.2647443,4.56496307 69.1385767,0.199159869 C70.2969219,-0.313180341 70.6751014,0.23214208 71.1475158,1.04900977 Z M68.0992651,4.19719901 C66.4694975,4.76979996 64.8169151,5.3128905 63.1345744,5.69553374 C55.4643504,7.43912717 47.894809,6.96596883 40.4879467,4.36037416 C39.1227808,3.8802722 38.5355486,4.24803626 37.865737,5.4014217 C26.7705708,24.5092813 15.6436623,43.5987899 4.49021928,62.6729233 C3.923818,63.6415587 3.96969551,64.1915929 4.84062427,64.9360485 C12.219712,71.2435864 16.8997142,79.1436939 18.6480194,88.7221743 C18.8612878,89.890439 19.5134924,90.1042034 20.5642114,90.1017235 C31.6626014,90.0754369 42.7607435,90.0853564 53.8591335,90.0858524 L74.7767989,90.0858524 L74.7767989,90.0858524 C78.9851306,90.0861004 83.1937104,90.0568379 87.4015461,90.1084876 C88.4287064,90.1205705 88.9070725,89.7701655 89.0707436,88.7712757 C89.2438382,87.7163409 89.4938086,86.6698377 89.7727935,85.6367257 C92.0096322,77.3557109 96.3590683,70.4039039 102.934184,64.8752918 C103.669712,64.2568134 103.947705,63.7546406 103.391719,62.8090679 C98.8991945,55.1686023 94.4341967,47.5117696 90.0001972,39.8370819 C85.8136883,32.590171 81.6804964,25.3127577 77.5135785,18.0546874 C74.9873395,13.65491 72.4315901,9.27224374 69.9150226,4.86701068 C69.4671589,4.0831252 68.9761455,3.88895173 68.0992651,4.19719901 Z M69.5098622,63.4226114 C76.4616691,67.1089315 83.1667294,71.2592343 90.0081823,75.156095 C91.1122185,75.7847409 91.1811587,76.3454385 90.7099843,77.5139511 C89.4965861,80.5227719 88.4493389,83.6040048 87.4757437,86.7003648 C87.1285625,87.8051449 86.6638357,88.190764 85.5007788,88.1860948 C74.9811894,88.1433985 64.461352,88.1610056 53.9417626,88.1622455 C43.5045047,88.1634854 33.0674948,88.1644774 22.630237,88.1624935 C20.6666795,88.1622455 20.692718,88.04222 20.1094537,86.2207588 C19.14553,83.2104501 18.057117,80.2365954 16.9111712,77.2902672 C16.5439031,76.3464304 16.5575423,75.8055717 17.4907157,75.2778564 C24.5218784,71.3001521 31.4335115,67.098268 38.577508,63.3365601 C48.8243122,57.9408687 59.2938083,58.0053452 69.5098622,63.4226114 Z M41.2577962,6.70149118 C44.4067294,7.47248136 47.6005482,8.09567156 50.8062703,8.58048526 C51.9993336,8.76101947 52.3192362,9.17466103 52.3093017,10.281177 C52.2698869,14.5272027 52.2931976,18.7737244 52.2929496,23.0199981 C52.2927016,26.3593849 52.3284117,29.6990198 52.286006,33.0379107 C52.1419258,44.3773436 47.3463619,53.3556966 38.0369469,59.691505 C32.9740535,63.1372781 27.4846232,65.9571331 22.1836628,69.0527492 C20.0847046,70.2787947 17.9683874,71.4755778 15.873645,72.7083189 C15.1043908,73.1611424 14.6252807,73.0696353 14.0095301,72.3217079 C11.8942049,69.7518233 9.73647392,67.2084733 7.45276579,64.7891165 C6.54835884,63.8311444 6.42758939,63.1853875 7.0966571,62.0448973 C17.7065136,43.9562625 28.281652,25.8472927 38.8238082,7.71947596 C39.4534461,6.6365187 40.0072,6.39522779 41.2577962,6.70149118 Z M68.8270312,7.40619456 C71.3252477,11.6790028 73.8152807,15.9565228 76.3060576,20.2335468 C84.3976107,34.1277372 92.4740366,48.0308551 100.60502,61.9019827 C101.286239,63.0642956 101.234409,63.7236919 100.272222,64.7275414 C98.0242236,67.0729982 95.9351849,69.5749345 93.8590415,72.0771188 C93.203861,72.8667079 92.7488057,73.1687556 91.7365246,72.5760677 C85.2256378,68.7645145 78.6182841,65.1151444 72.1505469,61.233163 C62.9529738,55.7127344 57.3663329,47.6730105 55.8491511,36.9602395 C55.6820082,35.7813115 55.6569616,34.5756009 55.648282,33.3817936 C55.6227394,29.9196534 55.6391065,26.4572652 55.6391065,22.995125 C55.5736381,22.994877 55.5081696,22.994381 55.4427012,22.9941331 C55.4427012,18.663048 55.4615482,14.3319629 55.4277178,10.0011258 C55.4206304,9.06125678 55.7851706,8.75747326 56.6932974,8.58933838 C60.2080107,7.93886966 63.7093328,7.20978921 67.2014794,6.44549466 C68.1415964,6.23966583 68.4716665,6.79837952 68.8270312,7.40619456 Z" id="sitraK" fill="#FEFEFE"></path>
    </g>
</svg>