<?xml version="1.0" encoding="UTF-8"?>
<svg width="95px" height="95px" viewBox="0 0 95 95" version="1.1" xmlns="http://www.w3.org/2000/svg" xmlns:xlink="http://www.w3.org/1999/xlink">
    <title>XCMG</title>
    <g id="ТракТек" stroke="none" stroke-width="1" fill="none" fill-rule="evenodd">
        <path d="M86.4596935,6.12832556e-05 C91.144424,-0.0166873942 95.0235292,3.40107955 94.9976428,8.45435952 C94.8643631,34.4446578 94.8696103,60.4367071 94.9998716,86.4270053 C95.0221299,90.8635533 92.1504936,95.0097714 86.3750381,94.9999827 C78.8036292,94.9870073 71.2322204,94.9971636 63.6608116,94.9971636 C45.431221,94.9971636 27.2016305,95.0027671 8.97169014,94.9933112 C4.41884011,94.9908597 1.37964217,93.0205393 0.356431545,89.3541183 C0.097218186,88.4246426 0.0776285124,87.4072625 0.0765790656,86.429807 C0.0594381012,73.4052397 0.0650351508,60.3806724 0.0650351508,47.356105 C0.0650351508,34.3893235 0.190618951,21.4211411 0.00101889603,8.45751147 C-0.0713929331,3.49808964 3.72480596,-0.0156367434 8.53267156,0.00152388579 C34.5082289,0.0936309363 60.4841361,0.0939811533 86.4596935,6.12832556e-05 Z M67.0235889,11.5961372 C54.0944044,11.6325781 41.1655696,11.6290759 28.236385,11.6010586 C27.1953338,11.5989573 26.5408288,11.8742278 25.9944169,12.8240161 C19.5637567,24.0053917 13.071529,35.1513955 6.67654999,46.3527335 C6.31449084,46.9869764 6.34982222,48.1983767 6.71922749,48.8455776 C13.058236,59.9453527 19.4906452,70.9918949 25.8625364,82.0727583 C26.4554738,83.1041471 27.1257205,83.5163525 28.3409799,83.5054962 C34.7468032,83.4442078 41.1533261,83.4764277 47.5594991,83.4764277 C53.9076028,83.4764277 60.2560563,83.441406 66.6034604,83.5054962 C67.9205161,83.5184538 68.6988558,83.155629 69.3788974,81.970495 C75.7399442,70.8805259 82.158011,59.8227768 88.592869,48.775184 C89.0948544,47.9133001 89.1074477,47.2741543 88.5981162,46.3989622 C82.1114856,35.2473549 75.6591368,24.0761356 69.223929,12.8951101 C68.7058521,11.9954028 68.1111656,11.5930036 67.0235889,11.5961372 Z M77.6344086,29.6236559 C67.3848647,47.3914612 57.2749182,64.917815 46.9931055,82.7419355 C36.7414571,64.9744822 26.6483466,47.4819175 16.344086,29.6236559 L77.6344086,29.6236559 Z" id="XCMG" fill="#1D1D1B"></path>
    </g>
</svg>