<svg width="40" height="20" viewBox="0 0 40 20" fill="none" xmlns="http://www.w3.org/2000/svg">
<path fill-rule="evenodd" clip-rule="evenodd" d="M32.0213 4.68101C33.8161 4.68101 35.276 7.03989 35.276 8.83471H38.5307C39.1301 8.83471 39.6156 9.32019 39.6156 9.91959V14.2592C39.6156 14.8586 39.1301 15.344 38.5307 15.344H35.276C35.276 17.1389 33.8161 19.4977 32.0213 19.4977H22.7846C20.9898 19.4977 19.53 17.1389 19.53 15.344H9.02063C8.60973 15.344 8.23409 15.1121 8.05033 14.7446L0.114659 1.57038C-0.0534991 1.23406 -0.0358696 0.834687 0.162123 0.514644C0.359437 0.194602 0.708636 0 1.08496 0H5.96696C6.37786 0 6.7535 0.231895 6.93726 0.599401L12.4035 8.83471H19.53C19.53 7.03989 20.9898 4.68101 22.7846 4.68101H32.0213ZM28.7667 17.328V6.85079H26.0393V17.328H28.7667ZM9.69123 13.1743L2.84044 2.16978H5.29636L10.7626 10.4051C10.9463 10.7726 11.322 11.0045 11.7329 11.0045H19.53V13.1743H9.69123ZM21.6997 8.83471V15.344C21.6997 15.9421 22.1866 17.328 22.7846 17.328H23.8695V6.85079H22.7846C22.1866 6.85079 21.6997 8.23666 21.6997 8.83471ZM33.1062 15.344C33.1062 15.9421 32.6194 17.328 32.0213 17.328H30.9364V6.85079H32.0213C32.6194 6.85079 33.1062 8.23666 33.1062 8.83471V15.344ZM35.276 13.1743H37.4458V11.0045H35.276V13.1743Z" fill="#5F5F5F"/>
</svg>
