<svg width="36" height="20" viewBox="0 0 36 20" fill="none" xmlns="http://www.w3.org/2000/svg">
<path fill-rule="evenodd" clip-rule="evenodd" d="M20.1809 16.5864V18.2458C20.178 18.8294 19.7041 19.3009 19.1206 19.3009H15.3563C14.7707 19.3009 14.296 18.8261 14.296 18.2405V16.5811H13.278C13.278 17.1667 12.8033 17.6414 12.2177 17.6414C11.632 17.6414 11.1573 17.1667 11.1573 16.5811H9.52437C9.52437 17.1667 9.04963 17.6414 8.46401 17.6414C7.8784 17.6414 7.40366 17.1667 7.40366 16.5811C5.81539 16.5048 3.56573 15.1968 3.56191 13.6068V7.3535H2.65001V13.559C2.65001 14.1447 2.17527 14.6194 1.58965 14.6194C1.00403 14.6194 0.529297 14.1447 0.529297 13.559V6.28785C0.529297 5.70223 1.00403 5.22749 1.58965 5.22749H3.71036C4.14869 4.13554 6.1857 3.40134 7.36124 3.35067C7.36124 2.76505 7.83598 2.29031 8.4216 2.29031C9.00722 2.29031 9.48195 2.76505 9.48195 3.35067H11.1414C11.1414 2.76505 11.6161 2.29031 12.2018 2.29031C12.7874 2.29031 13.2621 2.76505 13.2621 3.35067H14.296V1.69121C14.296 1.1056 14.7707 0.630859 15.3563 0.630859H19.1206C19.7062 0.630859 20.1809 1.1056 20.1809 1.69121V3.35067H29.8938C31.7958 3.35359 33.337 6.89477 33.3399 8.79682V8.90816H34.4003C34.9859 8.90816 35.4606 9.38289 35.4606 9.96851C35.4606 10.5541 34.9859 11.0289 34.4003 11.0289H33.3664V11.1402C33.3635 13.0422 31.8223 16.5834 29.9203 16.5864H20.1809ZM31.0362 7.49037C30.8005 6.53364 30.3888 5.47138 29.9203 5.47138H20.1809V14.4656H29.9203C30.4473 14.4656 30.9025 13.1212 31.1161 12.0951L31.1782 11.7671C31.1869 11.7152 31.1949 11.6648 31.202 11.6163L31.2346 11.3493C31.2419 11.2692 31.2457 11.1988 31.2457 11.1402V8.79682C31.2457 8.73826 31.2419 8.66778 31.2346 8.58768L31.202 8.32074C31.1949 8.27219 31.1869 8.22181 31.1782 8.16988L31.1161 7.84191L31.0362 7.49037ZM9.51907 5.47138H11.1467V14.4656H9.51907V5.47138ZM7.08726 5.55513C6.544 5.69246 5.68416 5.99093 5.68262 6.33026V13.6068C5.68416 13.9461 6.544 14.2446 7.08726 14.3819L7.31125 14.4334L7.39836 14.4497V5.48728C7.37262 5.49163 7.3434 5.4971 7.31125 5.50363L7.08726 5.55513ZM13.2674 14.4656V5.47138H14.296V14.4656H13.2674ZM16.4167 2.75157V17.1855H18.0602V2.75157H16.4167Z" fill="#5F5F5F"/>
</svg>
