<svg width="39" height="38" viewBox="0 0 39 38" fill="none" xmlns="http://www.w3.org/2000/svg">
<path fill-rule="evenodd" clip-rule="evenodd" d="M31.9172 5.00992C28.5361 1.89654 24.0153 0 19.0347 0C8.50738 0 0.034668 8.47272 0.034668 19C0.034668 29.5273 8.50738 38 19.0347 38C29.5367 38 38.0347 29.4776 38.0347 19C38.0347 13.6798 35.8707 8.88427 32.3712 5.44195L31.9172 5.00992ZM2.03467 19C2.03467 9.57728 9.61195 2 19.0347 2C28.4574 2 36.0347 9.57728 36.0347 19C36.0347 28.3743 28.4309 36 19.0347 36C9.61195 36 2.03467 28.4227 2.03467 19ZM34.5211 18.152L34.5096 19.2356C34.4311 26.6167 29.107 32.9077 21.9299 34.2531L21.5973 34.3117L20.2519 34.5335L20.4432 33.1873L20.429 32.5209L20.4284 32.27C20.4443 28.664 21.4935 25.252 24.4776 22.2679C26.7544 19.991 29.7645 18.5786 33.0451 18.2603L33.4401 18.2274L34.5211 18.152ZM4.61254 18.2264L3.54839 18.1701L3.55972 19.2356L3.56706 19.5755C3.80618 26.9221 9.23872 33.1194 16.472 34.3117L17.6347 34.5033L17.6349 33.3358L17.6403 32.8434L17.6319 32.4183C17.5571 29.9952 17.0192 27.3376 15.7261 24.8907C13.6462 20.955 10.0116 18.5122 4.61254 18.2264ZM32.4491 20.353L32.1249 20.4097C29.7418 20.86 27.5801 21.9938 25.8918 23.6821C23.4304 26.1435 22.5084 28.9441 22.4333 31.9384L22.4321 32.093L22.5071 32.0742C27.8627 30.6601 31.8507 26.0264 32.4362 20.4838L32.4491 20.353ZM5.63315 20.4838L5.61805 20.319L6.01641 20.373C9.84443 20.9412 12.3958 22.8694 13.9578 25.8252L14.1612 26.2268C15.0754 28.1132 15.5079 30.1609 15.6143 32.0526L15.6171 32.087L15.5622 32.0742C10.2066 30.6601 6.21862 26.0264 5.63315 20.4838ZM19.0347 15.525C20.937 15.525 22.5097 17.0977 22.5081 19.0555C22.403 20.9473 20.9071 22.475 19.0347 22.475C17.1324 22.475 15.5597 20.9023 15.5597 19C15.5597 17.0977 17.1324 15.525 19.0347 15.525ZM17.5597 19C17.5597 18.2023 18.237 17.525 19.0347 17.525C19.8324 17.525 20.5097 18.2023 20.5097 19C20.4632 19.8085 19.8106 20.475 19.0347 20.475C18.237 20.475 17.5597 19.7977 17.5597 19ZM19.0347 3.525C25.642 3.525 31.4712 7.69985 33.6021 13.7937L33.7108 14.1162L34.1357 15.425H3.93361L4.35854 14.1162C6.39379 7.84762 12.3114 3.525 19.0347 3.525ZM6.8249 13.2918C8.97139 8.6346 13.7122 5.525 19.0347 5.525L19.3533 5.52872C24.5457 5.65 29.1409 8.72775 31.2444 13.2918L31.3051 13.425H6.76605L6.8249 13.2918Z" fill="#5F5F5F"/>
</svg>
