<svg width="35" height="30" viewBox="0 0 35 30" fill="none" xmlns="http://www.w3.org/2000/svg">
<path fill-rule="evenodd" clip-rule="evenodd" d="M0.125 3.93314C0.125 1.76093 1.88593 0 4.05814 0C5.27951 0 6.37085 0.556716 7.09226 1.43023H27.9077C28.6291 0.556716 29.7205 0 30.9419 0C33.1141 0 34.875 1.76093 34.875 3.93314V10.2238C34.875 10.8163 34.3947 11.2965 33.8023 11.2965C33.2099 11.2965 32.7297 10.8163 32.7297 10.2238V3.93314C32.7297 2.94576 31.9293 2.14535 30.9419 2.14535C29.9544 2.14535 29.1541 2.94576 29.1541 3.93314V20.8052C29.1541 21.7927 29.9544 22.593 30.9419 22.593C31.9293 22.593 32.7297 21.7927 32.7297 20.8052V15.9448C32.7297 15.3524 33.2099 14.8721 33.8023 14.8721C34.3947 14.8721 34.875 15.3524 34.875 15.9448V20.8052C34.875 22.6056 33.6654 24.1234 32.0145 24.5903V27.9564C32.0145 28.5488 31.5343 29.0291 30.9419 29.0291C30.3495 29.0291 29.8692 28.5488 29.8692 27.9564V24.5903C29.0902 24.37 28.4095 23.9157 27.9077 23.3081H7.09227C6.59051 23.9157 5.90978 24.37 5.13081 24.5903V27.9564C5.13081 28.5488 4.65056 29.0291 4.05814 29.0291C3.46572 29.0291 2.98547 28.5488 2.98547 27.9564V24.5903C1.33462 24.1234 0.125 22.6056 0.125 20.8052V3.93314ZM5.84593 20.8052C5.84593 21.7927 5.04552 22.593 4.05814 22.593C3.07076 22.593 2.27035 21.7927 2.27035 20.8052V3.93314C2.27035 2.94576 3.07076 2.14535 4.05814 2.14535C5.04552 2.14535 5.84593 2.94576 5.84593 3.93314V20.8052ZM7.99128 20.8072V21.1628H27.0087V20.8091L27.0087 20.8052V3.93314L27.0087 3.92922V3.57558H7.99128V3.93118L7.99128 3.93314V20.8052L7.99128 20.8072ZM11.2093 5.00581C11.8017 5.00581 12.282 5.48607 12.282 6.07849V18.6599C12.282 19.2523 11.8017 19.7326 11.2093 19.7326C10.6169 19.7326 10.1366 19.2523 10.1366 18.6599V6.07849C10.1366 5.48607 10.6169 5.00581 11.2093 5.00581ZM16.5727 6.07849C16.5727 5.48607 16.0924 5.00581 15.5 5.00581C14.9076 5.00581 14.4273 5.48607 14.4273 6.07849V18.6599C14.4273 19.2523 14.9076 19.7326 15.5 19.7326C16.0924 19.7326 16.5727 19.2523 16.5727 18.6599V6.07849ZM19.7907 5.00581C20.3831 5.00581 20.8634 5.48607 20.8634 6.07849V18.6599C20.8634 19.2523 20.3831 19.7326 19.7907 19.7326C19.1983 19.7326 18.718 19.2523 18.718 18.6599V6.07849C18.718 5.48607 19.1983 5.00581 19.7907 5.00581ZM24.8634 6.07849C24.8634 5.48607 24.3831 5.00581 23.7907 5.00581C23.1983 5.00581 22.718 5.48607 22.718 6.07849V18.6599C22.718 19.2523 23.1983 19.7326 23.7907 19.7326C24.3831 19.7326 24.8634 19.2523 24.8634 18.6599V6.07849Z" fill="#5F5F5F"/>
</svg>
