<svg width="40" height="31" viewBox="0 0 40 31" fill="none" xmlns="http://www.w3.org/2000/svg">
<path fill-rule="evenodd" clip-rule="evenodd" d="M27.4887 24.4295V27.4198C27.4905 28.9552 28.7347 30.1994 30.2701 30.2013H36.46C37.9953 30.1994 39.2395 28.9552 39.2414 27.4198V24.4295C39.2395 22.8941 37.9953 21.6499 36.46 21.648H34.4346V19.4999H34.6191C35.6825 19.4999 36.5447 18.6378 36.5447 17.5743V12.91C36.5447 11.8465 35.6825 10.9843 34.6191 10.9843H34.4346V8.83618H36.46C37.9953 8.83429 39.2395 7.59009 39.2414 6.05471V3.06271C39.2395 1.52734 37.9953 0.283136 36.46 0.28125H30.2701C28.7347 0.283136 27.4905 1.52734 27.4887 3.06271V6.053C27.4905 7.58838 28.7347 8.83258 30.2701 8.83447H32.295V10.9826H32.1102C31.0467 10.9826 30.1845 11.8447 30.1845 12.9082V14.1715H26.397V13.9519C26.397 12.8884 25.5349 12.0263 24.4714 12.0263H20.8559C20.5322 11.3768 19.87 10.9651 19.1443 10.9621H13.3854C12.3219 10.9621 11.4597 11.8242 11.4597 12.8877V14.1715H9.81567V12.9082C9.81567 11.8447 8.95353 10.9826 7.89004 10.9826H7.70646V8.83447H9.73008C11.2655 8.83258 12.5097 7.58838 12.5115 6.053V3.06271C12.5097 1.52734 11.2655 0.283136 9.73008 0.28125H3.54025C2.00488 0.283136 0.760675 1.52734 0.758789 3.06271V6.053C0.760675 7.58838 2.00488 8.83258 3.54025 8.83447H5.56559V10.9826H5.38116C4.31766 10.9826 3.45553 11.8447 3.45553 12.9082V17.5725C3.45553 18.636 4.31766 19.4982 5.38116 19.4982H5.56559V21.6463H3.54025C2.00488 21.6482 0.760675 22.8924 0.758789 24.4278V27.4198C0.760675 28.9552 2.00488 30.1994 3.54025 30.2013H9.73008C11.2655 30.1994 12.5097 28.9552 12.5115 27.4198V24.4295C12.5097 22.8941 11.2655 21.6499 9.73008 21.648H7.70518V19.4999H7.89004C8.95353 19.4999 9.81567 18.6378 9.81567 17.5743V16.311H11.4597V17.5948C11.4597 18.6583 12.3219 19.5204 13.3854 19.5204H19.1443C19.87 19.5174 20.5322 19.1058 20.8559 18.4562H24.4727C25.5362 18.4562 26.3983 17.5941 26.3983 16.5306V16.311H30.1845V17.5743C30.1845 18.6378 31.0467 19.4999 32.1102 19.4999H32.2938V21.648H30.2701C28.7916 21.6498 27.5831 22.8037 27.4939 24.2601L27.4887 24.4295ZM30.2701 6.69488C29.9156 6.69488 29.6283 6.4075 29.6283 6.053V3.06271C29.6283 2.70822 29.9156 2.42084 30.2701 2.42084H36.46C36.8145 2.42084 37.1018 2.70822 37.1018 3.06271V6.053C37.1018 6.4075 36.8145 6.69488 36.46 6.69488H30.2701ZM2.89838 6.053C2.89838 6.4075 3.18576 6.69488 3.54025 6.69488H9.73008C10.0846 6.69488 10.372 6.4075 10.372 6.053V3.06271C10.372 2.70822 10.0846 2.42084 9.73008 2.42084H3.54025C3.18576 2.42084 2.89838 2.70822 2.89838 3.06271V6.053ZM9.73008 23.7876C10.0846 23.7876 10.372 24.075 10.372 24.4295V27.4198C10.372 27.7743 10.0846 28.0617 9.73008 28.0617H3.54025C3.18576 28.0617 2.89838 27.7743 2.89838 27.4198V24.4295C2.89838 24.075 3.18576 23.7876 3.54025 23.7876H9.73008ZM5.59511 13.1239V17.3603H7.67608V13.1239H5.59511ZM13.5993 17.3808V13.1017H18.9303V17.3808H13.5993ZM21.0699 14.1659V16.3166H24.2587V14.1659H21.0699ZM32.3241 17.3603V13.1239H34.4038V17.3603H32.3241ZM37.1005 24.4295C37.1005 24.075 36.8132 23.7876 36.4587 23.7876H30.2701C29.9156 23.7876 29.6283 24.075 29.6283 24.4295V27.4198C29.6283 27.7743 29.9156 28.0617 30.2701 28.0617H36.4587C36.8132 28.0617 37.1005 27.7743 37.1005 27.4198V24.4295Z" fill="#5F5F5F"/>
</svg>
