<svg width="40" height="29" viewBox="0 0 40 29" fill="none" xmlns="http://www.w3.org/2000/svg">
<path fill-rule="evenodd" clip-rule="evenodd" d="M18.4698 19.8386C18.4096 19.6987 18.3448 19.5483 18.2726 19.3824C18.5005 19.3666 18.712 19.3484 18.9125 19.3312C19.3136 19.2968 19.6709 19.2661 20.0282 19.2647C24.9636 19.2466 29.8486 19.7472 34.6896 20.7006C35.889 20.9368 36.3689 20.6026 36.6246 19.4068C36.9182 18.0334 37.2073 16.659 37.4965 15.2847L37.5798 14.8889C37.667 14.4743 37.7543 14.0596 37.8416 13.645C38.5405 10.3249 39.2394 7.00479 39.9352 3.68414C40.1035 2.88091 39.9492 2.34885 39.4121 2.08098C39.0981 1.92434 38.7349 1.85091 38.3855 1.78204C31.1463 0.355046 23.8475 -0.25337 16.4667 0.0968148C11.3705 0.338557 6.33459 0.990095 1.34779 2.04661C0.154172 2.29951 -0.176353 2.79873 0.0826387 3.98829C0.452281 5.68602 0.833612 7.38116 1.21494 9.0763C1.31027 9.50008 1.4056 9.92385 1.50075 10.3477C1.75331 11.4724 2.00665 12.5969 2.25998 13.7214C2.71106 15.7236 3.16213 17.7258 3.60883 19.7291C3.7486 20.3561 4.02827 20.854 4.71874 20.9379C4.96298 20.9677 5.21819 20.9262 5.46999 20.8854C5.5328 20.8752 5.5954 20.865 5.65756 20.856C5.97574 20.8098 6.29392 20.7635 6.61211 20.7173C9.3003 20.3269 11.9886 19.9365 14.6747 19.5322C15.3172 19.4355 15.693 19.647 15.9513 20.2573C16.4029 21.3248 16.9053 22.3726 17.429 23.4072C17.7123 23.9671 17.7799 24.4396 17.5066 25.0638C16.926 26.3892 17.6435 27.9325 18.971 28.4617C20.3796 29.0232 21.9199 28.3687 22.4788 26.971C23.0125 25.6364 22.3993 23.9991 21.0435 23.5729C20.1809 23.3016 19.7664 22.7947 19.4756 22.0313C19.3556 21.7166 19.2045 21.4138 19.0533 21.111C18.9686 20.9412 18.8838 20.7713 18.8045 20.5993C18.6952 20.3619 18.5918 20.1218 18.4698 19.8386ZM21.6135 2.52832C21.163 2.52832 20.7124 2.52448 20.2617 2.52065C19.2768 2.51226 18.292 2.50387 17.3084 2.53555C12.6737 2.6847 8.09997 3.34664 3.55683 4.24195C2.78404 4.39428 2.7238 4.49194 2.89832 5.27158C3.18385 6.547 3.47072 7.82213 3.75758 9.09726C4.40119 11.9581 5.04479 14.8189 5.67329 17.683C5.80126 18.2663 6.03856 18.4307 6.62681 18.3332C8.62158 18.0021 10.6213 17.6997 12.6208 17.3973L13.5729 17.2532C14.429 17.1234 14.4491 17.1133 14.0795 16.3249C13.271 14.6004 12.4599 12.8772 11.6487 11.1541L11.6486 11.1539C11.0491 9.88044 10.4496 8.60698 9.85127 7.33299C9.36246 6.2922 9.4827 5.60654 10.2046 5.25192C10.9144 4.90326 11.5739 5.25661 12.054 6.27191C13.5421 9.41875 15.0265 12.5672 16.5036 15.7193C16.5163 15.7463 16.5287 15.7727 16.5408 15.7985C16.8687 16.4988 17.0021 16.7837 17.2201 16.8832C17.3696 16.9514 17.5588 16.9324 17.8779 16.9003C18.013 16.8867 18.1712 16.8708 18.3596 16.8582C18.5489 16.8456 18.7389 16.843 18.9289 16.8405H18.9289C19.0136 16.8393 19.0983 16.8382 19.183 16.8362C24.0193 16.7212 28.7959 17.2744 33.5418 18.1418C34.1259 18.2486 34.3901 18.1016 34.5123 17.5093C35.3736 13.337 36.2533 9.16838 37.1412 5.00155C37.252 4.48129 37.198 4.16928 36.5855 4.055C31.6358 3.1309 26.6498 2.55229 21.6135 2.52832ZM20.8565 25.9923C20.8494 25.5137 20.398 25.0984 19.8909 25.104C19.4737 25.1086 19.1282 25.5353 19.1459 26.0242C19.1634 26.5071 19.521 26.8391 20.0112 26.8275C20.4915 26.8161 20.8634 26.4487 20.8565 25.9923Z" fill="#5F5F5F"/>
</svg>
