<svg width="39" height="26" viewBox="0 0 39 26" fill="none" xmlns="http://www.w3.org/2000/svg">
<path fill-rule="evenodd" clip-rule="evenodd" d="M0.928132 4.9416L3.01904 0.759777C3.19677 0.405368 3.5585 0.181641 3.95472 0.181641H11.2729C11.851 0.181641 12.3184 0.650004 12.3184 1.2271V6.45437H20.5002V5.40891H22.5911V6.45437H25.682V5.40891H27.7729V6.45437H30.8638V5.40891H32.9547V6.45437H35.0456C35.3237 6.45437 35.5893 6.56414 35.7848 6.76069L37.8757 8.85159C38.0722 9.0471 38.182 9.31369 38.182 9.59073V15.7725C38.182 16.0496 38.0722 16.3162 37.8757 16.5117L35.7848 18.6026C35.5893 18.7991 35.3237 18.9089 35.0456 18.9089H32.9547V19.9544H30.8638V18.9089H27.7729V19.9544H25.682V18.9089H22.5911V19.9544H20.5002V18.9089H12.3184V24.1362C12.3184 24.7133 11.851 25.1816 11.2729 25.1816H3.95472C3.5585 25.1816 3.19677 24.9579 3.01904 24.6035L0.928132 20.4217C0.855996 20.2774 0.818359 20.1164 0.818359 19.9544V5.40891C0.818359 5.24687 0.855996 5.08587 0.928132 4.9416ZM10.2275 23.0907V20.9998H3.55536L4.60081 23.0907H10.2275ZM34.6128 8.54528L36.0911 10.0235V15.3397L34.6128 16.818H32.9547V8.54528H34.6128ZM30.8638 16.818V8.54528H27.7729V16.818H30.8638ZM25.682 8.54528V16.818H22.5911V8.54528H25.682ZM20.5002 16.818V8.54528H12.3184V16.818H20.5002ZM2.90927 6.45437H10.2275V18.9089H2.90927V6.45437ZM10.2275 4.36346V2.27255H4.60081L3.55536 4.36346H10.2275Z" fill="#5F5F5F"/>
</svg>
