<svg width="39" height="36" viewBox="0 0 39 36" fill="none" xmlns="http://www.w3.org/2000/svg">
<path fill-rule="evenodd" clip-rule="evenodd" d="M21.7022 33.7088C21.5618 33.716 21.439 33.7223 21.3407 33.7295C17.4444 33.6771 14.2203 32.6044 11.3946 30.4174C10.9169 30.0476 10.6206 30.0937 10.2433 30.5162C9.89684 30.9039 9.49994 31.2515 9.09776 31.5837C8.64794 31.9553 8.22012 31.9512 7.77219 31.5043C4.42628 28.1653 2.47859 24.1533 2.10946 19.4477C1.70941 14.3497 3.13653 9.77361 6.37938 5.79049C6.78797 5.28852 7.23414 4.81545 7.68195 4.34716C8.17336 3.83312 8.60357 3.79391 9.16625 4.25076C9.58678 4.59212 9.97652 4.97821 10.3413 5.37939C10.6659 5.73632 10.9267 5.72024 11.2972 5.43167C14.2432 3.13785 17.5881 2.02292 21.3277 2.05372C28.8907 2.11593 35.4935 7.74736 36.7178 15.2002C38.1919 24.1741 32.1144 32.3774 23.0785 33.5965C22.5814 33.6636 22.0789 33.6894 21.7027 33.7087L21.7023 33.7088H21.7022ZM6.54943 2.62544C2.25312 6.79783 0.0887459 11.8833 -0.000488281 17.5443C0.0506643 23.7347 2.18198 28.7325 6.29052 32.9052C7.54885 34.1833 9.02586 34.2791 10.4263 33.1292C10.863 32.7706 11.1648 32.7651 11.6302 33.0532C14.9521 35.1087 18.5649 35.987 22.4711 35.6979C32.6721 34.9433 40.2431 25.6054 38.8295 15.5017C37.0413 2.71958 22.893 -4.05392 11.837 2.5983C11.2161 2.97195 10.8269 2.97409 10.249 2.52565C8.96994 1.53327 7.5985 1.60667 6.54943 2.62544ZM16.1642 7.73306C17.6323 7.06431 19.1709 6.71592 20.0686 6.70661C26.6974 6.69505 31.5506 11.151 32.0444 17.043C32.5284 22.8172 28.374 28.0443 22.5554 28.9651C20.39 29.3078 18.3061 28.9919 16.2928 28.1377C15.8239 27.9388 15.661 27.7294 15.9057 27.1976C16.5488 25.7995 16.1986 24.5625 15.1727 23.4617C13.3643 21.5214 12.6058 19.2371 13.015 16.6036C13.2589 15.0333 13.9318 13.6497 15.0361 12.5041C16.1875 11.3096 16.5616 9.98691 15.8286 8.44593C15.6336 8.03595 15.844 7.87898 16.1642 7.73306ZM32.9544 12.5946C30.6876 7.40377 26.4335 4.91715 21.5581 4.6585C18.0831 4.69118 15.5853 5.47191 13.3303 7.01391C12.3881 7.65828 12.3965 7.67034 13.2212 8.49557L13.2878 8.56194C13.3544 8.62837 13.4211 8.69482 13.4872 8.76177C14.3624 9.64745 14.372 10.2016 13.5279 11.1186C10.1027 14.839 9.96443 20.4081 13.2006 24.3007C14.5476 25.9209 14.5448 25.9933 13.0741 27.4727C12.4302 28.1206 12.4316 28.1389 13.1671 28.6736C18.4394 32.5059 26.087 31.8179 30.4935 26.9624C34.3241 22.7412 35.2373 17.8219 32.9544 12.5946ZM4.68433 17.9237C4.74378 14.1895 5.79398 10.8906 8.01654 7.97787C8.36719 7.51838 8.62484 7.44699 9.03695 7.90008C9.5985 8.51755 10.1942 9.10725 10.8097 9.67144C11.2006 10.0295 11.1963 10.321 10.8947 10.7399C9.30352 12.9487 8.55823 15.4283 8.60712 18.1455C8.65551 20.8378 9.49129 23.2731 11.0802 25.4391C11.4206 25.9033 11.4312 26.2048 10.9971 26.5958C10.377 27.1543 9.79632 27.7583 9.21944 28.3625C8.90989 28.6869 8.70477 28.6625 8.42475 28.3107C5.98062 25.2403 4.77382 21.7363 4.68433 17.9237ZM21.326 13.7313C23.5916 13.7555 25.1911 15.4113 25.1761 17.7176C25.161 20.0431 23.4182 21.7557 21.0985 21.7243C18.8371 21.6938 17.1717 20.0026 17.1939 17.7592C17.2173 15.399 18.9538 13.7062 21.326 13.7313ZM21.1493 23.7572C24.6164 23.7532 27.2109 21.1459 27.2108 17.6653C27.2107 14.2442 24.6833 11.7048 21.2738 11.7002C17.8149 11.6954 15.1735 14.3038 15.1466 17.751C15.12 21.1326 17.747 23.761 21.1493 23.7572Z" fill="#5F5F5F"/>
</svg>
