<svg width="38" height="32" viewBox="0 0 38 32" fill="none" xmlns="http://www.w3.org/2000/svg">
<path fill-rule="evenodd" clip-rule="evenodd" d="M13.4013 0C14.8534 0 16.0435 1.13634 16.1297 2.567L16.1347 2.73333V7.13333C16.1347 7.34276 16.111 7.54675 16.0663 7.74275L16.0146 7.93601L15.9711 8.066L34.3013 8.06667C35.9246 8.06667 37.2355 9.52655 36.7939 11.0991L36.7421 11.261V15.954L36.888 15.8875V21.2133C36.888 21.4636 36.8486 21.691 36.7784 21.8959L36.7781 23.816L37.0347 23.6975V29.1333C37.0347 30.5854 35.8983 31.7755 34.4677 31.8617L34.3013 31.8667H2.768C1.31595 31.8667 0.125828 30.7303 0.039663 29.2997L0.034668 29.1333V19.7742L0.182054 19.842V18.362L0.108001 18.3048L0.108054 18.154L0.034668 18.0818V10.8C0.034668 9.34795 1.17101 8.15783 2.60167 8.07166L2.76605 8.066L2.72142 7.93601C2.67979 7.80061 2.64841 7.66074 2.62818 7.51733L2.60633 7.29967L2.60133 7.13333V2.73333C2.60133 1.28128 3.73767 0.0911601 5.16833 0.00499502L5.33467 0H13.4013ZM2.03467 29.1333C2.03467 29.5031 2.31196 29.8112 2.66884 29.8599L2.768 29.8667H34.3013L34.4005 29.8599C34.7217 29.816 34.9784 29.5621 35.0265 29.2422L35.0347 29.1333V26.8233C34.558 27.0433 34.0813 27.19 33.568 27.2633C32.358 27.41 31.1113 27.1167 29.938 26.31C29.608 26.0167 29.2413 25.8333 28.838 25.7233C28.3247 25.5767 27.738 25.5767 27.188 25.7233C26.8213 25.8333 26.418 26.0533 26.088 26.31C24.4013 27.6667 22.0547 27.6667 20.368 26.31C20.038 26.0167 19.6713 25.8333 19.268 25.7233C18.7547 25.5767 18.168 25.5767 17.618 25.7233C17.2513 25.8333 16.848 26.0533 16.518 26.31C15.6747 27.0067 14.648 27.3367 13.658 27.3367C12.668 27.3367 11.6413 26.97 10.798 26.31C10.468 26.0167 10.1013 25.8333 9.698 25.7233C9.18467 25.5767 8.598 25.5767 8.048 25.7233C7.74245 25.815 7.41143 25.9831 7.1186 26.1851L6.948 26.31C5.958 27.08 4.71133 27.41 3.50133 27.2633C3.09067 27.2047 2.70347 27.0991 2.32096 26.9465L2.03467 26.8233V29.1333ZM27.3713 21.8C27.8847 21.6533 28.4713 21.6533 29.0213 21.8C29.388 21.91 29.7913 22.13 30.1213 22.3867C31.1113 23.1933 32.358 23.4867 33.3113 23.34C33.722 23.2813 34.1092 23.1757 34.4917 23.0232L34.778 22.9V25.1L34.7671 25.1272C34.7613 25.133 34.7536 25.1378 34.7446 25.1433C34.7327 25.1507 34.7187 25.1593 34.7047 25.1733L34.5366 25.311C34.2514 25.5257 33.9408 25.6683 33.6047 25.76C33.0547 25.9067 32.468 25.9067 31.918 25.76C31.5513 25.6133 31.148 25.43 30.818 25.1733C29.1313 23.8167 26.7847 23.8167 25.098 25.1733C24.768 25.4667 24.4013 25.65 23.998 25.76C23.4847 25.9067 22.898 25.9067 22.348 25.76C21.9813 25.6133 21.578 25.43 21.248 25.1733C19.5613 23.8167 17.2147 23.8167 15.528 25.1733C15.198 25.4667 14.8313 25.65 14.428 25.76C13.9147 25.9067 13.328 25.9067 12.778 25.76C12.4113 25.6133 12.008 25.43 11.678 25.1733C9.99133 23.8167 7.64467 23.8167 5.958 25.1733C5.628 25.4667 5.26133 25.65 4.858 25.76C4.34467 25.9067 3.758 25.9067 3.208 25.76C2.84133 25.6133 2.438 25.43 2.108 25.1733C2.108 25.1458 2.08738 25.1183 2.06159 25.1063L2.03467 25.1V22.9L2.21385 22.9791C2.63394 23.1555 3.07508 23.2758 3.68467 23.34L3.92707 23.3698C5.05975 23.4772 6.20733 23.1396 7.13133 22.3867C7.46133 22.0933 7.828 21.91 8.23133 21.8C8.74467 21.6533 9.33134 21.6533 9.88133 21.8C10.248 21.91 10.6513 22.13 10.9813 22.3867C11.8247 23.0833 12.8513 23.4133 13.8413 23.4133C14.8313 23.4133 15.858 23.0467 16.7013 22.3867C17.0313 22.0933 17.398 21.91 17.8013 21.8C18.3147 21.6533 18.9013 21.6533 19.4513 21.8C19.818 21.91 20.2213 22.13 20.5513 22.3867C22.238 23.7433 24.5847 23.7433 26.2713 22.3867C26.6013 22.0933 26.968 21.91 27.3713 21.8ZM29.0213 17.8767C28.4713 17.73 27.8847 17.73 27.3713 17.8767C26.968 17.9867 26.6013 18.17 26.2713 18.4633C24.5847 19.82 22.238 19.82 20.5513 18.4633C20.2213 18.2067 19.818 18.0233 19.4513 17.8767C18.9013 17.73 18.3147 17.73 17.7647 17.8767C17.3613 17.9867 16.9947 18.17 16.6647 18.4633C15.8213 19.1233 14.7947 19.49 13.8047 19.49C12.8147 19.49 11.788 19.16 10.9447 18.4633C10.6147 18.2067 10.2113 18.0233 9.84467 17.8767C9.29467 17.73 8.708 17.73 8.19467 17.8767C7.79133 17.9867 7.42467 18.17 7.09467 18.4633C6.10467 19.27 4.858 19.6 3.648 19.4533C3.23733 19.3947 2.85013 19.2891 2.46763 19.1365L2.18133 19.0133V21.2133L2.20826 21.2196C2.23404 21.2317 2.25467 21.2592 2.25467 21.2867C2.58467 21.5433 2.988 21.7633 3.35467 21.8733C3.90467 22.02 4.49133 22.02 5.00467 21.8733C5.408 21.7633 5.77467 21.58 6.10467 21.2867C7.79133 19.93 10.138 19.93 11.8247 21.2867C12.1547 21.5433 12.558 21.7633 12.9247 21.8733C13.4747 22.02 14.0613 22.02 14.5747 21.8733C14.978 21.7633 15.3447 21.58 15.6747 21.2867C17.3613 19.93 19.708 19.93 21.3947 21.2867C21.7247 21.5433 22.128 21.7633 22.4947 21.8733C23.0447 22.02 23.6313 22.02 24.1447 21.8733C24.548 21.7633 24.9147 21.58 25.2447 21.2867C26.9313 19.93 29.278 19.93 30.9647 21.2867C31.2947 21.5433 31.698 21.7633 32.0647 21.8733C32.6147 22.02 33.2013 22.02 33.7147 21.8733C34.0508 21.7817 34.3614 21.6391 34.6466 21.4243L34.8147 21.2867C34.8287 21.2727 34.8427 21.264 34.8546 21.2566C34.8636 21.2511 34.8713 21.2463 34.8771 21.2405L34.888 21.2133V19.0133L34.6017 19.1365C34.2192 19.2891 33.832 19.3947 33.4213 19.4533C32.358 19.5633 31.1113 19.27 30.1213 18.4633C29.7913 18.2067 29.388 17.9867 29.0213 17.8767ZM5.33467 2H13.4013L13.5102 2.00812C13.8301 2.05625 14.084 2.31298 14.1279 2.63418L14.1347 2.73333V7.13333L14.1265 7.2422C14.0784 7.56208 13.8217 7.81604 13.5005 7.85994L13.4013 7.86667H12.668V10.0667H34.3013L34.3869 10.0717C34.7228 10.1114 34.9751 10.3823 34.7919 10.7204L34.7413 10.8V17.2533L34.7305 17.2805L34.668 17.3267C34.338 17.62 33.9713 17.8033 33.568 17.9133C33.0547 18.06 32.468 18.06 31.918 17.9133C31.5513 17.8033 31.148 17.5833 30.818 17.3267C29.1313 15.97 26.7847 15.97 25.098 17.3267C24.768 17.62 24.4013 17.8033 23.998 17.9133C23.4847 18.06 22.898 18.06 22.348 17.9133C21.9813 17.8033 21.578 17.5833 21.248 17.3267C19.5613 15.97 17.2147 15.97 15.528 17.3267C15.198 17.62 14.8313 17.8033 14.428 17.9133C13.9147 18.06 13.328 18.06 12.778 17.9133C12.4113 17.8033 12.008 17.5833 11.678 17.3267C9.99133 15.97 7.64467 15.97 5.958 17.3267C5.628 17.62 5.26133 17.8033 4.858 17.9133C4.34467 18.06 3.758 18.06 3.208 17.9133C2.84133 17.8033 2.438 17.5833 2.108 17.3267C2.108 17.304 2.09399 17.2953 2.07463 17.2834C2.07311 17.2824 2.07156 17.2815 2.06998 17.2805L2.03467 17.2533V10.8L2.04279 10.6911C2.09092 10.3713 2.34765 10.1173 2.66884 10.0734L2.768 10.0667H6.068V7.86667H5.33467L5.2258 7.85855C4.90592 7.81041 4.65197 7.55369 4.60806 7.23249L4.60133 7.13333V2.73333L4.60946 2.62446C4.65759 2.30458 4.91431 2.05063 5.23551 2.00673L5.33467 2Z" fill="#5F5F5F"/>
</svg>
