<svg width="33" height="36" viewBox="0 0 33 36" fill="none" xmlns="http://www.w3.org/2000/svg">
<path fill-rule="evenodd" clip-rule="evenodd" d="M16.5002 0C17.0714 0 17.5421 0.432666 17.6023 0.987921L17.6088 1.10867L17.6083 5.344L18.5904 4.36296C18.9926 3.96215 19.6267 3.93352 20.062 4.27707L20.1588 4.36296C20.5596 4.76514 20.5882 5.3993 20.2447 5.83462L20.1512 5.93893L18.3154 7.7747C18.1037 7.98612 17.8645 8.1534 17.6094 8.27643L17.6083 15.987L23.4015 12.7027C23.3733 12.46 23.3795 12.21 23.4237 11.9592L23.4641 11.7711L24.147 9.07478C24.2978 8.48053 24.9009 8.12132 25.4937 8.2721C26.0483 8.41145 26.3982 8.9474 26.3198 9.50019L26.2937 9.62928L25.8696 11.3038L30.7472 8.53894C31.2412 8.25472 31.8664 8.39416 32.1964 8.84428L32.2624 8.94545C32.5466 9.43937 32.4072 10.0646 31.9571 10.3946L31.8559 10.4606L27.1783 13.111L28.394 13.4385C28.9458 13.5861 29.2891 14.1252 29.2026 14.6772L29.1774 14.7955C29.0298 15.3474 28.4907 15.6906 27.9387 15.6041L27.8021 15.5741L25.3045 14.9049C25.0405 14.8344 24.7969 14.7255 24.5782 14.5857L18.7483 17.89L24.5663 21.1882C24.728 21.0823 24.9037 20.9932 25.0917 20.9243L25.2838 20.8621L27.9594 20.1053C28.5477 19.9382 29.1611 20.2812 29.3267 20.8695C29.4826 21.4186 29.1943 21.9896 28.6768 22.1991L28.5625 22.2384L27.1313 22.643L31.8559 25.3212C32.3498 25.6068 32.5412 26.2181 32.3169 26.7287L32.2624 26.8363C31.9768 27.3303 31.3655 27.5216 30.8549 27.2973L30.7472 27.2429L25.9113 24.501L26.3037 25.965C26.4514 26.5168 26.1547 27.0841 25.635 27.2859L25.5203 27.3234C24.9684 27.4711 24.4011 27.1744 24.1993 26.6535L24.151 26.4981L23.4877 24.0211C23.4034 23.707 23.3807 23.3907 23.4123 23.0851L17.6083 19.794L17.6093 27.4919C17.8009 27.5816 17.9839 27.6962 18.1535 27.8357L18.3184 27.9834L20.3125 29.9229C20.7501 30.3486 20.7604 31.0508 20.3332 31.4898C19.9379 31.8975 19.3042 31.9355 18.8642 31.5968L18.7663 31.512L17.6083 30.386L17.6088 34.6731C17.6088 35.2443 17.1762 35.7151 16.6209 35.7753L16.5002 35.7818C15.929 35.7818 15.4582 35.3491 15.398 34.7939L15.3915 34.6731L15.3913 30.436L14.41 31.4188C14.0078 31.8196 13.3736 31.8483 12.9383 31.5047L12.8416 31.4188C12.4408 31.0167 12.4121 30.3825 12.7557 29.9472L12.8684 29.8236L14.6849 28.0071C14.8969 27.7954 15.1364 27.628 15.392 27.5049L15.3913 19.794L9.59876 23.0781C9.62702 23.3211 9.62092 23.5714 9.57666 23.8224L9.53626 24.0107L8.85332 26.707C8.70254 27.3013 8.09943 27.6605 7.50666 27.5097C6.95203 27.3703 6.60214 26.8344 6.68055 26.2816L6.72678 26.073L7.13104 24.477L2.25309 27.2429C1.75917 27.5271 1.1339 27.3876 0.803941 26.9375L0.737912 26.8363C0.453699 26.3424 0.593138 25.7172 1.04326 25.3872L1.14442 25.3212L5.82133 22.67L4.60639 22.3433C4.05452 22.1957 3.71125 21.6566 3.79774 21.1046L3.82293 20.9863C3.97055 20.4344 4.50964 20.0912 5.0616 20.1776L5.19819 20.2077L7.69587 20.8769C7.95983 20.9474 8.20341 21.0563 8.42214 21.1961L14.2513 17.891L8.43403 14.5936C8.27235 14.6995 8.09661 14.7886 7.9086 14.8575L7.71657 14.9197L5.04098 15.6765C4.45265 15.8436 3.83919 15.5006 3.67363 14.9123C3.51772 14.3632 3.80608 13.7922 4.32355 13.5827L4.43787 13.5434L5.86833 13.138L1.14442 10.4606C0.650499 10.175 0.459184 9.56365 0.683452 9.05314L0.737912 8.94545C1.0235 8.45153 1.63488 8.26021 2.14539 8.48448L2.25309 8.53894L7.08833 11.279L6.69659 9.81684C6.54897 9.26497 6.8456 8.69765 7.36534 8.49586L7.48005 8.45836C8.03192 8.31073 8.59924 8.60736 8.80103 9.12831L8.84179 9.25543L9.51261 11.7607C9.59693 12.0749 9.61962 12.3913 9.58799 12.697L15.3913 15.987L15.3919 8.29028C15.1888 8.19534 14.9955 8.07249 14.8175 7.92166L14.682 7.79835L12.6878 5.85892C12.2503 5.43319 12.2399 4.73103 12.6671 4.292C13.0625 3.88433 13.6961 3.84629 14.1361 4.18498L14.2341 4.26983L15.3913 5.395L15.3915 1.10867C15.3915 0.537482 15.8242 0.0667368 16.3794 0.00650944L16.5002 0Z" fill="#5F5F5F"/>
</svg>
