<svg width="40" height="28" viewBox="0 0 40 28" fill="none" xmlns="http://www.w3.org/2000/svg">
<path fill-rule="evenodd" clip-rule="evenodd" d="M37.8824 0H2.11765C0.948101 0 0 0.948103 0 2.11765V14.9706C0 16.1401 0.948101 17.0882 2.11765 17.0882L2.236 17.088L2.23529 17.7699C2.23529 18.5806 2.86386 19.2458 3.65765 19.3172L3.79935 19.3235H4.90653C5.77064 19.3235 6.47059 18.6324 6.47059 17.7699L6.471 17.088H11.675L11.5282 17.3442C11.1266 18.0469 11.3342 18.9361 11.9844 19.3951L12.1114 19.4759L13.0727 20.0253C13.8257 20.4555 14.7769 20.1954 15.2055 19.4455L16.553 17.088H33.86L35.2063 19.4455C35.6079 20.1482 36.4794 20.4208 37.2049 20.0937L37.339 20.0253L38.3003 19.4759C39.0533 19.0457 39.3121 18.0941 38.8836 17.3442L38.654 16.942L38.7395 16.9076C39.4384 16.5979 39.9383 15.9211 39.9947 15.1218L40 14.9706V2.11765C40 0.948103 39.0519 0 37.8824 0ZM2.11765 2H37.8824C37.9473 2 38 2.05267 38 2.11765V14.9706C38 15.0356 37.9473 15.0882 37.8824 15.0882H35.291L36.93 17.955L36.725 18.072L35.02 15.0882H15.3918L13.687 18.072L13.483 17.955L15.1208 15.0882H4.47059L4.471 17.323H4.236L4.23529 15.0882H2.11765C2.05267 15.0882 2 15.0356 2 14.9706V2.11765C2 2.05267 2.05267 2 2.11765 2ZM19.9227 17.6191C22.7852 17.6191 25.1126 19.9466 25.1114 22.8082C25.1114 22.9526 25.1057 23.0936 25.0944 23.2249C24.8803 25.9085 22.6293 27.9974 19.9223 27.9974C17.2159 27.9974 14.9642 25.9082 14.75 23.2228C14.7392 23.0836 14.7336 22.9452 14.7336 22.8082C14.7336 19.9462 17.0606 17.6191 19.9227 17.6191ZM19.9227 19.6191C18.1652 19.6191 16.7336 21.0508 16.7336 22.8082C16.7336 22.8924 16.7371 22.9793 16.7438 23.0659C16.8751 24.7116 18.2608 25.9974 19.9223 25.9974C21.5843 25.9974 22.9694 24.712 23.1012 23.0595C23.108 22.9808 23.1114 22.8969 23.1114 22.8078C23.1121 21.0508 21.6805 19.6191 19.9227 19.6191ZM22.0811 22.8082C22.0811 21.6164 21.1148 20.6499 19.9227 20.6499C18.7306 20.6499 17.7644 21.6164 17.7644 22.8082C17.7644 23.0196 17.7957 23.2272 17.8549 23.428C18.1315 24.3385 18.9659 24.9671 19.9227 24.9671C20.8802 24.9671 21.715 24.3383 21.9884 23.4352C22.0497 23.2333 22.0811 23.0225 22.0811 22.8082ZM36.0171 22.8082C36.0183 19.9466 33.6909 17.6191 30.8284 17.6191C27.9666 17.6191 25.6393 19.9464 25.6393 22.8082C25.6393 22.9452 25.6449 23.0836 25.6557 23.2228C25.8705 25.9084 28.1217 27.9974 30.828 27.9974C33.5349 27.9974 35.7859 25.9087 36.0005 23.2251C36.0116 23.0899 36.0171 22.95 36.0171 22.8082ZM27.6393 22.8082C27.6393 21.0509 29.0712 19.6191 30.8284 19.6191C32.5862 19.6191 34.0178 21.0508 34.0171 22.8078C34.0171 22.8965 34.0137 22.9821 34.0071 23.0638C33.8752 24.712 32.49 25.9974 30.828 25.9974C29.1667 25.9974 27.7811 24.7118 27.6495 23.0657C27.6428 22.9793 27.6393 22.8924 27.6393 22.8082ZM30.8289 20.6499C32.021 20.6499 32.9878 21.6164 32.9878 22.8082C32.9878 23.0225 32.9564 23.2333 32.8946 23.437C32.6196 24.3391 31.7853 24.9671 30.8284 24.9671C29.8713 24.9671 29.0366 24.3381 28.7622 23.432C28.7019 23.2303 28.6705 23.021 28.6705 22.8082C28.6705 21.6164 29.6368 20.6499 30.8289 20.6499Z" fill="#5D5D5D"/>
</svg>
