<svg width="39" height="38" viewBox="0 0 39 38" fill="none" xmlns="http://www.w3.org/2000/svg">
<path fill-rule="evenodd" clip-rule="evenodd" d="M23.5588 1.09643C22.8766 0.415839 21.9392 0 20.9047 0H17.1647L16.9381 0.00752542L16.7362 0.0287534L16.5054 0.0655824C15.6687 0.223984 14.9406 0.636673 14.3988 1.21478L14.3051 1.32L14.2089 1.28686L13.9973 1.22514C13.0729 0.984339 12.0573 1.09126 11.1633 1.60293L7.91379 3.476L7.71121 3.60193L7.51403 3.74654C6.81255 4.29149 6.34834 4.99647 6.13896 5.79485L6.08669 6.02263L6.08105 6.059L5.94536 6.08865L5.83337 6.11687C4.86505 6.37659 4.03967 7.01054 3.53901 7.87912L1.65267 11.1148L1.53589 11.3342L1.45206 11.5254L1.36775 11.7506C1.0851 12.5794 1.09227 13.4407 1.34778 14.2138L1.36305 14.256L1.30908 14.3007L1.22405 14.3782L1.14119 14.4586C0.432697 15.1671 0.034668 16.128 0.034668 17.13V20.87L0.0430475 21.1038L0.0648854 21.3049L0.102307 21.5348C0.262652 22.3681 0.674806 23.0932 1.2511 23.6335L1.36805 23.737L1.33516 23.8262L1.27178 24.039C1.02446 24.9685 1.13374 25.9828 1.64668 26.8748L3.51775 30.1209L3.65013 30.3319L3.79473 30.527C4.33932 31.2211 5.04018 31.6805 5.83297 31.889L6.05915 31.9411L6.11305 31.95L6.12097 31.9965L6.14547 32.1093L6.17352 32.2216C6.43187 33.1926 7.06773 34.02 7.9395 34.5195L11.1792 36.3869L11.4011 36.5055L11.4927 36.5508L11.7147 36.6451C12.4629 36.9345 13.2879 36.9755 14.066 36.7564L14.2793 36.694L14.3241 36.677L14.4342 36.8028L14.5839 36.9549C15.2507 37.595 16.1493 37.988 17.1408 37.9999L20.9047 38L21.1313 37.9925L21.3331 37.9712L21.5639 37.9344C22.4006 37.776 23.1287 37.3633 23.6705 36.7852L23.7691 36.675L23.8597 36.7079L23.9625 36.7392L24.0663 36.7676C25.006 37.0327 26.0578 36.8943 26.9342 36.3735L30.1555 34.5169L30.3486 34.3981L30.5472 34.254C31.2539 33.7109 31.7218 33.0048 31.9325 32.204L31.985 31.9755L31.9961 31.912L32.1388 31.883L32.2511 31.855C33.2225 31.5973 34.0508 30.9625 34.5521 30.0916L36.4216 26.8484L36.5413 26.6237L36.5863 26.5324L36.6801 26.3109C36.9681 25.5642 37.0092 24.7414 36.792 23.965L36.7294 23.7509L36.7121 23.699L36.8283 23.5963L36.9803 23.4477C37.6201 22.7858 38.0147 21.8946 38.0343 20.9097L38.0347 17.13L38.0238 16.8575L37.9917 16.5987C37.8612 15.7486 37.497 15.0272 36.9405 14.4637L36.7682 14.3037L36.7111 14.255L36.7419 14.167L36.8037 13.9552C37.0445 13.0301 36.9355 12.016 36.4221 11.1243L34.5516 7.87913L34.4277 7.67931L34.2838 7.48239C33.7414 6.78175 33.0396 6.31699 32.244 6.10544L32.017 6.05252L31.9691 6.044L31.9598 5.99385L31.9079 5.7791C31.6558 4.8554 31.0546 4.0267 30.1615 3.50779L26.9227 1.61256L26.6955 1.49196L26.5038 1.4085L26.2782 1.32465C25.4478 1.04367 24.5855 1.0527 23.8119 1.31006L23.7691 1.325L23.701 1.24627L23.5588 1.09643ZM7.70133 8.22625L7.77001 8.26336C7.81741 8.28332 7.86757 8.29375 7.91775 8.29483L7.9927 8.28948C8.06697 8.27717 8.13821 8.24407 8.19717 8.19083C8.33987 8.05388 8.36924 7.83659 8.268 7.66667C8.02236 7.25649 7.95226 6.76466 8.07355 6.30219C8.18135 5.89111 8.43229 5.53402 8.77842 5.2934L8.91258 5.20875L12.1568 3.33875L12.3206 3.25569C12.5423 3.15721 12.7756 3.1075 13.0072 3.10301L13.1516 3.10605C13.7273 3.14153 14.2748 3.45491 14.5863 3.99042L14.6316 4.05989C14.7172 4.16609 14.8507 4.22301 14.9865 4.21127L15.068 4.19583L15.1463 4.16832C15.2946 4.09891 15.3916 3.94681 15.3868 3.77792C15.3868 2.8451 16.1051 2.08006 17.0189 2.00589L17.1647 2H20.9047L21.0505 2.00589C21.9642 2.08006 22.6826 2.8451 22.6826 3.77792C22.677 3.97496 22.8098 4.14914 23.0013 4.19583L23.0828 4.21127L23.1637 4.21023C23.2968 4.19528 23.4184 4.11554 23.483 3.99042L23.5708 3.85389C23.912 3.3726 24.4583 3.1052 25.0196 3.10269L25.1729 3.10861C25.3774 3.12537 25.5816 3.17776 25.7763 3.26825L25.9126 3.33875L29.1568 5.23708L29.2861 5.31976C30.0336 5.844 30.268 6.8624 29.8013 7.66667C29.7091 7.82531 29.7291 8.02526 29.8509 8.1625C29.9274 8.24507 30.0314 8.28925 30.1374 8.29186L30.2168 8.28598C30.2694 8.27679 30.3209 8.25702 30.368 8.22625L30.5255 8.14344C30.9007 7.96951 31.3268 7.93106 31.73 8.03828C32.1397 8.14721 32.4952 8.39834 32.7346 8.74397L32.8188 8.87792L34.6888 12.1221L34.7594 12.2577C35.1448 13.0817 34.8442 14.0776 34.0443 14.5446C33.8742 14.6415 33.7905 14.8407 33.8403 15.03C33.8901 15.2193 34.061 15.3514 34.2568 15.3521C34.7286 15.3525 35.1814 15.5381 35.5176 15.8692C35.8078 16.163 35.9863 16.5466 36.0262 16.9541L36.0347 17.13V20.87L36.0253 21.0214C35.9319 21.9188 35.1751 22.6161 34.2568 22.6196L34.1736 22.625C34.0113 22.6518 33.8758 22.7714 33.8323 22.9353C33.7815 23.1265 33.8694 23.3275 34.0443 23.42L34.1759 23.5045C34.5156 23.7444 34.761 24.0979 34.8659 24.5037C34.977 24.901 34.9419 25.3229 34.7706 25.6939L34.6888 25.8496L32.8188 29.0938L32.7348 29.2259C32.4961 29.5668 32.1437 29.8143 31.7382 29.9219C31.6242 29.9521 31.5083 29.9707 31.3923 29.9778L31.2183 29.9799C30.9289 29.9691 30.6438 29.8874 30.3893 29.7383L30.3151 29.7012C30.2641 29.6819 30.2104 29.6735 30.1574 29.6755L30.0786 29.6863C30.0012 29.7048 29.9287 29.7462 29.8722 29.8092C29.7295 29.9461 29.7001 30.1634 29.8013 30.3333C30.0487 30.7419 30.1197 31.2334 29.9982 31.6953C29.8902 32.1059 29.6383 32.462 29.2913 32.7004L29.1568 32.7842L25.9126 34.6542L25.757 34.7362C25.598 34.8098 25.4296 34.8584 25.2579 34.881L25.0852 34.8949C24.9118 34.9001 24.737 34.8792 24.5668 34.8312C24.1102 34.7133 23.7199 34.4173 23.483 34.0096L23.4378 33.9401C23.3693 33.8552 23.2702 33.8017 23.1637 33.7898L23.0828 33.7887L23.0013 33.8042L22.9231 33.8317C22.7747 33.9011 22.6778 34.0532 22.6826 34.2221C22.6826 35.1549 21.9642 35.9199 21.0505 35.9941L20.9047 36H17.1647L17.0201 35.9925C16.1147 35.9087 15.4079 35.1471 15.408 34.2221L15.4022 34.1393C15.3745 33.9779 15.2534 33.8442 15.0893 33.8042L15.0078 33.7887L14.9269 33.7898C14.7938 33.8047 14.6722 33.8845 14.6076 34.0096L14.5231 34.1413C14.2832 34.4809 13.9297 34.7264 13.5238 34.8312C13.4104 34.8632 13.2948 34.8832 13.1791 34.8914L13.0054 34.8949C12.7742 34.8879 12.5456 34.8344 12.3336 34.7362L12.178 34.6542L8.93383 32.7842L8.80184 32.7006C8.46128 32.4631 8.21388 32.1118 8.10627 31.7074C7.9852 31.2524 8.05108 30.7678 8.28925 30.3617C8.39049 30.1917 8.36112 29.9745 8.21842 29.8375C8.14305 29.7536 8.03935 29.7079 7.93323 29.7038L7.85359 29.7087C7.80074 29.7172 7.74891 29.7364 7.70133 29.7667L7.54406 29.849C7.38349 29.9232 7.21366 29.9726 7.04031 29.9966L6.866 30.0121C6.69093 30.019 6.51425 30.0001 6.34168 29.9548C5.93264 29.8472 5.57683 29.5984 5.33551 29.2551L5.2505 29.1221L3.3805 25.8779L3.3098 25.742C2.92388 24.9159 3.22425 23.9179 4.02508 23.4483L4.09455 23.4024C4.22222 23.2986 4.28057 23.1275 4.23705 22.9636C4.18629 22.7724 4.01031 22.6415 3.81258 22.6479C2.8813 22.6442 2.11839 21.9277 2.0411 21.0156L2.03467 20.87V17.13L2.04337 16.9543C2.08378 16.5473 2.26366 16.1646 2.55541 15.8728C2.88883 15.5394 3.34105 15.3521 3.81258 15.3521C4.00834 15.3514 4.17921 15.2193 4.22903 15.03C4.27885 14.8407 4.19517 14.6415 4.02508 14.5446C3.2251 14.0776 2.92455 13.0817 3.30989 12.2577L3.3805 12.1221L5.27175 8.87792L5.35583 8.74584C5.59452 8.40503 5.94643 8.15723 6.35149 8.04859C6.80719 7.92636 7.29278 7.99027 7.70133 8.22625ZM19.0347 27.8612C20.3491 27.8612 21.4147 28.9268 21.4147 30.2412C21.4147 30.8725 21.1639 31.4778 20.7176 31.9242C20.2712 32.3705 19.6659 32.6213 19.0347 32.6213C17.7202 32.6213 16.6547 31.5557 16.6547 30.2412C16.6547 28.9268 17.7202 27.8612 19.0347 27.8612ZM18.0786 29.8542C18.2382 29.4669 18.6157 29.2142 19.0347 29.2142C19.6031 29.2142 20.0649 29.6729 20.0688 30.2412C20.0717 30.6602 19.8216 31.0394 19.4354 31.2017C19.3495 31.2378 19.2608 31.2616 19.1713 31.2735L19.037 31.2825C18.7684 31.2831 18.5041 31.1789 18.3059 30.9821C18.0087 30.6869 17.9189 30.2415 18.0786 29.8542ZM8.99619 22.2759C10.1184 22.1307 11.187 22.798 11.549 23.8701C11.9109 24.9421 11.4656 26.1207 10.4851 26.6854C10.1245 26.891 9.71723 27.0007 9.30217 27.0042C9.09153 27.0038 8.88188 26.9752 8.67883 26.9192C7.58685 26.6226 6.85618 25.5963 6.93334 24.4674C7.0105 23.3385 7.87402 22.4211 8.99619 22.2759ZM29.9926 22.5629C28.8542 21.9057 27.3986 22.2958 26.7413 23.4342C26.4257 23.9808 26.3402 24.6305 26.5036 25.2402C26.667 25.85 27.0659 26.3698 27.6126 26.6854C27.9732 26.891 28.3804 27.0007 28.7955 27.0042C29.0061 27.0038 29.2158 26.9752 29.4188 26.9192C29.9571 26.7664 30.4227 26.43 30.7366 25.9714L30.8355 25.8142H30.8638L30.9436 25.664C31.4857 24.5507 31.0815 23.1916 29.9926 22.5629ZM28.7743 23.59C28.6832 23.5878 28.5924 23.5997 28.5051 23.6254C28.2397 23.693 28.0141 23.8673 27.8818 24.1071C27.6456 24.5125 27.712 25.0261 28.0435 25.3582C28.2544 25.5695 28.5391 25.6736 28.8228 25.6607L28.9441 25.648C29.0649 25.628 29.1836 25.5863 29.2943 25.5221C29.7001 25.2867 29.8967 24.8076 29.773 24.355C29.7005 24.0902 29.5278 23.8641 29.2913 23.7246C29.1336 23.6355 28.9554 23.5891 28.7743 23.59ZM9.16005 23.5981L9.29508 23.59L9.42437 23.597C9.84099 23.6456 10.192 23.9436 10.3027 24.3561C10.4235 24.8061 10.2284 25.2813 9.82633 25.5167C9.70758 25.586 9.57746 25.6302 9.4438 25.6484L9.30925 25.6577C9.21915 25.6581 9.12864 25.6467 9.04002 25.6232C8.77418 25.5528 8.54734 25.3793 8.40967 25.1413C8.27021 24.9042 8.22951 24.6218 8.29634 24.355C8.37144 24.0915 8.54354 23.8663 8.778 23.7246C8.89629 23.6578 9.02612 23.615 9.16005 23.5981ZM19.0347 13.3333C15.9051 13.3333 13.368 15.8704 13.368 19C13.368 22.0568 15.7884 24.5483 18.8173 24.6626L19.0347 24.6667L19.252 24.6626C22.2809 24.5483 24.7013 22.0568 24.7013 19C24.698 15.8718 22.1629 13.3366 19.0347 13.3333ZM22.5763 19C22.5763 17.044 20.9907 15.4583 19.0347 15.4583C17.0787 15.4583 15.493 17.044 15.493 19C15.493 20.956 17.0787 22.5417 19.0347 22.5417C19.974 22.5417 20.8748 22.1685 21.539 21.5043C22.2032 20.8401 22.5763 19.9393 22.5763 19ZM19.0347 16.0958C17.4307 16.0958 16.1305 17.3961 16.1305 19C16.1305 20.5466 17.3395 21.8109 18.864 21.8992L19.0347 21.9042L19.2053 21.8992C20.7298 21.8109 21.9388 20.5466 21.9388 19C21.9349 17.3977 20.637 16.0997 19.0347 16.0958ZM10.4568 11.3146C9.91104 10.9957 9.25943 10.9113 8.6505 11.0808C8.11095 11.2312 7.64454 11.5679 7.33215 12.028L7.23383 12.1858V12.2071L7.15453 12.3573C6.61599 13.4708 7.01934 14.8273 8.10508 15.4583C8.46114 15.6536 8.86068 15.7559 9.26675 15.7558C10.344 15.7559 11.287 15.0324 11.5658 13.9918C11.8447 12.9512 11.3898 11.8531 10.4568 11.3146ZM27.5913 11.3146C28.1371 10.9957 28.7887 10.9113 29.3976 11.0808C30.0078 11.2418 30.5284 11.6399 30.8437 12.1866C31.1589 12.7333 31.2427 13.3833 31.0763 13.9921C30.8 15.0325 29.8578 15.7566 28.7813 15.7558C28.5736 15.7544 28.3667 15.7282 28.1651 15.6779C27.2334 15.4299 26.5434 14.6442 26.4177 13.6883C26.292 12.7324 26.7554 11.795 27.5913 11.3146ZM28.2572 12.4833C28.4137 12.3905 28.5923 12.3416 28.7743 12.3417L28.9098 12.3519L29.0434 12.3771L29.1769 12.4247C29.6477 12.6254 29.9088 13.1463 29.773 13.6521C29.7003 13.9149 29.5273 14.1387 29.2913 14.2754C29.1728 14.3455 29.0427 14.39 28.909 14.4081L28.7743 14.4173C28.6842 14.4175 28.5936 14.4057 28.5051 14.3817C28.2397 14.3141 28.0141 14.1397 27.8818 13.9C27.7411 13.663 27.7017 13.3793 27.7723 13.1129C27.8429 12.8465 28.0176 12.6196 28.2572 12.4833ZM9.30217 12.3346C8.93194 12.3357 8.59095 12.5359 8.40967 12.8588C8.27261 13.0968 8.23446 13.3791 8.30342 13.645C8.37644 13.9056 8.54618 14.1286 8.778 14.2683C8.93603 14.3621 9.11476 14.4108 9.29529 14.412L9.43073 14.4039L9.56508 14.3778C9.8315 14.3072 10.0584 14.1325 10.1947 13.8929C10.3353 13.6559 10.3747 13.3723 10.3041 13.1058C10.2335 12.8394 10.0588 12.6126 9.81925 12.4762C9.66196 12.3853 9.48385 12.3365 9.30217 12.3346ZM21.4147 7.75167C21.4147 6.43723 20.3491 5.37167 19.0347 5.37167C17.7218 5.37556 16.6586 6.43884 16.6547 7.75167C16.6547 9.0661 17.7202 10.1317 19.0347 10.1317C20.3491 10.1317 21.4147 9.0661 21.4147 7.75167ZM19.0347 6.7175C18.4635 6.7175 18.0005 7.18051 18.0005 7.75167C18.0005 8.02594 18.1095 8.28899 18.3034 8.48293C18.465 8.64455 18.6746 8.74715 18.8987 8.77687L19.0347 8.78583L19.1474 8.77977C19.6655 8.72362 20.0688 8.28474 20.0688 7.75167C20.0688 7.18051 19.6058 6.7175 19.0347 6.7175ZM26.869 20.7031L26.8712 20.6932L26.661 20.8026L26.4579 20.9239C26.6168 20.3091 26.7013 19.6644 26.7013 19C26.7006 18.342 26.6172 17.7035 26.4598 17.0949C26.594 17.1786 26.7332 17.2553 26.877 17.3245L26.8715 17.2956C26.5148 15.6477 25.6515 14.1885 24.4528 13.0892L24.4094 13.0509C24.3976 13.2089 24.3943 13.3682 24.4011 13.5284C23.4906 12.6352 22.3585 11.9673 21.0955 11.6175C21.2364 11.5423 21.3727 11.4595 21.5038 11.369L21.4333 11.3466C20.6759 11.1095 19.8702 10.9817 19.0347 10.9817C18.1991 10.9817 17.3934 11.1095 16.6361 11.3466L16.5655 11.3695C16.6957 11.4586 16.831 11.5409 16.9716 11.6141C15.6976 11.9692 14.5573 12.6451 13.6439 13.5497C13.6503 13.3894 13.6478 13.2296 13.6367 13.0711L13.3813 13.3138C12.305 14.3839 11.5308 15.7576 11.1979 17.2956L11.1504 17.5322L11.1962 17.3083C11.3395 17.238 11.4786 17.16 11.6119 17.0741C11.4527 17.6895 11.368 18.3348 11.368 19C11.368 19.6623 11.452 20.3049 11.611 20.9164C11.4766 20.8328 11.3377 20.7564 11.1949 20.6877L11.2716 21.0148C11.6702 22.5551 12.5152 23.9158 13.6602 24.9506L13.6666 24.8823C13.6745 24.7482 13.6762 24.6133 13.6711 24.4782C14.5783 25.3665 15.7052 26.0312 16.9619 26.3818C16.8764 26.4278 16.7926 26.4766 16.7106 26.528L16.5588 26.6288C17.3386 26.8817 18.1707 27.0183 19.0347 27.0183C19.8696 27.0169 20.6746 26.888 21.4314 26.6502L21.5068 26.6251C21.3784 26.5372 21.2452 26.4559 21.1067 26.3834C22.378 26.0274 23.5158 25.3518 24.426 24.4484C24.4197 24.605 24.4218 24.7622 24.4324 24.9192L24.4488 24.9066C25.6469 23.8076 26.5104 22.3497 26.869 20.7031Z" fill="#5F5F5F"/>
</svg>
