<svg width="40" height="31" viewBox="0 0 40 31" fill="none" xmlns="http://www.w3.org/2000/svg">
<path fill-rule="evenodd" clip-rule="evenodd" d="M5.10067 0V1.67785H34.6309V0H36.9128V1.67785H39.7987V3.95973H0V1.67785H2.81879V0H5.10067ZM37.4497 6.24161H2.61745C1.87919 6.24161 1.27517 6.51007 0.805369 6.97987C0.33557 7.44966 0 8.12081 0 8.85906V27.8523C0 28.5235 0.33557 29.1946 0.805369 29.6644C1.27517 30.1342 1.87919 30.4027 2.61745 30.4027H37.4497C38.1208 30.4027 38.7919 30.1342 39.2617 29.6644C39.7315 29.1946 40 28.5235 40 27.8523V8.85906C40 8.12081 39.7315 7.44966 39.2617 6.97987C38.7919 6.51007 38.1208 6.24161 37.4497 6.24161ZM2.61745 8.52349H37.4497C37.5168 8.52349 37.5839 8.52349 37.651 8.5906C37.7181 8.65772 37.7852 8.72483 37.7852 8.85906V27.8523C37.7852 27.9195 37.7181 27.9866 37.651 28.0537L37.651 28.0537C37.5839 28.1208 37.5168 28.1208 37.4497 28.1208H2.61745C2.55034 28.1208 2.41611 28.1208 2.41611 28.0537L2.4161 28.0537C2.34899 27.9866 2.28188 27.9195 2.28188 27.8523V8.85906C2.28188 8.72483 2.34899 8.65772 2.41611 8.5906C2.41611 8.52349 2.55034 8.52349 2.61745 8.52349ZM34.0268 17.047H27.7852V19.2617H34.0268V17.047ZM7.18121 21.4765V19.2617H5.16779V17.047H7.18121V14.8322H9.46309V17.047H11.4094V19.2617H9.46309V21.4765H7.18121ZM19.8658 15.7718L22.953 11.2752L21.0738 10L15.2349 18.5235L19.6644 18.0537L16.1074 23.8255L18.0537 24.9664L24.0268 15.302L19.8658 15.7718Z" fill="#5F5F5F"/>
</svg>
