<svg width="28" height="30" viewBox="0 0 28 30" fill="none" xmlns="http://www.w3.org/2000/svg">
<path fill-rule="evenodd" clip-rule="evenodd" d="M27.8951 15.553L27.8891 15.556C28.0071 15.791 28.0331 16.063 27.9481 16.316L25.9481 22.316C25.8131 22.725 25.4311 23 25.0001 23H21.0001V29C21.0001 29.553 20.5531 30 20.0001 30H8.00006C7.44706 30 7.00006 29.553 7.00006 29V23H3.00006C2.56906 23 2.18806 22.725 2.05106 22.317L0.05106 16.317C-0.03394 16.064 -0.00694003 15.791 0.11106 15.556L0.10506 15.553L8.00006 3.764V1C8.00006 0.447 8.44706 0 9.00006 0H19.0001C19.5531 0 20.0001 0.447 20.0001 1V3.764L27.8951 15.553ZM20.7801 15H25.3821L18.3821 5H17.2801L20.7801 15ZM18.7201 15H15.0001V5H15.2201L18.7201 15ZM18.0001 2H10.0001V3H18.0001V2ZM13.0001 5V15H9.28006L12.7801 5H13.0001ZM10.7201 5H9.61806L2.61806 15H7.22006L10.7201 5ZM19.0001 28H9.00006V23H19.0001V28ZM20.0001 21H24.2791L25.6131 17H2.38806L3.72106 21H8.00006H20.0001Z" fill="#5F5F5F"/>
</svg>
