<svg width="37" height="27" viewBox="0 0 37 27" fill="none" xmlns="http://www.w3.org/2000/svg">
<path fill-rule="evenodd" clip-rule="evenodd" d="M32.5714 5.42857H35.8929C36.5044 5.42857 37 5.9242 37 6.53571V23.1905C37 23.802 36.5044 24.2976 35.8929 24.2976H32.5714C31.9599 24.2976 31.4643 23.802 31.4643 23.1905V22.0833H31.2159L27.855 25.7805C27.645 26.0115 27.3479 26.1429 27.0357 26.1429H13.0863C12.7866 26.1429 12.4995 26.0214 12.291 25.8059L9.75713 23.1905H5.79762C5.18611 23.1905 4.69048 22.6948 4.69048 22.0833V16.3929H2.21429V25.0357C2.21429 25.6472 1.71865 26.1429 1.10714 26.1429C0.495631 26.1429 0 25.6472 0 25.0357V5.53571C0 4.9242 0.495631 4.42857 1.10714 4.42857C1.71865 4.42857 2.21429 4.9242 2.21429 5.53571V14.1786H4.69048V9.4881C4.69048 8.87658 5.18611 8.38095 5.79762 8.38095H8.26323L11.661 5.01155C11.8681 4.80562 12.1482 4.69048 12.4405 4.69048H16.6548V2.21429H9.59524C8.98373 2.21429 8.4881 1.71865 8.4881 1.10714C8.4881 0.495631 8.98373 0 9.59524 0H25.9286C26.5401 0 27.0357 0.495631 27.0357 1.10714C27.0357 1.71865 26.5401 2.21429 25.9286 2.21429H18.869V4.69048H25.3137C25.6152 4.69048 25.9046 4.81374 26.1131 5.03185L28.6152 7.64286H31.4643V6.53571C31.4643 5.9242 31.9599 5.42857 32.5714 5.42857ZM33.6786 22.0833H34.7857V7.64286H33.6786V8.75C33.6786 9.36151 33.1829 9.85714 32.5714 9.85714H28.1429C27.8413 9.85714 27.552 9.73388 27.3431 9.51577L24.841 6.90476H12.8962L9.4988 10.2742C9.29176 10.4801 9.01165 10.5952 8.71937 10.5952H6.90476V20.9762H10.2262C10.5259 20.9762 10.813 21.0976 11.0215 21.3131L13.5554 23.9286H26.546L29.9069 20.2315C30.1169 20.0004 30.414 19.869 30.7262 19.869H32.5714C33.1829 19.869 33.6786 20.3647 33.6786 20.9762V22.0833Z" fill="#5F5F5F"/>
</svg>
