<svg width="40" height="34" viewBox="0 0 40 34" fill="none" xmlns="http://www.w3.org/2000/svg">
<path fill-rule="evenodd" clip-rule="evenodd" d="M19.2748 21.7L19.2747 0H17.4236L17.1785 0.0195616L16.9881 0.0651251L16.8087 0.123987C15.9382 0.451002 15.4607 1.26461 15.0922 2.38357L15.0798 2.425H14.3618L14.3296 2.34203L14.2662 2.21167C13.9926 1.70609 13.485 1.39421 12.9114 1.39421H12.1363L11.9661 1.40469L11.8141 1.43529L11.6547 1.48221C11.1895 1.64304 10.8426 1.98109 10.6815 2.4024L10.6738 2.425L9.34085 2.42527L9.09556 2.43876L8.88629 2.47213C7.64174 2.71569 6.5942 3.7341 5.57587 5.24682L5.33144 5.62203L5.01064 6.1519L4.84024 6.45247L4.66878 6.773L4.62602 6.80543C3.32644 7.82416 2.44381 9.34252 1.88133 11.1679L1.76046 11.5843L1.70067 11.8098L1.60672 12.2001L1.52556 12.5817L1.43279 13.0944L1.38547 13.4045L1.33734 13.7827L1.29672 14.221L1.29178 22.173L1.2589 22.1878L1.09745 22.2759C0.374108 22.7149 0.0679365 23.5407 0.00807937 24.4827L0.000976562 24.6519L0.00173302 26.8459L0.00782458 27.0775L0.0249538 27.2882C0.18582 28.8001 1.11461 29.5885 2.30844 29.7135L2.49511 29.7267L2.62808 29.7297L2.83084 29.7217L2.91278 29.713L6.25696 29.7132C6.71873 32.0738 8.80228 33.8378 11.2698 33.8378C13.7386 33.8378 15.8221 32.0731 16.2829 29.713L28.8517 29.7132C29.3139 32.074 31.3971 33.8378 33.8644 33.8378C36.3331 33.8378 38.4166 32.0732 38.8779 29.7132L39.9998 29.7123V23.8005L39.9943 23.6024L39.9782 23.4082C39.7255 21.0484 37.4766 19.98 33.6463 19.98C31.8701 19.98 30.1305 20.4658 28.4952 21.2653L28.1211 21.455L27.7135 21.6775L27.3146 21.9123L27.0632 22.07L26.7848 22.255H20.4978L19.2748 21.7ZM8.16193 28.7297C8.16193 27.017 9.55725 25.6216 11.2703 25.6216C12.9835 25.6216 14.3789 27.0171 14.3782 28.7293C14.3782 28.8161 14.3749 28.8979 14.3682 28.9745C14.2398 30.5851 12.8897 31.8378 11.2698 31.8378C9.6505 31.8378 8.29983 30.5847 8.1719 28.9809C8.16535 28.8965 8.16193 28.8118 8.16193 28.7297ZM33.8649 25.6216C32.1521 25.6216 30.7565 27.0172 30.7565 28.7297C30.7565 28.8118 30.76 28.8965 30.7665 28.9807C30.8948 30.5849 32.2452 31.8378 33.8644 31.8378C35.4843 31.8378 36.8345 30.5851 36.963 28.9788C36.9695 28.8992 36.9728 28.8158 36.9728 28.7293C36.9735 27.0171 35.5781 25.6216 33.8649 25.6216ZM13.4063 28.7297C13.4063 27.5503 12.45 26.5938 11.2703 26.5938C10.0905 26.5938 9.13426 27.5503 9.13426 28.7297C9.13426 28.9389 9.16525 29.1443 9.22381 29.343C9.49758 30.2442 10.3234 30.8662 11.2703 30.8662C12.2178 30.8662 13.044 30.2439 13.3146 29.3502C13.3753 29.1504 13.4063 28.9418 13.4063 28.7297ZM33.8653 26.5938C35.0451 26.5938 36.0018 27.5502 36.0018 28.7297C36.0018 28.9418 35.9708 29.1504 35.9096 29.352C35.6375 30.2447 34.8118 30.8662 33.8649 30.8662C32.9177 30.8662 32.0916 30.2438 31.82 29.347C31.7604 29.1474 31.7293 28.9403 31.7293 28.7297C31.7293 27.5503 32.6856 26.5938 33.8653 26.5938ZM17.2748 2.326L17.2747 22.99L20.0638 24.2551H27.4259L27.9103 23.9075L28.1493 23.7491L28.3585 23.6181L28.6095 23.4689L29.0518 23.225L29.387 23.0553L29.7311 22.8936C30.9985 22.3211 32.33 21.98 33.6463 21.98C36.656 21.98 37.9323 22.6148 37.9965 23.6918L38.0002 23.8304L38.0008 24.879L37.8129 24.659L37.7081 24.5455L37.5999 24.4346C37.088 23.9232 36.4897 23.5207 35.8239 23.2396C35.1345 22.9487 34.4009 22.801 33.6482 22.801C32.8956 22.801 32.1625 22.9487 31.4733 23.2395C30.8074 23.5209 30.209 23.9233 29.6966 24.4346C29.1835 24.9465 28.7798 25.544 28.4987 26.2081L28.3961 26.4683L28.3069 26.7323C28.2245 26.9981 28.1624 27.2692 28.1209 27.5443L28.1008 27.712H16.5888L16.5671 27.544L16.5188 27.2702C16.4453 26.9071 16.3353 26.5518 16.1895 26.2077C15.9078 25.5434 15.5041 24.9462 14.9914 24.4346C14.4795 23.9232 13.8812 23.5207 13.2154 23.2396C12.526 22.9487 11.7924 22.801 11.0397 22.801C10.2869 22.801 9.55325 22.9488 8.8645 23.2396C8.19844 23.5208 7.5998 23.9234 7.0877 24.435C6.57504 24.9465 6.17132 25.544 5.89024 26.2081L5.78757 26.4683L5.69839 26.7323C5.61598 26.9981 5.5539 27.2692 5.51241 27.5443L5.49178 27.712L2.86654 27.7133L2.75078 27.72L2.67024 27.7294L2.59682 27.73L2.47905 27.7212L2.40829 27.711C2.16015 27.6649 2.0356 27.5125 2.0058 26.9924L2.00134 26.8173L2.00016 24.6916L2.00525 24.5865L2.0169 24.4579C2.05545 24.1342 2.1514 23.9639 2.24271 23.9537L3.2907 23.8985L3.29258 14.3121L3.3253 13.999L3.36631 13.6796L3.40571 13.4212L3.48806 12.966L3.55733 12.641L3.64178 12.2914L3.79744 11.7408L3.89589 11.4371C4.37187 10.0397 5.07978 8.92435 6.02887 8.25361L6.23158 8.11036L6.43111 7.71657L6.5917 7.4178L6.74015 7.15605L6.92126 6.85232L7.24345 6.35086L7.38565 6.14455C8.09707 5.1366 8.80919 4.48824 9.28263 4.42905L9.40386 4.42328L16.6381 4.42527L16.8664 3.43952L16.9201 3.24133L16.998 2.98972L17.0469 2.84888L17.115 2.67327L17.2067 2.46397L17.2748 2.326ZM10.684 7.84294L10.9 7.85038C12.1452 7.93192 12.855 8.63294 13.0317 9.56539L13.0562 9.72288L13.0668 9.89605L13.0606 13.9908L13.0475 14.1221L13.0325 14.2214C12.8977 14.8871 12.4555 15.3088 11.8407 15.6156L11.6835 15.69L11.464 15.7774L11.3573 15.8131L11.1418 15.8596L7.06197 16.2783L6.92082 16.2827L6.66221 16.2718C5.56857 16.1857 4.72677 15.6754 4.10414 14.983L3.97406 14.8319L3.63729 14.3917L3.67995 13.9946C3.89204 12.0197 4.55094 10.4464 5.49001 9.23688L5.68151 8.99982L6.00016 8.64785L6.28164 8.3756L6.44746 8.2316L6.63421 8.08425L6.97143 7.84295L10.684 7.84294ZM7.64278 9.842H10.6508L10.8028 9.84774L10.9991 9.86276C11.0603 9.87095 11.0619 9.88358 11.0666 9.92183L11.067 9.92511L11.07 9.9751L11.0658 13.782L11.0508 13.7808C11.0413 13.7827 11.0291 13.7875 11.0143 13.7944L10.8953 13.8522L10.8208 13.882L6.92678 14.281L6.77984 14.2757L6.61409 14.2533C6.28796 14.1911 5.99519 14.0277 5.75765 13.8149L5.72478 13.782L5.76176 13.5505C6.00671 12.1734 6.52455 11.1053 7.19791 10.3037L7.36797 10.1108L7.57181 9.90575L7.64278 9.842Z" fill="#5F5F5F"/>
</svg>
