<svg width="38" height="30" viewBox="0 0 38 30" fill="none" xmlns="http://www.w3.org/2000/svg">
<path fill-rule="evenodd" clip-rule="evenodd" d="M33.7619 0C35.4898 0 36.9281 1.3708 37.0253 3.07614L37.0305 3.26009V15.6395C37.0305 17.3674 35.6518 18.7978 33.9459 18.8944L33.7619 18.8996H31.93V12.915C31.928 12.3539 31.5018 11.894 30.9562 11.837L30.8376 11.8311H6.21907C5.66094 11.8331 5.20233 12.2546 5.14194 12.797L5.13521 12.915V18.8996H3.29477C1.56687 18.8996 0.136476 17.5288 0.0398828 15.8234L0.0346845 15.6395V3.26009C0.0346845 1.53218 1.4055 0.101791 3.11082 0.00519822L3.29477 0H33.7619ZM15.4022 21.6686C15.1971 21.4635 14.9186 21.3488 14.6286 21.3499L14.5058 21.3574C14.2625 21.386 14.0346 21.4961 13.8604 21.6717C13.6571 21.8765 13.5436 22.1537 13.5447 22.4423V28.699L13.5515 28.8169C13.6121 29.359 14.0708 29.7806 14.6286 29.7828L14.7514 29.7764C14.9949 29.7497 15.2236 29.6413 15.3992 29.4671C15.6041 29.2639 15.7198 28.9875 15.7209 28.699V22.4423L15.7144 22.3189C15.6874 22.0742 15.578 21.8444 15.4022 21.6686ZM7.60568 21.6717C7.40241 21.4668 7.1261 21.3511 6.83751 21.3499L6.71409 21.3565C6.46938 21.3834 6.23965 21.4928 6.06384 21.6686C5.85874 21.8737 5.74401 22.1523 5.74515 22.4423V22.98L5.74045 23.1938C5.63108 25.6728 3.62763 27.6066 1.11855 27.6066C0.829961 27.6077 0.553642 27.7234 0.350378 27.9283C0.147113 28.1332 0.0335551 28.4104 0.0346762 28.699C0.0370167 29.2966 0.520916 29.7805 1.11855 29.7828L1.35686 29.7787C4.99588 29.6525 7.92138 26.649 7.92138 22.98V22.4423L7.91491 22.3195C7.88822 22.076 7.7799 21.8472 7.60568 21.6717ZM22.4281 21.3499C22.7182 21.3488 22.9967 21.4635 23.2018 21.6686C23.3776 21.8444 23.487 22.0742 23.5139 22.3189L23.5205 22.4423V28.699C23.5194 28.9875 23.4036 29.2639 23.1988 29.4671C23.0232 29.6413 22.7944 29.7497 22.5509 29.7764L22.4281 29.7828C21.8703 29.7806 21.4116 29.359 21.351 28.8169L21.3443 28.699V22.4423C21.3431 22.1537 21.4567 21.8765 21.6599 21.6717C21.8342 21.4961 22.0621 21.386 22.3054 21.3574L22.4281 21.3499ZM31.0013 21.6686C30.7962 21.4635 30.5177 21.3488 30.2277 21.3499L30.1049 21.3574C29.8616 21.386 29.6337 21.4961 29.4595 21.6717C29.2562 21.8765 29.1427 22.1537 29.1438 22.4423V22.98L29.1479 23.2183C29.2737 26.8573 32.2691 29.7828 35.9381 29.7828L36.0609 29.7764C36.3044 29.7497 36.5332 29.6413 36.7088 29.4671C36.9136 29.2639 37.0294 28.9875 37.0305 28.699C37.0316 28.4089 36.9169 28.1304 36.7118 27.9253C36.5067 27.7202 36.2282 27.6055 35.9381 27.6066C33.3574 27.6066 31.32 25.5608 31.32 22.98V22.4423L31.3135 22.3189C31.2865 22.0742 31.1771 21.8444 31.0013 21.6686ZM29.7537 18.8996V14.0073H7.31143V18.8996H29.7537ZM27.7541 16.007H9.31205V16.899H27.7541V16.007ZM3.29477 2H33.7619C34.4502 2 35.0305 2.57825 35.0305 3.26009V15.6395L35.0238 15.766C34.9664 16.308 34.5453 16.762 34.014 16.8734L33.9301 16.886L33.93 12.915L33.9245 12.739C33.8278 11.1084 32.4769 9.82478 30.8299 9.83111L6.21907 9.83109L6.0378 9.83693C4.41858 9.93565 3.14102 11.2714 3.13522 12.9079L3.13605 16.887L3.04394 16.8735C2.47495 16.7541 2.03468 16.2389 2.03468 15.6395V3.26009L2.04131 3.13304C2.10699 2.50541 2.65254 2 3.29477 2Z" fill="#5F5F5F"/>
</svg>
