<svg width="30" height="29" viewBox="0 0 30 29" fill="none" xmlns="http://www.w3.org/2000/svg">
<path fill-rule="evenodd" clip-rule="evenodd" d="M4.72727 18.9274C4.72727 16.3166 6.84374 14.2001 9.45455 14.2001H13.8182L15.8182 9.30443C13.5133 8.70931 12.0105 6.49314 12.3104 4.13162C12.6104 1.77009 14.6195 0 17 0C19.3805 0 21.3896 1.77009 21.6896 4.13162C21.9895 6.49314 20.4867 8.70931 18.1818 9.30443L16.1818 14.2001H20.5455C23.1563 14.2001 25.2727 16.3166 25.2727 18.9274V20.1092C27.8835 20.1092 30 22.2257 30 24.8365V27.2001C30 27.8528 29.4709 28.3819 28.8182 28.3819H1.18182C0.529118 28.3819 0 27.8528 0 27.2001V24.8365C0 22.2257 2.11647 20.1092 4.72727 20.1092V18.9274ZM17 2.38193C15.6946 2.38193 14.6364 3.44017 14.6364 4.74557C14.6364 6.05097 15.6946 7.10921 17 7.10921C18.3054 7.10921 19.3636 6.05097 19.3636 4.74557C19.3636 3.44017 18.3054 2.38193 17 2.38193ZM27.6364 24.8365V26.0183H2.36364V24.8365C2.36364 23.5311 3.42187 22.4728 4.72727 22.4728H25.2727C26.5781 22.4728 27.6364 23.5311 27.6364 24.8365ZM22.9091 20.1092V18.9274C22.9091 17.622 21.8509 16.5638 20.5455 16.5638H9.45455C8.14915 16.5638 7.09091 17.622 7.09091 18.9274V20.1092H22.9091Z" fill="#5F5F5F"/>
</svg>
