<svg width="24" height="23" viewBox="0 0 24 23" fill="none" xmlns="http://www.w3.org/2000/svg">
<path fill-rule="evenodd" clip-rule="evenodd" d="M16.1334 17.1275C14.4231 18.6086 12.1924 19.5047 9.75235 19.5047C4.36628 19.5047 0 15.1384 0 9.75235C0 4.36628 4.36628 0 9.75235 0C15.1384 0 19.5047 4.36628 19.5047 9.75235C19.5047 11.7377 18.9114 13.5846 17.8925 15.1252L23.4497 20.6825L21.569 22.5632L16.1334 17.1275ZM16.845 9.75235C16.845 13.6695 13.6695 16.845 9.75235 16.845C5.83521 16.845 2.65973 13.6695 2.65973 9.75235C2.65973 5.83521 5.83521 2.65973 9.75235 2.65973C13.6695 2.65973 16.845 5.83521 16.845 9.75235Z" fill="black"/>
</svg>
