<svg width="61" height="62" viewBox="0 0 61 62" fill="none" xmlns="http://www.w3.org/2000/svg">
<path fill-rule="evenodd" clip-rule="evenodd" d="M0 26.3031L26.0245 0L60.6744 0L0 61.3239L0 26.3031Z" fill="black"/>
<path fill-rule="evenodd" clip-rule="evenodd" d="M9.94221 40.7965L9.02156 38.5097L12.4864 35.0449L14.7831 35.9556L16.1294 34.6093L6.07151 30.8079L4.80438 32.075L8.61568 42.123L9.94221 40.7965ZM6.71498 32.7383L11.051 34.4608L8.44739 37.0644L6.71498 32.7383Z" fill="white"/>
<path d="M17.1292 29.3725L16.1689 30.3327L18.2874 32.4512L17.05 33.6887L11.7637 28.4023L13.0011 27.1649L15.1394 29.3032L16.1293 28.3132L15.5552 24.6108L16.8817 23.2843L17.5054 27.749L22.2967 28.4419L20.8415 29.8972L17.1292 29.3725Z" fill="white"/>
<path d="M27.9199 20.7201L30.1869 22.987L29.0287 24.1453L27.811 22.9276L23.1682 27.5705L17.8818 22.2842L19.1193 21.0467L23.3563 25.2837L25.8806 22.7594L21.6436 18.5224L22.8811 17.2849L27.1181 21.5219L27.9199 20.7201Z" fill="white"/>
<path d="M24.7817 15.3848L26.0192 14.1473L29.5038 17.632L28.9395 11.227L30.0681 10.0984L35.3544 15.3848L34.117 16.6222L30.6323 13.1376L31.2065 19.5327L30.0681 20.6711L24.7817 15.3848Z" fill="white"/>
<path fill-rule="evenodd" clip-rule="evenodd" d="M41.4821 9.25704L36.1958 3.97071L33.7704 6.39609C33.0181 7.14845 32.5924 7.90411 32.4934 8.66307C32.3944 9.42203 32.6485 10.1051 33.2556 10.7123C33.6582 11.1148 34.0971 11.3524 34.5723 11.425C35.0475 11.4976 35.5424 11.4085 36.0572 11.1577L36.572 14.1672L37.8985 12.8407L37.3837 10.1678L38.7796 8.77197L40.3734 10.3658L41.4821 9.25704ZM34.5525 9.49463C33.9519 8.89406 34.0509 8.19449 34.8495 7.39594L36.1265 6.1189L37.9183 7.91071L36.6017 9.22734C35.8295 9.9995 35.1464 10.0886 34.5525 9.49463Z" fill="white"/>
</svg>
