<svg width="170" height="170" viewBox="0 0 170 170" fill="none" xmlns="http://www.w3.org/2000/svg">
	<circle cx="85" cy="85" r="85" fill="#EAEAEA" />
	<path fill-rule="evenodd" clip-rule="evenodd" d="M85 61.2235C85.8014 61.2235 86.451 60.5708 86.451 59.7656V44.4579C86.451 43.6527 85.8014 43 85 43C84.1986 43 83.549 43.6527 83.549 44.4579V59.7656C83.549 60.5708 84.1986 61.2235 85 61.2235ZM65.4325 68.1487L48 86.0075V104.259C48 107.464 50.5985 110.062 53.8039 110.062H116.196C119.401 110.062 122 107.464 122 104.259V86.0075L104.568 68.1487C103.885 67.4493 102.949 67.055 101.972 67.055H68.0283C67.051 67.055 66.1151 67.4493 65.4325 68.1487ZM67.5882 69.9708L53.4412 84.5496H71.5784V87.4964C71.5784 91.1025 74.5017 94.0258 78.1078 94.0258H91.8922C95.4983 94.0258 98.4216 91.1025 98.4216 87.4964V84.5496H116.559L102.412 69.9708H67.5882ZM50.8906 87.5156H68.8125C68.8125 92.5604 72.9021 96.65 77.9469 96.65H92.0531C97.0979 96.65 101.188 92.5604 101.188 87.5156H119.109V103.703C119.109 105.619 117.556 107.172 115.641 107.172H54.3594C52.4436 107.172 50.8906 105.619 50.8906 103.703V87.5156ZM95.8333 61.0796C95.6259 61.8573 94.8302 62.3189 94.0562 62.1105C93.2821 61.9021 92.8228 61.1027 93.0302 60.3249L96.9734 45.5388C97.1808 44.7611 97.9764 44.2995 98.7505 44.5079C99.5245 44.7163 99.9839 45.5157 99.7765 46.2934L95.8333 61.0796ZM76.2603 62.1105C77.0343 61.9021 77.4937 61.1027 77.2863 60.3249L73.3431 45.5388C73.1357 44.7611 72.34 44.2995 71.566 44.5079C70.7919 44.7163 70.3326 45.5157 70.54 46.2934L74.4832 61.0796C74.6906 61.8573 75.4862 62.3189 76.2603 62.1105Z" fill="#000" />
</svg>
