<svg aria-hidden="true" xmlns="http://www.w3.org/2000/svg" xmlns:xlink="http://www.w3.org/1999/xlink"><symbol viewBox="0 0 19 27" id="arrow-back-sidebar-catalog" xmlns="http://www.w3.org/2000/svg">
<path fill-rule="evenodd" clip-rule="evenodd" d="M18.125 27H13.125L0 13.5L13.125 0H18.125L4.87524 13.5L18.125 27Z"/>
</symbol><symbol viewBox="0 0 14 7" id="arrow-menu-dropdown" xmlns="http://www.w3.org/2000/svg">
<path opacity="0.497001" fill-rule="evenodd" clip-rule="evenodd" d="M11.9995 0L6.99951 5L1.99951 0H-0.000488281L6.99951 7L13.9995 0H11.9995Z"/>
</symbol><symbol viewBox="0 0 24 14" id="arrow-pagging-left" xmlns="http://www.w3.org/2000/svg">
<path fill-rule="evenodd" clip-rule="evenodd" d="M23.2666 6.29564L3.65498 6.29564L9.96414 0L7.86345 0L0.866602 6.99498L7.86345 14H9.96414L3.65498 7.7L23.2666 7.7V6.29564Z" fill-opacity="0.55242"/>
</symbol><symbol viewBox="0 0 24 14" id="arrow-pagging-right" xmlns="http://www.w3.org/2000/svg">
<path fill-rule="evenodd" clip-rule="evenodd" d="M0.757812 6.29564L20.3694 6.29564L14.0603 0L16.161 0L23.1578 6.99498L16.161 14H14.0603L20.3694 7.7L0.757812 7.7L0.757812 6.29564Z" fill-opacity="0.55242"/>
</symbol><symbol viewBox="0 0 18 13" id="back-btn" xmlns="http://www.w3.org/2000/svg">
<path fill-rule="evenodd" clip-rule="evenodd" d="M18 5.84595H2.56076L8.35489 0H6.42568L0 6.49534L6.42568 13H8.35489L2.56076 7.15H18V5.84595Z"/>
</symbol><symbol viewBox="0 0 40 34" id="cat-link-icon-1" xmlns="http://www.w3.org/2000/svg">
<path fill-rule="evenodd" clip-rule="evenodd" d="M19.2748 21.7L19.2747 0H17.4236L17.1785 0.0195616L16.9881 0.0651251L16.8087 0.123987C15.9382 0.451002 15.4607 1.26461 15.0922 2.38357L15.0798 2.425H14.3618L14.3296 2.34203L14.2662 2.21167C13.9926 1.70609 13.485 1.39421 12.9114 1.39421H12.1363L11.9661 1.40469L11.8141 1.43529L11.6547 1.48221C11.1895 1.64304 10.8426 1.98109 10.6815 2.4024L10.6738 2.425L9.34085 2.42527L9.09556 2.43876L8.88629 2.47213C7.64174 2.71569 6.5942 3.7341 5.57587 5.24682L5.33144 5.62203L5.01064 6.1519L4.84024 6.45247L4.66878 6.773L4.62602 6.80543C3.32644 7.82416 2.44381 9.34252 1.88133 11.1679L1.76046 11.5843L1.70067 11.8098L1.60672 12.2001L1.52556 12.5817L1.43279 13.0944L1.38547 13.4045L1.33734 13.7827L1.29672 14.221L1.29178 22.173L1.2589 22.1878L1.09745 22.2759C0.374108 22.7149 0.0679365 23.5407 0.00807937 24.4827L0.000976562 24.6519L0.00173302 26.8459L0.00782458 27.0775L0.0249538 27.2882C0.18582 28.8001 1.11461 29.5885 2.30844 29.7135L2.49511 29.7267L2.62808 29.7297L2.83084 29.7217L2.91278 29.713L6.25696 29.7132C6.71873 32.0738 8.80228 33.8378 11.2698 33.8378C13.7386 33.8378 15.8221 32.0731 16.2829 29.713L28.8517 29.7132C29.3139 32.074 31.3971 33.8378 33.8644 33.8378C36.3331 33.8378 38.4166 32.0732 38.8779 29.7132L39.9998 29.7123V23.8005L39.9943 23.6024L39.9782 23.4082C39.7255 21.0484 37.4766 19.98 33.6463 19.98C31.8701 19.98 30.1305 20.4658 28.4952 21.2653L28.1211 21.455L27.7135 21.6775L27.3146 21.9123L27.0632 22.07L26.7848 22.255H20.4978L19.2748 21.7ZM8.16193 28.7297C8.16193 27.017 9.55725 25.6216 11.2703 25.6216C12.9835 25.6216 14.3789 27.0171 14.3782 28.7293C14.3782 28.8161 14.3749 28.8979 14.3682 28.9745C14.2398 30.5851 12.8897 31.8378 11.2698 31.8378C9.6505 31.8378 8.29983 30.5847 8.1719 28.9809C8.16535 28.8965 8.16193 28.8118 8.16193 28.7297ZM33.8649 25.6216C32.1521 25.6216 30.7565 27.0172 30.7565 28.7297C30.7565 28.8118 30.76 28.8965 30.7665 28.9807C30.8948 30.5849 32.2452 31.8378 33.8644 31.8378C35.4843 31.8378 36.8345 30.5851 36.963 28.9788C36.9695 28.8992 36.9728 28.8158 36.9728 28.7293C36.9735 27.0171 35.5781 25.6216 33.8649 25.6216ZM13.4063 28.7297C13.4063 27.5503 12.45 26.5938 11.2703 26.5938C10.0905 26.5938 9.13426 27.5503 9.13426 28.7297C9.13426 28.9389 9.16525 29.1443 9.22381 29.343C9.49758 30.2442 10.3234 30.8662 11.2703 30.8662C12.2178 30.8662 13.044 30.2439 13.3146 29.3502C13.3753 29.1504 13.4063 28.9418 13.4063 28.7297ZM33.8653 26.5938C35.0451 26.5938 36.0018 27.5502 36.0018 28.7297C36.0018 28.9418 35.9708 29.1504 35.9096 29.352C35.6375 30.2447 34.8118 30.8662 33.8649 30.8662C32.9177 30.8662 32.0916 30.2438 31.82 29.347C31.7604 29.1474 31.7293 28.9403 31.7293 28.7297C31.7293 27.5503 32.6856 26.5938 33.8653 26.5938ZM17.2748 2.326L17.2747 22.99L20.0638 24.2551H27.4259L27.9103 23.9075L28.1493 23.7491L28.3585 23.6181L28.6095 23.4689L29.0518 23.225L29.387 23.0553L29.7311 22.8936C30.9985 22.3211 32.33 21.98 33.6463 21.98C36.656 21.98 37.9323 22.6148 37.9965 23.6918L38.0002 23.8304L38.0008 24.879L37.8129 24.659L37.7081 24.5455L37.5999 24.4346C37.088 23.9232 36.4897 23.5207 35.8239 23.2396C35.1345 22.9487 34.4009 22.801 33.6482 22.801C32.8956 22.801 32.1625 22.9487 31.4733 23.2395C30.8074 23.5209 30.209 23.9233 29.6966 24.4346C29.1835 24.9465 28.7798 25.544 28.4987 26.2081L28.3961 26.4683L28.3069 26.7323C28.2245 26.9981 28.1624 27.2692 28.1209 27.5443L28.1008 27.712H16.5888L16.5671 27.544L16.5188 27.2702C16.4453 26.9071 16.3353 26.5518 16.1895 26.2077C15.9078 25.5434 15.5041 24.9462 14.9914 24.4346C14.4795 23.9232 13.8812 23.5207 13.2154 23.2396C12.526 22.9487 11.7924 22.801 11.0397 22.801C10.2869 22.801 9.55325 22.9488 8.8645 23.2396C8.19844 23.5208 7.5998 23.9234 7.0877 24.435C6.57504 24.9465 6.17132 25.544 5.89024 26.2081L5.78757 26.4683L5.69839 26.7323C5.61598 26.9981 5.5539 27.2692 5.51241 27.5443L5.49178 27.712L2.86654 27.7133L2.75078 27.72L2.67024 27.7294L2.59682 27.73L2.47905 27.7212L2.40829 27.711C2.16015 27.6649 2.0356 27.5125 2.0058 26.9924L2.00134 26.8173L2.00016 24.6916L2.00525 24.5865L2.0169 24.4579C2.05545 24.1342 2.1514 23.9639 2.24271 23.9537L3.2907 23.8985L3.29258 14.3121L3.3253 13.999L3.36631 13.6796L3.40571 13.4212L3.48806 12.966L3.55733 12.641L3.64178 12.2914L3.79744 11.7408L3.89589 11.4371C4.37187 10.0397 5.07978 8.92435 6.02887 8.25361L6.23158 8.11036L6.43111 7.71657L6.5917 7.4178L6.74015 7.15605L6.92126 6.85232L7.24345 6.35086L7.38565 6.14455C8.09707 5.1366 8.80919 4.48824 9.28263 4.42905L9.40386 4.42328L16.6381 4.42527L16.8664 3.43952L16.9201 3.24133L16.998 2.98972L17.0469 2.84888L17.115 2.67327L17.2067 2.46397L17.2748 2.326ZM10.684 7.84294L10.9 7.85038C12.1452 7.93192 12.855 8.63294 13.0317 9.56539L13.0562 9.72288L13.0668 9.89605L13.0606 13.9908L13.0475 14.1221L13.0325 14.2214C12.8977 14.8871 12.4555 15.3088 11.8407 15.6156L11.6835 15.69L11.464 15.7774L11.3573 15.8131L11.1418 15.8596L7.06197 16.2783L6.92082 16.2827L6.66221 16.2718C5.56857 16.1857 4.72677 15.6754 4.10414 14.983L3.97406 14.8319L3.63729 14.3917L3.67995 13.9946C3.89204 12.0197 4.55094 10.4464 5.49001 9.23688L5.68151 8.99982L6.00016 8.64785L6.28164 8.3756L6.44746 8.2316L6.63421 8.08425L6.97143 7.84295L10.684 7.84294ZM7.64278 9.842H10.6508L10.8028 9.84774L10.9991 9.86276C11.0603 9.87095 11.0619 9.88358 11.0666 9.92183L11.067 9.92511L11.07 9.9751L11.0658 13.782L11.0508 13.7808C11.0413 13.7827 11.0291 13.7875 11.0143 13.7944L10.8953 13.8522L10.8208 13.882L6.92678 14.281L6.77984 14.2757L6.61409 14.2533C6.28796 14.1911 5.99519 14.0277 5.75765 13.8149L5.72478 13.782L5.76176 13.5505C6.00671 12.1734 6.52455 11.1053 7.19791 10.3037L7.36797 10.1108L7.57181 9.90575L7.64278 9.842Z"/>
</symbol><symbol viewBox="0 0 39 38" id="cat-link-icon-10" xmlns="http://www.w3.org/2000/svg">
<path fill-rule="evenodd" clip-rule="evenodd" d="M23.5588 1.09643C22.8766 0.415839 21.9392 0 20.9047 0H17.1647L16.9381 0.00752542L16.7362 0.0287534L16.5054 0.0655824C15.6687 0.223984 14.9406 0.636673 14.3988 1.21478L14.3051 1.32L14.2089 1.28686L13.9973 1.22514C13.0729 0.984339 12.0573 1.09126 11.1633 1.60293L7.91379 3.476L7.71121 3.60193L7.51403 3.74654C6.81255 4.29149 6.34834 4.99647 6.13896 5.79485L6.08669 6.02263L6.08105 6.059L5.94536 6.08865L5.83337 6.11687C4.86505 6.37659 4.03967 7.01054 3.53901 7.87912L1.65267 11.1148L1.53589 11.3342L1.45206 11.5254L1.36775 11.7506C1.0851 12.5794 1.09227 13.4407 1.34778 14.2138L1.36305 14.256L1.30908 14.3007L1.22405 14.3782L1.14119 14.4586C0.432697 15.1671 0.034668 16.128 0.034668 17.13V20.87L0.0430475 21.1038L0.0648854 21.3049L0.102307 21.5348C0.262652 22.3681 0.674806 23.0932 1.2511 23.6335L1.36805 23.737L1.33516 23.8262L1.27178 24.039C1.02446 24.9685 1.13374 25.9828 1.64668 26.8748L3.51775 30.1209L3.65013 30.3319L3.79473 30.527C4.33932 31.2211 5.04018 31.6805 5.83297 31.889L6.05915 31.9411L6.11305 31.95L6.12097 31.9965L6.14547 32.1093L6.17352 32.2216C6.43187 33.1926 7.06773 34.02 7.9395 34.5195L11.1792 36.3869L11.4011 36.5055L11.4927 36.5508L11.7147 36.6451C12.4629 36.9345 13.2879 36.9755 14.066 36.7564L14.2793 36.694L14.3241 36.677L14.4342 36.8028L14.5839 36.9549C15.2507 37.595 16.1493 37.988 17.1408 37.9999L20.9047 38L21.1313 37.9925L21.3331 37.9712L21.5639 37.9344C22.4006 37.776 23.1287 37.3633 23.6705 36.7852L23.7691 36.675L23.8597 36.7079L23.9625 36.7392L24.0663 36.7676C25.006 37.0327 26.0578 36.8943 26.9342 36.3735L30.1555 34.5169L30.3486 34.3981L30.5472 34.254C31.2539 33.7109 31.7218 33.0048 31.9325 32.204L31.985 31.9755L31.9961 31.912L32.1388 31.883L32.2511 31.855C33.2225 31.5973 34.0508 30.9625 34.5521 30.0916L36.4216 26.8484L36.5413 26.6237L36.5863 26.5324L36.6801 26.3109C36.9681 25.5642 37.0092 24.7414 36.792 23.965L36.7294 23.7509L36.7121 23.699L36.8283 23.5963L36.9803 23.4477C37.6201 22.7858 38.0147 21.8946 38.0343 20.9097L38.0347 17.13L38.0238 16.8575L37.9917 16.5987C37.8612 15.7486 37.497 15.0272 36.9405 14.4637L36.7682 14.3037L36.7111 14.255L36.7419 14.167L36.8037 13.9552C37.0445 13.0301 36.9355 12.016 36.4221 11.1243L34.5516 7.87913L34.4277 7.67931L34.2838 7.48239C33.7414 6.78175 33.0396 6.31699 32.244 6.10544L32.017 6.05252L31.9691 6.044L31.9598 5.99385L31.9079 5.7791C31.6558 4.8554 31.0546 4.0267 30.1615 3.50779L26.9227 1.61256L26.6955 1.49196L26.5038 1.4085L26.2782 1.32465C25.4478 1.04367 24.5855 1.0527 23.8119 1.31006L23.7691 1.325L23.701 1.24627L23.5588 1.09643ZM7.70133 8.22625L7.77001 8.26336C7.81741 8.28332 7.86757 8.29375 7.91775 8.29483L7.9927 8.28948C8.06697 8.27717 8.13821 8.24407 8.19717 8.19083C8.33987 8.05388 8.36924 7.83659 8.268 7.66667C8.02236 7.25649 7.95226 6.76466 8.07355 6.30219C8.18135 5.89111 8.43229 5.53402 8.77842 5.2934L8.91258 5.20875L12.1568 3.33875L12.3206 3.25569C12.5423 3.15721 12.7756 3.1075 13.0072 3.10301L13.1516 3.10605C13.7273 3.14153 14.2748 3.45491 14.5863 3.99042L14.6316 4.05989C14.7172 4.16609 14.8507 4.22301 14.9865 4.21127L15.068 4.19583L15.1463 4.16832C15.2946 4.09891 15.3916 3.94681 15.3868 3.77792C15.3868 2.8451 16.1051 2.08006 17.0189 2.00589L17.1647 2H20.9047L21.0505 2.00589C21.9642 2.08006 22.6826 2.8451 22.6826 3.77792C22.677 3.97496 22.8098 4.14914 23.0013 4.19583L23.0828 4.21127L23.1637 4.21023C23.2968 4.19528 23.4184 4.11554 23.483 3.99042L23.5708 3.85389C23.912 3.3726 24.4583 3.1052 25.0196 3.10269L25.1729 3.10861C25.3774 3.12537 25.5816 3.17776 25.7763 3.26825L25.9126 3.33875L29.1568 5.23708L29.2861 5.31976C30.0336 5.844 30.268 6.8624 29.8013 7.66667C29.7091 7.82531 29.7291 8.02526 29.8509 8.1625C29.9274 8.24507 30.0314 8.28925 30.1374 8.29186L30.2168 8.28598C30.2694 8.27679 30.3209 8.25702 30.368 8.22625L30.5255 8.14344C30.9007 7.96951 31.3268 7.93106 31.73 8.03828C32.1397 8.14721 32.4952 8.39834 32.7346 8.74397L32.8188 8.87792L34.6888 12.1221L34.7594 12.2577C35.1448 13.0817 34.8442 14.0776 34.0443 14.5446C33.8742 14.6415 33.7905 14.8407 33.8403 15.03C33.8901 15.2193 34.061 15.3514 34.2568 15.3521C34.7286 15.3525 35.1814 15.5381 35.5176 15.8692C35.8078 16.163 35.9863 16.5466 36.0262 16.9541L36.0347 17.13V20.87L36.0253 21.0214C35.9319 21.9188 35.1751 22.6161 34.2568 22.6196L34.1736 22.625C34.0113 22.6518 33.8758 22.7714 33.8323 22.9353C33.7815 23.1265 33.8694 23.3275 34.0443 23.42L34.1759 23.5045C34.5156 23.7444 34.761 24.0979 34.8659 24.5037C34.977 24.901 34.9419 25.3229 34.7706 25.6939L34.6888 25.8496L32.8188 29.0938L32.7348 29.2259C32.4961 29.5668 32.1437 29.8143 31.7382 29.9219C31.6242 29.9521 31.5083 29.9707 31.3923 29.9778L31.2183 29.9799C30.9289 29.9691 30.6438 29.8874 30.3893 29.7383L30.3151 29.7012C30.2641 29.6819 30.2104 29.6735 30.1574 29.6755L30.0786 29.6863C30.0012 29.7048 29.9287 29.7462 29.8722 29.8092C29.7295 29.9461 29.7001 30.1634 29.8013 30.3333C30.0487 30.7419 30.1197 31.2334 29.9982 31.6953C29.8902 32.1059 29.6383 32.462 29.2913 32.7004L29.1568 32.7842L25.9126 34.6542L25.757 34.7362C25.598 34.8098 25.4296 34.8584 25.2579 34.881L25.0852 34.8949C24.9118 34.9001 24.737 34.8792 24.5668 34.8312C24.1102 34.7133 23.7199 34.4173 23.483 34.0096L23.4378 33.9401C23.3693 33.8552 23.2702 33.8017 23.1637 33.7898L23.0828 33.7887L23.0013 33.8042L22.9231 33.8317C22.7747 33.9011 22.6778 34.0532 22.6826 34.2221C22.6826 35.1549 21.9642 35.9199 21.0505 35.9941L20.9047 36H17.1647L17.0201 35.9925C16.1147 35.9087 15.4079 35.1471 15.408 34.2221L15.4022 34.1393C15.3745 33.9779 15.2534 33.8442 15.0893 33.8042L15.0078 33.7887L14.9269 33.7898C14.7938 33.8047 14.6722 33.8845 14.6076 34.0096L14.5231 34.1413C14.2832 34.4809 13.9297 34.7264 13.5238 34.8312C13.4104 34.8632 13.2948 34.8832 13.1791 34.8914L13.0054 34.8949C12.7742 34.8879 12.5456 34.8344 12.3336 34.7362L12.178 34.6542L8.93383 32.7842L8.80184 32.7006C8.46128 32.4631 8.21388 32.1118 8.10627 31.7074C7.9852 31.2524 8.05108 30.7678 8.28925 30.3617C8.39049 30.1917 8.36112 29.9745 8.21842 29.8375C8.14305 29.7536 8.03935 29.7079 7.93323 29.7038L7.85359 29.7087C7.80074 29.7172 7.74891 29.7364 7.70133 29.7667L7.54406 29.849C7.38349 29.9232 7.21366 29.9726 7.04031 29.9966L6.866 30.0121C6.69093 30.019 6.51425 30.0001 6.34168 29.9548C5.93264 29.8472 5.57683 29.5984 5.33551 29.2551L5.2505 29.1221L3.3805 25.8779L3.3098 25.742C2.92388 24.9159 3.22425 23.9179 4.02508 23.4483L4.09455 23.4024C4.22222 23.2986 4.28057 23.1275 4.23705 22.9636C4.18629 22.7724 4.01031 22.6415 3.81258 22.6479C2.8813 22.6442 2.11839 21.9277 2.0411 21.0156L2.03467 20.87V17.13L2.04337 16.9543C2.08378 16.5473 2.26366 16.1646 2.55541 15.8728C2.88883 15.5394 3.34105 15.3521 3.81258 15.3521C4.00834 15.3514 4.17921 15.2193 4.22903 15.03C4.27885 14.8407 4.19517 14.6415 4.02508 14.5446C3.2251 14.0776 2.92455 13.0817 3.30989 12.2577L3.3805 12.1221L5.27175 8.87792L5.35583 8.74584C5.59452 8.40503 5.94643 8.15723 6.35149 8.04859C6.80719 7.92636 7.29278 7.99027 7.70133 8.22625ZM19.0347 27.8612C20.3491 27.8612 21.4147 28.9268 21.4147 30.2412C21.4147 30.8725 21.1639 31.4778 20.7176 31.9242C20.2712 32.3705 19.6659 32.6213 19.0347 32.6213C17.7202 32.6213 16.6547 31.5557 16.6547 30.2412C16.6547 28.9268 17.7202 27.8612 19.0347 27.8612ZM18.0786 29.8542C18.2382 29.4669 18.6157 29.2142 19.0347 29.2142C19.6031 29.2142 20.0649 29.6729 20.0688 30.2412C20.0717 30.6602 19.8216 31.0394 19.4354 31.2017C19.3495 31.2378 19.2608 31.2616 19.1713 31.2735L19.037 31.2825C18.7684 31.2831 18.5041 31.1789 18.3059 30.9821C18.0087 30.6869 17.9189 30.2415 18.0786 29.8542ZM8.99619 22.2759C10.1184 22.1307 11.187 22.798 11.549 23.8701C11.9109 24.9421 11.4656 26.1207 10.4851 26.6854C10.1245 26.891 9.71723 27.0007 9.30217 27.0042C9.09153 27.0038 8.88188 26.9752 8.67883 26.9192C7.58685 26.6226 6.85618 25.5963 6.93334 24.4674C7.0105 23.3385 7.87402 22.4211 8.99619 22.2759ZM29.9926 22.5629C28.8542 21.9057 27.3986 22.2958 26.7413 23.4342C26.4257 23.9808 26.3402 24.6305 26.5036 25.2402C26.667 25.85 27.0659 26.3698 27.6126 26.6854C27.9732 26.891 28.3804 27.0007 28.7955 27.0042C29.0061 27.0038 29.2158 26.9752 29.4188 26.9192C29.9571 26.7664 30.4227 26.43 30.7366 25.9714L30.8355 25.8142H30.8638L30.9436 25.664C31.4857 24.5507 31.0815 23.1916 29.9926 22.5629ZM28.7743 23.59C28.6832 23.5878 28.5924 23.5997 28.5051 23.6254C28.2397 23.693 28.0141 23.8673 27.8818 24.1071C27.6456 24.5125 27.712 25.0261 28.0435 25.3582C28.2544 25.5695 28.5391 25.6736 28.8228 25.6607L28.9441 25.648C29.0649 25.628 29.1836 25.5863 29.2943 25.5221C29.7001 25.2867 29.8967 24.8076 29.773 24.355C29.7005 24.0902 29.5278 23.8641 29.2913 23.7246C29.1336 23.6355 28.9554 23.5891 28.7743 23.59ZM9.16005 23.5981L9.29508 23.59L9.42437 23.597C9.84099 23.6456 10.192 23.9436 10.3027 24.3561C10.4235 24.8061 10.2284 25.2813 9.82633 25.5167C9.70758 25.586 9.57746 25.6302 9.4438 25.6484L9.30925 25.6577C9.21915 25.6581 9.12864 25.6467 9.04002 25.6232C8.77418 25.5528 8.54734 25.3793 8.40967 25.1413C8.27021 24.9042 8.22951 24.6218 8.29634 24.355C8.37144 24.0915 8.54354 23.8663 8.778 23.7246C8.89629 23.6578 9.02612 23.615 9.16005 23.5981ZM19.0347 13.3333C15.9051 13.3333 13.368 15.8704 13.368 19C13.368 22.0568 15.7884 24.5483 18.8173 24.6626L19.0347 24.6667L19.252 24.6626C22.2809 24.5483 24.7013 22.0568 24.7013 19C24.698 15.8718 22.1629 13.3366 19.0347 13.3333ZM22.5763 19C22.5763 17.044 20.9907 15.4583 19.0347 15.4583C17.0787 15.4583 15.493 17.044 15.493 19C15.493 20.956 17.0787 22.5417 19.0347 22.5417C19.974 22.5417 20.8748 22.1685 21.539 21.5043C22.2032 20.8401 22.5763 19.9393 22.5763 19ZM19.0347 16.0958C17.4307 16.0958 16.1305 17.3961 16.1305 19C16.1305 20.5466 17.3395 21.8109 18.864 21.8992L19.0347 21.9042L19.2053 21.8992C20.7298 21.8109 21.9388 20.5466 21.9388 19C21.9349 17.3977 20.637 16.0997 19.0347 16.0958ZM10.4568 11.3146C9.91104 10.9957 9.25943 10.9113 8.6505 11.0808C8.11095 11.2312 7.64454 11.5679 7.33215 12.028L7.23383 12.1858V12.2071L7.15453 12.3573C6.61599 13.4708 7.01934 14.8273 8.10508 15.4583C8.46114 15.6536 8.86068 15.7559 9.26675 15.7558C10.344 15.7559 11.287 15.0324 11.5658 13.9918C11.8447 12.9512 11.3898 11.8531 10.4568 11.3146ZM27.5913 11.3146C28.1371 10.9957 28.7887 10.9113 29.3976 11.0808C30.0078 11.2418 30.5284 11.6399 30.8437 12.1866C31.1589 12.7333 31.2427 13.3833 31.0763 13.9921C30.8 15.0325 29.8578 15.7566 28.7813 15.7558C28.5736 15.7544 28.3667 15.7282 28.1651 15.6779C27.2334 15.4299 26.5434 14.6442 26.4177 13.6883C26.292 12.7324 26.7554 11.795 27.5913 11.3146ZM28.2572 12.4833C28.4137 12.3905 28.5923 12.3416 28.7743 12.3417L28.9098 12.3519L29.0434 12.3771L29.1769 12.4247C29.6477 12.6254 29.9088 13.1463 29.773 13.6521C29.7003 13.9149 29.5273 14.1387 29.2913 14.2754C29.1728 14.3455 29.0427 14.39 28.909 14.4081L28.7743 14.4173C28.6842 14.4175 28.5936 14.4057 28.5051 14.3817C28.2397 14.3141 28.0141 14.1397 27.8818 13.9C27.7411 13.663 27.7017 13.3793 27.7723 13.1129C27.8429 12.8465 28.0176 12.6196 28.2572 12.4833ZM9.30217 12.3346C8.93194 12.3357 8.59095 12.5359 8.40967 12.8588C8.27261 13.0968 8.23446 13.3791 8.30342 13.645C8.37644 13.9056 8.54618 14.1286 8.778 14.2683C8.93603 14.3621 9.11476 14.4108 9.29529 14.412L9.43073 14.4039L9.56508 14.3778C9.8315 14.3072 10.0584 14.1325 10.1947 13.8929C10.3353 13.6559 10.3747 13.3723 10.3041 13.1058C10.2335 12.8394 10.0588 12.6126 9.81925 12.4762C9.66196 12.3853 9.48385 12.3365 9.30217 12.3346ZM21.4147 7.75167C21.4147 6.43723 20.3491 5.37167 19.0347 5.37167C17.7218 5.37556 16.6586 6.43884 16.6547 7.75167C16.6547 9.0661 17.7202 10.1317 19.0347 10.1317C20.3491 10.1317 21.4147 9.0661 21.4147 7.75167ZM19.0347 6.7175C18.4635 6.7175 18.0005 7.18051 18.0005 7.75167C18.0005 8.02594 18.1095 8.28899 18.3034 8.48293C18.465 8.64455 18.6746 8.74715 18.8987 8.77687L19.0347 8.78583L19.1474 8.77977C19.6655 8.72362 20.0688 8.28474 20.0688 7.75167C20.0688 7.18051 19.6058 6.7175 19.0347 6.7175ZM26.869 20.7031L26.8712 20.6932L26.661 20.8026L26.4579 20.9239C26.6168 20.3091 26.7013 19.6644 26.7013 19C26.7006 18.342 26.6172 17.7035 26.4598 17.0949C26.594 17.1786 26.7332 17.2553 26.877 17.3245L26.8715 17.2956C26.5148 15.6477 25.6515 14.1885 24.4528 13.0892L24.4094 13.0509C24.3976 13.2089 24.3943 13.3682 24.4011 13.5284C23.4906 12.6352 22.3585 11.9673 21.0955 11.6175C21.2364 11.5423 21.3727 11.4595 21.5038 11.369L21.4333 11.3466C20.6759 11.1095 19.8702 10.9817 19.0347 10.9817C18.1991 10.9817 17.3934 11.1095 16.6361 11.3466L16.5655 11.3695C16.6957 11.4586 16.831 11.5409 16.9716 11.6141C15.6976 11.9692 14.5573 12.6451 13.6439 13.5497C13.6503 13.3894 13.6478 13.2296 13.6367 13.0711L13.3813 13.3138C12.305 14.3839 11.5308 15.7576 11.1979 17.2956L11.1504 17.5322L11.1962 17.3083C11.3395 17.238 11.4786 17.16 11.6119 17.0741C11.4527 17.6895 11.368 18.3348 11.368 19C11.368 19.6623 11.452 20.3049 11.611 20.9164C11.4766 20.8328 11.3377 20.7564 11.1949 20.6877L11.2716 21.0148C11.6702 22.5551 12.5152 23.9158 13.6602 24.9506L13.6666 24.8823C13.6745 24.7482 13.6762 24.6133 13.6711 24.4782C14.5783 25.3665 15.7052 26.0312 16.9619 26.3818C16.8764 26.4278 16.7926 26.4766 16.7106 26.528L16.5588 26.6288C17.3386 26.8817 18.1707 27.0183 19.0347 27.0183C19.8696 27.0169 20.6746 26.888 21.4314 26.6502L21.5068 26.6251C21.3784 26.5372 21.2452 26.4559 21.1067 26.3834C22.378 26.0274 23.5158 25.3518 24.426 24.4484C24.4197 24.605 24.4218 24.7622 24.4324 24.9192L24.4488 24.9066C25.6469 23.8076 26.5104 22.3497 26.869 20.7031Z"/>
</symbol><symbol viewBox="0 0 39 26" id="cat-link-icon-11" xmlns="http://www.w3.org/2000/svg">
<path fill-rule="evenodd" clip-rule="evenodd" d="M0.928132 4.9416L3.01904 0.759777C3.19677 0.405368 3.5585 0.181641 3.95472 0.181641H11.2729C11.851 0.181641 12.3184 0.650004 12.3184 1.2271V6.45437H20.5002V5.40891H22.5911V6.45437H25.682V5.40891H27.7729V6.45437H30.8638V5.40891H32.9547V6.45437H35.0456C35.3237 6.45437 35.5893 6.56414 35.7848 6.76069L37.8757 8.85159C38.0722 9.0471 38.182 9.31369 38.182 9.59073V15.7725C38.182 16.0496 38.0722 16.3162 37.8757 16.5117L35.7848 18.6026C35.5893 18.7991 35.3237 18.9089 35.0456 18.9089H32.9547V19.9544H30.8638V18.9089H27.7729V19.9544H25.682V18.9089H22.5911V19.9544H20.5002V18.9089H12.3184V24.1362C12.3184 24.7133 11.851 25.1816 11.2729 25.1816H3.95472C3.5585 25.1816 3.19677 24.9579 3.01904 24.6035L0.928132 20.4217C0.855996 20.2774 0.818359 20.1164 0.818359 19.9544V5.40891C0.818359 5.24687 0.855996 5.08587 0.928132 4.9416ZM10.2275 23.0907V20.9998H3.55536L4.60081 23.0907H10.2275ZM34.6128 8.54528L36.0911 10.0235V15.3397L34.6128 16.818H32.9547V8.54528H34.6128ZM30.8638 16.818V8.54528H27.7729V16.818H30.8638ZM25.682 8.54528V16.818H22.5911V8.54528H25.682ZM20.5002 16.818V8.54528H12.3184V16.818H20.5002ZM2.90927 6.45437H10.2275V18.9089H2.90927V6.45437ZM10.2275 4.36346V2.27255H4.60081L3.55536 4.36346H10.2275Z"/>
</symbol><symbol viewBox="0 0 35 30" id="cat-link-icon-12" xmlns="http://www.w3.org/2000/svg">
<path fill-rule="evenodd" clip-rule="evenodd" d="M0.125 3.93314C0.125 1.76093 1.88593 0 4.05814 0C5.27951 0 6.37085 0.556716 7.09226 1.43023H27.9077C28.6291 0.556716 29.7205 0 30.9419 0C33.1141 0 34.875 1.76093 34.875 3.93314V10.2238C34.875 10.8163 34.3947 11.2965 33.8023 11.2965C33.2099 11.2965 32.7297 10.8163 32.7297 10.2238V3.93314C32.7297 2.94576 31.9293 2.14535 30.9419 2.14535C29.9544 2.14535 29.1541 2.94576 29.1541 3.93314V20.8052C29.1541 21.7927 29.9544 22.593 30.9419 22.593C31.9293 22.593 32.7297 21.7927 32.7297 20.8052V15.9448C32.7297 15.3524 33.2099 14.8721 33.8023 14.8721C34.3947 14.8721 34.875 15.3524 34.875 15.9448V20.8052C34.875 22.6056 33.6654 24.1234 32.0145 24.5903V27.9564C32.0145 28.5488 31.5343 29.0291 30.9419 29.0291C30.3495 29.0291 29.8692 28.5488 29.8692 27.9564V24.5903C29.0902 24.37 28.4095 23.9157 27.9077 23.3081H7.09227C6.59051 23.9157 5.90978 24.37 5.13081 24.5903V27.9564C5.13081 28.5488 4.65056 29.0291 4.05814 29.0291C3.46572 29.0291 2.98547 28.5488 2.98547 27.9564V24.5903C1.33462 24.1234 0.125 22.6056 0.125 20.8052V3.93314ZM5.84593 20.8052C5.84593 21.7927 5.04552 22.593 4.05814 22.593C3.07076 22.593 2.27035 21.7927 2.27035 20.8052V3.93314C2.27035 2.94576 3.07076 2.14535 4.05814 2.14535C5.04552 2.14535 5.84593 2.94576 5.84593 3.93314V20.8052ZM7.99128 20.8072V21.1628H27.0087V20.8091L27.0087 20.8052V3.93314L27.0087 3.92922V3.57558H7.99128V3.93118L7.99128 3.93314V20.8052L7.99128 20.8072ZM11.2093 5.00581C11.8017 5.00581 12.282 5.48607 12.282 6.07849V18.6599C12.282 19.2523 11.8017 19.7326 11.2093 19.7326C10.6169 19.7326 10.1366 19.2523 10.1366 18.6599V6.07849C10.1366 5.48607 10.6169 5.00581 11.2093 5.00581ZM16.5727 6.07849C16.5727 5.48607 16.0924 5.00581 15.5 5.00581C14.9076 5.00581 14.4273 5.48607 14.4273 6.07849V18.6599C14.4273 19.2523 14.9076 19.7326 15.5 19.7326C16.0924 19.7326 16.5727 19.2523 16.5727 18.6599V6.07849ZM19.7907 5.00581C20.3831 5.00581 20.8634 5.48607 20.8634 6.07849V18.6599C20.8634 19.2523 20.3831 19.7326 19.7907 19.7326C19.1983 19.7326 18.718 19.2523 18.718 18.6599V6.07849C18.718 5.48607 19.1983 5.00581 19.7907 5.00581ZM24.8634 6.07849C24.8634 5.48607 24.3831 5.00581 23.7907 5.00581C23.1983 5.00581 22.718 5.48607 22.718 6.07849V18.6599C22.718 19.2523 23.1983 19.7326 23.7907 19.7326C24.3831 19.7326 24.8634 19.2523 24.8634 18.6599V6.07849Z"/>
</symbol><symbol viewBox="0 0 28 30" id="cat-link-icon-13" xmlns="http://www.w3.org/2000/svg">
<path fill-rule="evenodd" clip-rule="evenodd" d="M27.8951 15.553L27.8891 15.556C28.0071 15.791 28.0331 16.063 27.9481 16.316L25.9481 22.316C25.8131 22.725 25.4311 23 25.0001 23H21.0001V29C21.0001 29.553 20.5531 30 20.0001 30H8.00006C7.44706 30 7.00006 29.553 7.00006 29V23H3.00006C2.56906 23 2.18806 22.725 2.05106 22.317L0.05106 16.317C-0.03394 16.064 -0.00694003 15.791 0.11106 15.556L0.10506 15.553L8.00006 3.764V1C8.00006 0.447 8.44706 0 9.00006 0H19.0001C19.5531 0 20.0001 0.447 20.0001 1V3.764L27.8951 15.553ZM20.7801 15H25.3821L18.3821 5H17.2801L20.7801 15ZM18.7201 15H15.0001V5H15.2201L18.7201 15ZM18.0001 2H10.0001V3H18.0001V2ZM13.0001 5V15H9.28006L12.7801 5H13.0001ZM10.7201 5H9.61806L2.61806 15H7.22006L10.7201 5ZM19.0001 28H9.00006V23H19.0001V28ZM20.0001 21H24.2791L25.6131 17H2.38806L3.72106 21H8.00006H20.0001Z"/>
</symbol><symbol viewBox="0 0 37 27" id="cat-link-icon-14" xmlns="http://www.w3.org/2000/svg">
<path fill-rule="evenodd" clip-rule="evenodd" d="M32.5714 5.42857H35.8929C36.5044 5.42857 37 5.9242 37 6.53571V23.1905C37 23.802 36.5044 24.2976 35.8929 24.2976H32.5714C31.9599 24.2976 31.4643 23.802 31.4643 23.1905V22.0833H31.2159L27.855 25.7805C27.645 26.0115 27.3479 26.1429 27.0357 26.1429H13.0863C12.7866 26.1429 12.4995 26.0214 12.291 25.8059L9.75713 23.1905H5.79762C5.18611 23.1905 4.69048 22.6948 4.69048 22.0833V16.3929H2.21429V25.0357C2.21429 25.6472 1.71865 26.1429 1.10714 26.1429C0.495631 26.1429 0 25.6472 0 25.0357V5.53571C0 4.9242 0.495631 4.42857 1.10714 4.42857C1.71865 4.42857 2.21429 4.9242 2.21429 5.53571V14.1786H4.69048V9.4881C4.69048 8.87658 5.18611 8.38095 5.79762 8.38095H8.26323L11.661 5.01155C11.8681 4.80562 12.1482 4.69048 12.4405 4.69048H16.6548V2.21429H9.59524C8.98373 2.21429 8.4881 1.71865 8.4881 1.10714C8.4881 0.495631 8.98373 0 9.59524 0H25.9286C26.5401 0 27.0357 0.495631 27.0357 1.10714C27.0357 1.71865 26.5401 2.21429 25.9286 2.21429H18.869V4.69048H25.3137C25.6152 4.69048 25.9046 4.81374 26.1131 5.03185L28.6152 7.64286H31.4643V6.53571C31.4643 5.9242 31.9599 5.42857 32.5714 5.42857ZM33.6786 22.0833H34.7857V7.64286H33.6786V8.75C33.6786 9.36151 33.1829 9.85714 32.5714 9.85714H28.1429C27.8413 9.85714 27.552 9.73388 27.3431 9.51577L24.841 6.90476H12.8962L9.4988 10.2742C9.29176 10.4801 9.01165 10.5952 8.71937 10.5952H6.90476V20.9762H10.2262C10.5259 20.9762 10.813 21.0976 11.0215 21.3131L13.5554 23.9286H26.546L29.9069 20.2315C30.1169 20.0004 30.414 19.869 30.7262 19.869H32.5714C33.1829 19.869 33.6786 20.3647 33.6786 20.9762V22.0833Z"/>
</symbol><symbol viewBox="0 0 40 20" id="cat-link-icon-15" xmlns="http://www.w3.org/2000/svg">
<path fill-rule="evenodd" clip-rule="evenodd" d="M32.0213 4.68101C33.8161 4.68101 35.276 7.03989 35.276 8.83471H38.5307C39.1301 8.83471 39.6156 9.32019 39.6156 9.91959V14.2592C39.6156 14.8586 39.1301 15.344 38.5307 15.344H35.276C35.276 17.1389 33.8161 19.4977 32.0213 19.4977H22.7846C20.9898 19.4977 19.53 17.1389 19.53 15.344H9.02063C8.60973 15.344 8.23409 15.1121 8.05033 14.7446L0.114659 1.57038C-0.0534991 1.23406 -0.0358696 0.834687 0.162123 0.514644C0.359437 0.194602 0.708636 0 1.08496 0H5.96696C6.37786 0 6.7535 0.231895 6.93726 0.599401L12.4035 8.83471H19.53C19.53 7.03989 20.9898 4.68101 22.7846 4.68101H32.0213ZM28.7667 17.328V6.85079H26.0393V17.328H28.7667ZM9.69123 13.1743L2.84044 2.16978H5.29636L10.7626 10.4051C10.9463 10.7726 11.322 11.0045 11.7329 11.0045H19.53V13.1743H9.69123ZM21.6997 8.83471V15.344C21.6997 15.9421 22.1866 17.328 22.7846 17.328H23.8695V6.85079H22.7846C22.1866 6.85079 21.6997 8.23666 21.6997 8.83471ZM33.1062 15.344C33.1062 15.9421 32.6194 17.328 32.0213 17.328H30.9364V6.85079H32.0213C32.6194 6.85079 33.1062 8.23666 33.1062 8.83471V15.344ZM35.276 13.1743H37.4458V11.0045H35.276V13.1743Z"/>
</symbol><symbol viewBox="0 0 38 32" id="cat-link-icon-16" xmlns="http://www.w3.org/2000/svg">
<path fill-rule="evenodd" clip-rule="evenodd" d="M13.4013 0C14.8534 0 16.0435 1.13634 16.1297 2.567L16.1347 2.73333V7.13333C16.1347 7.34276 16.111 7.54675 16.0663 7.74275L16.0146 7.93601L15.9711 8.066L34.3013 8.06667C35.9246 8.06667 37.2355 9.52655 36.7939 11.0991L36.7421 11.261V15.954L36.888 15.8875V21.2133C36.888 21.4636 36.8486 21.691 36.7784 21.8959L36.7781 23.816L37.0347 23.6975V29.1333C37.0347 30.5854 35.8983 31.7755 34.4677 31.8617L34.3013 31.8667H2.768C1.31595 31.8667 0.125828 30.7303 0.039663 29.2997L0.034668 29.1333V19.7742L0.182054 19.842V18.362L0.108001 18.3048L0.108054 18.154L0.034668 18.0818V10.8C0.034668 9.34795 1.17101 8.15783 2.60167 8.07166L2.76605 8.066L2.72142 7.93601C2.67979 7.80061 2.64841 7.66074 2.62818 7.51733L2.60633 7.29967L2.60133 7.13333V2.73333C2.60133 1.28128 3.73767 0.0911601 5.16833 0.00499502L5.33467 0H13.4013ZM2.03467 29.1333C2.03467 29.5031 2.31196 29.8112 2.66884 29.8599L2.768 29.8667H34.3013L34.4005 29.8599C34.7217 29.816 34.9784 29.5621 35.0265 29.2422L35.0347 29.1333V26.8233C34.558 27.0433 34.0813 27.19 33.568 27.2633C32.358 27.41 31.1113 27.1167 29.938 26.31C29.608 26.0167 29.2413 25.8333 28.838 25.7233C28.3247 25.5767 27.738 25.5767 27.188 25.7233C26.8213 25.8333 26.418 26.0533 26.088 26.31C24.4013 27.6667 22.0547 27.6667 20.368 26.31C20.038 26.0167 19.6713 25.8333 19.268 25.7233C18.7547 25.5767 18.168 25.5767 17.618 25.7233C17.2513 25.8333 16.848 26.0533 16.518 26.31C15.6747 27.0067 14.648 27.3367 13.658 27.3367C12.668 27.3367 11.6413 26.97 10.798 26.31C10.468 26.0167 10.1013 25.8333 9.698 25.7233C9.18467 25.5767 8.598 25.5767 8.048 25.7233C7.74245 25.815 7.41143 25.9831 7.1186 26.1851L6.948 26.31C5.958 27.08 4.71133 27.41 3.50133 27.2633C3.09067 27.2047 2.70347 27.0991 2.32096 26.9465L2.03467 26.8233V29.1333ZM27.3713 21.8C27.8847 21.6533 28.4713 21.6533 29.0213 21.8C29.388 21.91 29.7913 22.13 30.1213 22.3867C31.1113 23.1933 32.358 23.4867 33.3113 23.34C33.722 23.2813 34.1092 23.1757 34.4917 23.0232L34.778 22.9V25.1L34.7671 25.1272C34.7613 25.133 34.7536 25.1378 34.7446 25.1433C34.7327 25.1507 34.7187 25.1593 34.7047 25.1733L34.5366 25.311C34.2514 25.5257 33.9408 25.6683 33.6047 25.76C33.0547 25.9067 32.468 25.9067 31.918 25.76C31.5513 25.6133 31.148 25.43 30.818 25.1733C29.1313 23.8167 26.7847 23.8167 25.098 25.1733C24.768 25.4667 24.4013 25.65 23.998 25.76C23.4847 25.9067 22.898 25.9067 22.348 25.76C21.9813 25.6133 21.578 25.43 21.248 25.1733C19.5613 23.8167 17.2147 23.8167 15.528 25.1733C15.198 25.4667 14.8313 25.65 14.428 25.76C13.9147 25.9067 13.328 25.9067 12.778 25.76C12.4113 25.6133 12.008 25.43 11.678 25.1733C9.99133 23.8167 7.64467 23.8167 5.958 25.1733C5.628 25.4667 5.26133 25.65 4.858 25.76C4.34467 25.9067 3.758 25.9067 3.208 25.76C2.84133 25.6133 2.438 25.43 2.108 25.1733C2.108 25.1458 2.08738 25.1183 2.06159 25.1063L2.03467 25.1V22.9L2.21385 22.9791C2.63394 23.1555 3.07508 23.2758 3.68467 23.34L3.92707 23.3698C5.05975 23.4772 6.20733 23.1396 7.13133 22.3867C7.46133 22.0933 7.828 21.91 8.23133 21.8C8.74467 21.6533 9.33134 21.6533 9.88133 21.8C10.248 21.91 10.6513 22.13 10.9813 22.3867C11.8247 23.0833 12.8513 23.4133 13.8413 23.4133C14.8313 23.4133 15.858 23.0467 16.7013 22.3867C17.0313 22.0933 17.398 21.91 17.8013 21.8C18.3147 21.6533 18.9013 21.6533 19.4513 21.8C19.818 21.91 20.2213 22.13 20.5513 22.3867C22.238 23.7433 24.5847 23.7433 26.2713 22.3867C26.6013 22.0933 26.968 21.91 27.3713 21.8ZM29.0213 17.8767C28.4713 17.73 27.8847 17.73 27.3713 17.8767C26.968 17.9867 26.6013 18.17 26.2713 18.4633C24.5847 19.82 22.238 19.82 20.5513 18.4633C20.2213 18.2067 19.818 18.0233 19.4513 17.8767C18.9013 17.73 18.3147 17.73 17.7647 17.8767C17.3613 17.9867 16.9947 18.17 16.6647 18.4633C15.8213 19.1233 14.7947 19.49 13.8047 19.49C12.8147 19.49 11.788 19.16 10.9447 18.4633C10.6147 18.2067 10.2113 18.0233 9.84467 17.8767C9.29467 17.73 8.708 17.73 8.19467 17.8767C7.79133 17.9867 7.42467 18.17 7.09467 18.4633C6.10467 19.27 4.858 19.6 3.648 19.4533C3.23733 19.3947 2.85013 19.2891 2.46763 19.1365L2.18133 19.0133V21.2133L2.20826 21.2196C2.23404 21.2317 2.25467 21.2592 2.25467 21.2867C2.58467 21.5433 2.988 21.7633 3.35467 21.8733C3.90467 22.02 4.49133 22.02 5.00467 21.8733C5.408 21.7633 5.77467 21.58 6.10467 21.2867C7.79133 19.93 10.138 19.93 11.8247 21.2867C12.1547 21.5433 12.558 21.7633 12.9247 21.8733C13.4747 22.02 14.0613 22.02 14.5747 21.8733C14.978 21.7633 15.3447 21.58 15.6747 21.2867C17.3613 19.93 19.708 19.93 21.3947 21.2867C21.7247 21.5433 22.128 21.7633 22.4947 21.8733C23.0447 22.02 23.6313 22.02 24.1447 21.8733C24.548 21.7633 24.9147 21.58 25.2447 21.2867C26.9313 19.93 29.278 19.93 30.9647 21.2867C31.2947 21.5433 31.698 21.7633 32.0647 21.8733C32.6147 22.02 33.2013 22.02 33.7147 21.8733C34.0508 21.7817 34.3614 21.6391 34.6466 21.4243L34.8147 21.2867C34.8287 21.2727 34.8427 21.264 34.8546 21.2566C34.8636 21.2511 34.8713 21.2463 34.8771 21.2405L34.888 21.2133V19.0133L34.6017 19.1365C34.2192 19.2891 33.832 19.3947 33.4213 19.4533C32.358 19.5633 31.1113 19.27 30.1213 18.4633C29.7913 18.2067 29.388 17.9867 29.0213 17.8767ZM5.33467 2H13.4013L13.5102 2.00812C13.8301 2.05625 14.084 2.31298 14.1279 2.63418L14.1347 2.73333V7.13333L14.1265 7.2422C14.0784 7.56208 13.8217 7.81604 13.5005 7.85994L13.4013 7.86667H12.668V10.0667H34.3013L34.3869 10.0717C34.7228 10.1114 34.9751 10.3823 34.7919 10.7204L34.7413 10.8V17.2533L34.7305 17.2805L34.668 17.3267C34.338 17.62 33.9713 17.8033 33.568 17.9133C33.0547 18.06 32.468 18.06 31.918 17.9133C31.5513 17.8033 31.148 17.5833 30.818 17.3267C29.1313 15.97 26.7847 15.97 25.098 17.3267C24.768 17.62 24.4013 17.8033 23.998 17.9133C23.4847 18.06 22.898 18.06 22.348 17.9133C21.9813 17.8033 21.578 17.5833 21.248 17.3267C19.5613 15.97 17.2147 15.97 15.528 17.3267C15.198 17.62 14.8313 17.8033 14.428 17.9133C13.9147 18.06 13.328 18.06 12.778 17.9133C12.4113 17.8033 12.008 17.5833 11.678 17.3267C9.99133 15.97 7.64467 15.97 5.958 17.3267C5.628 17.62 5.26133 17.8033 4.858 17.9133C4.34467 18.06 3.758 18.06 3.208 17.9133C2.84133 17.8033 2.438 17.5833 2.108 17.3267C2.108 17.304 2.09399 17.2953 2.07463 17.2834C2.07311 17.2824 2.07156 17.2815 2.06998 17.2805L2.03467 17.2533V10.8L2.04279 10.6911C2.09092 10.3713 2.34765 10.1173 2.66884 10.0734L2.768 10.0667H6.068V7.86667H5.33467L5.2258 7.85855C4.90592 7.81041 4.65197 7.55369 4.60806 7.23249L4.60133 7.13333V2.73333L4.60946 2.62446C4.65759 2.30458 4.91431 2.05063 5.23551 2.00673L5.33467 2Z"/>
</symbol><symbol viewBox="0 0 33 36" id="cat-link-icon-17" xmlns="http://www.w3.org/2000/svg">
<path fill-rule="evenodd" clip-rule="evenodd" d="M16.5002 0C17.0714 0 17.5421 0.432666 17.6023 0.987921L17.6088 1.10867L17.6083 5.344L18.5904 4.36296C18.9926 3.96215 19.6267 3.93352 20.062 4.27707L20.1588 4.36296C20.5596 4.76514 20.5882 5.3993 20.2447 5.83462L20.1512 5.93893L18.3154 7.7747C18.1037 7.98612 17.8645 8.1534 17.6094 8.27643L17.6083 15.987L23.4015 12.7027C23.3733 12.46 23.3795 12.21 23.4237 11.9592L23.4641 11.7711L24.147 9.07478C24.2978 8.48053 24.9009 8.12132 25.4937 8.2721C26.0483 8.41145 26.3982 8.9474 26.3198 9.50019L26.2937 9.62928L25.8696 11.3038L30.7472 8.53894C31.2412 8.25472 31.8664 8.39416 32.1964 8.84428L32.2624 8.94545C32.5466 9.43937 32.4072 10.0646 31.9571 10.3946L31.8559 10.4606L27.1783 13.111L28.394 13.4385C28.9458 13.5861 29.2891 14.1252 29.2026 14.6772L29.1774 14.7955C29.0298 15.3474 28.4907 15.6906 27.9387 15.6041L27.8021 15.5741L25.3045 14.9049C25.0405 14.8344 24.7969 14.7255 24.5782 14.5857L18.7483 17.89L24.5663 21.1882C24.728 21.0823 24.9037 20.9932 25.0917 20.9243L25.2838 20.8621L27.9594 20.1053C28.5477 19.9382 29.1611 20.2812 29.3267 20.8695C29.4826 21.4186 29.1943 21.9896 28.6768 22.1991L28.5625 22.2384L27.1313 22.643L31.8559 25.3212C32.3498 25.6068 32.5412 26.2181 32.3169 26.7287L32.2624 26.8363C31.9768 27.3303 31.3655 27.5216 30.8549 27.2973L30.7472 27.2429L25.9113 24.501L26.3037 25.965C26.4514 26.5168 26.1547 27.0841 25.635 27.2859L25.5203 27.3234C24.9684 27.4711 24.4011 27.1744 24.1993 26.6535L24.151 26.4981L23.4877 24.0211C23.4034 23.707 23.3807 23.3907 23.4123 23.0851L17.6083 19.794L17.6093 27.4919C17.8009 27.5816 17.9839 27.6962 18.1535 27.8357L18.3184 27.9834L20.3125 29.9229C20.7501 30.3486 20.7604 31.0508 20.3332 31.4898C19.9379 31.8975 19.3042 31.9355 18.8642 31.5968L18.7663 31.512L17.6083 30.386L17.6088 34.6731C17.6088 35.2443 17.1762 35.7151 16.6209 35.7753L16.5002 35.7818C15.929 35.7818 15.4582 35.3491 15.398 34.7939L15.3915 34.6731L15.3913 30.436L14.41 31.4188C14.0078 31.8196 13.3736 31.8483 12.9383 31.5047L12.8416 31.4188C12.4408 31.0167 12.4121 30.3825 12.7557 29.9472L12.8684 29.8236L14.6849 28.0071C14.8969 27.7954 15.1364 27.628 15.392 27.5049L15.3913 19.794L9.59876 23.0781C9.62702 23.3211 9.62092 23.5714 9.57666 23.8224L9.53626 24.0107L8.85332 26.707C8.70254 27.3013 8.09943 27.6605 7.50666 27.5097C6.95203 27.3703 6.60214 26.8344 6.68055 26.2816L6.72678 26.073L7.13104 24.477L2.25309 27.2429C1.75917 27.5271 1.1339 27.3876 0.803941 26.9375L0.737912 26.8363C0.453699 26.3424 0.593138 25.7172 1.04326 25.3872L1.14442 25.3212L5.82133 22.67L4.60639 22.3433C4.05452 22.1957 3.71125 21.6566 3.79774 21.1046L3.82293 20.9863C3.97055 20.4344 4.50964 20.0912 5.0616 20.1776L5.19819 20.2077L7.69587 20.8769C7.95983 20.9474 8.20341 21.0563 8.42214 21.1961L14.2513 17.891L8.43403 14.5936C8.27235 14.6995 8.09661 14.7886 7.9086 14.8575L7.71657 14.9197L5.04098 15.6765C4.45265 15.8436 3.83919 15.5006 3.67363 14.9123C3.51772 14.3632 3.80608 13.7922 4.32355 13.5827L4.43787 13.5434L5.86833 13.138L1.14442 10.4606C0.650499 10.175 0.459184 9.56365 0.683452 9.05314L0.737912 8.94545C1.0235 8.45153 1.63488 8.26021 2.14539 8.48448L2.25309 8.53894L7.08833 11.279L6.69659 9.81684C6.54897 9.26497 6.8456 8.69765 7.36534 8.49586L7.48005 8.45836C8.03192 8.31073 8.59924 8.60736 8.80103 9.12831L8.84179 9.25543L9.51261 11.7607C9.59693 12.0749 9.61962 12.3913 9.58799 12.697L15.3913 15.987L15.3919 8.29028C15.1888 8.19534 14.9955 8.07249 14.8175 7.92166L14.682 7.79835L12.6878 5.85892C12.2503 5.43319 12.2399 4.73103 12.6671 4.292C13.0625 3.88433 13.6961 3.84629 14.1361 4.18498L14.2341 4.26983L15.3913 5.395L15.3915 1.10867C15.3915 0.537482 15.8242 0.0667368 16.3794 0.00650944L16.5002 0Z"/>
</symbol><symbol viewBox="0 0 36 20" id="cat-link-icon-18" xmlns="http://www.w3.org/2000/svg">
<path fill-rule="evenodd" clip-rule="evenodd" d="M20.1809 16.5864V18.2458C20.178 18.8294 19.7041 19.3009 19.1206 19.3009H15.3563C14.7707 19.3009 14.296 18.8261 14.296 18.2405V16.5811H13.278C13.278 17.1667 12.8033 17.6414 12.2177 17.6414C11.632 17.6414 11.1573 17.1667 11.1573 16.5811H9.52437C9.52437 17.1667 9.04963 17.6414 8.46401 17.6414C7.8784 17.6414 7.40366 17.1667 7.40366 16.5811C5.81539 16.5048 3.56573 15.1968 3.56191 13.6068V7.3535H2.65001V13.559C2.65001 14.1447 2.17527 14.6194 1.58965 14.6194C1.00403 14.6194 0.529297 14.1447 0.529297 13.559V6.28785C0.529297 5.70223 1.00403 5.22749 1.58965 5.22749H3.71036C4.14869 4.13554 6.1857 3.40134 7.36124 3.35067C7.36124 2.76505 7.83598 2.29031 8.4216 2.29031C9.00722 2.29031 9.48195 2.76505 9.48195 3.35067H11.1414C11.1414 2.76505 11.6161 2.29031 12.2018 2.29031C12.7874 2.29031 13.2621 2.76505 13.2621 3.35067H14.296V1.69121C14.296 1.1056 14.7707 0.630859 15.3563 0.630859H19.1206C19.7062 0.630859 20.1809 1.1056 20.1809 1.69121V3.35067H29.8938C31.7958 3.35359 33.337 6.89477 33.3399 8.79682V8.90816H34.4003C34.9859 8.90816 35.4606 9.38289 35.4606 9.96851C35.4606 10.5541 34.9859 11.0289 34.4003 11.0289H33.3664V11.1402C33.3635 13.0422 31.8223 16.5834 29.9203 16.5864H20.1809ZM31.0362 7.49037C30.8005 6.53364 30.3888 5.47138 29.9203 5.47138H20.1809V14.4656H29.9203C30.4473 14.4656 30.9025 13.1212 31.1161 12.0951L31.1782 11.7671C31.1869 11.7152 31.1949 11.6648 31.202 11.6163L31.2346 11.3493C31.2419 11.2692 31.2457 11.1988 31.2457 11.1402V8.79682C31.2457 8.73826 31.2419 8.66778 31.2346 8.58768L31.202 8.32074C31.1949 8.27219 31.1869 8.22181 31.1782 8.16988L31.1161 7.84191L31.0362 7.49037ZM9.51907 5.47138H11.1467V14.4656H9.51907V5.47138ZM7.08726 5.55513C6.544 5.69246 5.68416 5.99093 5.68262 6.33026V13.6068C5.68416 13.9461 6.544 14.2446 7.08726 14.3819L7.31125 14.4334L7.39836 14.4497V5.48728C7.37262 5.49163 7.3434 5.4971 7.31125 5.50363L7.08726 5.55513ZM13.2674 14.4656V5.47138H14.296V14.4656H13.2674ZM16.4167 2.75157V17.1855H18.0602V2.75157H16.4167Z"/>
</symbol><symbol viewBox="0 0 40 28" id="cat-link-icon-2" xmlns="http://www.w3.org/2000/svg">
<path fill-rule="evenodd" clip-rule="evenodd" d="M37.8824 0H2.11765C0.948101 0 0 0.948103 0 2.11765V14.9706C0 16.1401 0.948101 17.0882 2.11765 17.0882L2.236 17.088L2.23529 17.7699C2.23529 18.5806 2.86386 19.2458 3.65765 19.3172L3.79935 19.3235H4.90653C5.77064 19.3235 6.47059 18.6324 6.47059 17.7699L6.471 17.088H11.675L11.5282 17.3442C11.1266 18.0469 11.3342 18.9361 11.9844 19.3951L12.1114 19.4759L13.0727 20.0253C13.8257 20.4555 14.7769 20.1954 15.2055 19.4455L16.553 17.088H33.86L35.2063 19.4455C35.6079 20.1482 36.4794 20.4208 37.2049 20.0937L37.339 20.0253L38.3003 19.4759C39.0533 19.0457 39.3121 18.0941 38.8836 17.3442L38.654 16.942L38.7395 16.9076C39.4384 16.5979 39.9383 15.9211 39.9947 15.1218L40 14.9706V2.11765C40 0.948103 39.0519 0 37.8824 0ZM2.11765 2H37.8824C37.9473 2 38 2.05267 38 2.11765V14.9706C38 15.0356 37.9473 15.0882 37.8824 15.0882H35.291L36.93 17.955L36.725 18.072L35.02 15.0882H15.3918L13.687 18.072L13.483 17.955L15.1208 15.0882H4.47059L4.471 17.323H4.236L4.23529 15.0882H2.11765C2.05267 15.0882 2 15.0356 2 14.9706V2.11765C2 2.05267 2.05267 2 2.11765 2ZM19.9227 17.6191C22.7852 17.6191 25.1126 19.9466 25.1114 22.8082C25.1114 22.9526 25.1057 23.0936 25.0944 23.2249C24.8803 25.9085 22.6293 27.9974 19.9223 27.9974C17.2159 27.9974 14.9642 25.9082 14.75 23.2228C14.7392 23.0836 14.7336 22.9452 14.7336 22.8082C14.7336 19.9462 17.0606 17.6191 19.9227 17.6191ZM19.9227 19.6191C18.1652 19.6191 16.7336 21.0508 16.7336 22.8082C16.7336 22.8924 16.7371 22.9793 16.7438 23.0659C16.8751 24.7116 18.2608 25.9974 19.9223 25.9974C21.5843 25.9974 22.9694 24.712 23.1012 23.0595C23.108 22.9808 23.1114 22.8969 23.1114 22.8078C23.1121 21.0508 21.6805 19.6191 19.9227 19.6191ZM22.0811 22.8082C22.0811 21.6164 21.1148 20.6499 19.9227 20.6499C18.7306 20.6499 17.7644 21.6164 17.7644 22.8082C17.7644 23.0196 17.7957 23.2272 17.8549 23.428C18.1315 24.3385 18.9659 24.9671 19.9227 24.9671C20.8802 24.9671 21.715 24.3383 21.9884 23.4352C22.0497 23.2333 22.0811 23.0225 22.0811 22.8082ZM36.0171 22.8082C36.0183 19.9466 33.6909 17.6191 30.8284 17.6191C27.9666 17.6191 25.6393 19.9464 25.6393 22.8082C25.6393 22.9452 25.6449 23.0836 25.6557 23.2228C25.8705 25.9084 28.1217 27.9974 30.828 27.9974C33.5349 27.9974 35.7859 25.9087 36.0005 23.2251C36.0116 23.0899 36.0171 22.95 36.0171 22.8082ZM27.6393 22.8082C27.6393 21.0509 29.0712 19.6191 30.8284 19.6191C32.5862 19.6191 34.0178 21.0508 34.0171 22.8078C34.0171 22.8965 34.0137 22.9821 34.0071 23.0638C33.8752 24.712 32.49 25.9974 30.828 25.9974C29.1667 25.9974 27.7811 24.7118 27.6495 23.0657C27.6428 22.9793 27.6393 22.8924 27.6393 22.8082ZM30.8289 20.6499C32.021 20.6499 32.9878 21.6164 32.9878 22.8082C32.9878 23.0225 32.9564 23.2333 32.8946 23.437C32.6196 24.3391 31.7853 24.9671 30.8284 24.9671C29.8713 24.9671 29.0366 24.3381 28.7622 23.432C28.7019 23.2303 28.6705 23.021 28.6705 22.8082C28.6705 21.6164 29.6368 20.6499 30.8289 20.6499Z"/>
</symbol><symbol viewBox="0 0 38 30" id="cat-link-icon-3" xmlns="http://www.w3.org/2000/svg">
<path fill-rule="evenodd" clip-rule="evenodd" d="M33.7619 0C35.4898 0 36.9281 1.3708 37.0253 3.07614L37.0305 3.26009V15.6395C37.0305 17.3674 35.6518 18.7978 33.9459 18.8944L33.7619 18.8996H31.93V12.915C31.928 12.3539 31.5018 11.894 30.9562 11.837L30.8376 11.8311H6.21907C5.66094 11.8331 5.20233 12.2546 5.14194 12.797L5.13521 12.915V18.8996H3.29477C1.56687 18.8996 0.136476 17.5288 0.0398828 15.8234L0.0346845 15.6395V3.26009C0.0346845 1.53218 1.4055 0.101791 3.11082 0.00519822L3.29477 0H33.7619ZM15.4022 21.6686C15.1971 21.4635 14.9186 21.3488 14.6286 21.3499L14.5058 21.3574C14.2625 21.386 14.0346 21.4961 13.8604 21.6717C13.6571 21.8765 13.5436 22.1537 13.5447 22.4423V28.699L13.5515 28.8169C13.6121 29.359 14.0708 29.7806 14.6286 29.7828L14.7514 29.7764C14.9949 29.7497 15.2236 29.6413 15.3992 29.4671C15.6041 29.2639 15.7198 28.9875 15.7209 28.699V22.4423L15.7144 22.3189C15.6874 22.0742 15.578 21.8444 15.4022 21.6686ZM7.60568 21.6717C7.40241 21.4668 7.1261 21.3511 6.83751 21.3499L6.71409 21.3565C6.46938 21.3834 6.23965 21.4928 6.06384 21.6686C5.85874 21.8737 5.74401 22.1523 5.74515 22.4423V22.98L5.74045 23.1938C5.63108 25.6728 3.62763 27.6066 1.11855 27.6066C0.829961 27.6077 0.553642 27.7234 0.350378 27.9283C0.147113 28.1332 0.0335551 28.4104 0.0346762 28.699C0.0370167 29.2966 0.520916 29.7805 1.11855 29.7828L1.35686 29.7787C4.99588 29.6525 7.92138 26.649 7.92138 22.98V22.4423L7.91491 22.3195C7.88822 22.076 7.7799 21.8472 7.60568 21.6717ZM22.4281 21.3499C22.7182 21.3488 22.9967 21.4635 23.2018 21.6686C23.3776 21.8444 23.487 22.0742 23.5139 22.3189L23.5205 22.4423V28.699C23.5194 28.9875 23.4036 29.2639 23.1988 29.4671C23.0232 29.6413 22.7944 29.7497 22.5509 29.7764L22.4281 29.7828C21.8703 29.7806 21.4116 29.359 21.351 28.8169L21.3443 28.699V22.4423C21.3431 22.1537 21.4567 21.8765 21.6599 21.6717C21.8342 21.4961 22.0621 21.386 22.3054 21.3574L22.4281 21.3499ZM31.0013 21.6686C30.7962 21.4635 30.5177 21.3488 30.2277 21.3499L30.1049 21.3574C29.8616 21.386 29.6337 21.4961 29.4595 21.6717C29.2562 21.8765 29.1427 22.1537 29.1438 22.4423V22.98L29.1479 23.2183C29.2737 26.8573 32.2691 29.7828 35.9381 29.7828L36.0609 29.7764C36.3044 29.7497 36.5332 29.6413 36.7088 29.4671C36.9136 29.2639 37.0294 28.9875 37.0305 28.699C37.0316 28.4089 36.9169 28.1304 36.7118 27.9253C36.5067 27.7202 36.2282 27.6055 35.9381 27.6066C33.3574 27.6066 31.32 25.5608 31.32 22.98V22.4423L31.3135 22.3189C31.2865 22.0742 31.1771 21.8444 31.0013 21.6686ZM29.7537 18.8996V14.0073H7.31143V18.8996H29.7537ZM27.7541 16.007H9.31205V16.899H27.7541V16.007ZM3.29477 2H33.7619C34.4502 2 35.0305 2.57825 35.0305 3.26009V15.6395L35.0238 15.766C34.9664 16.308 34.5453 16.762 34.014 16.8734L33.9301 16.886L33.93 12.915L33.9245 12.739C33.8278 11.1084 32.4769 9.82478 30.8299 9.83111L6.21907 9.83109L6.0378 9.83693C4.41858 9.93565 3.14102 11.2714 3.13522 12.9079L3.13605 16.887L3.04394 16.8735C2.47495 16.7541 2.03468 16.2389 2.03468 15.6395V3.26009L2.04131 3.13304C2.10699 2.50541 2.65254 2 3.29477 2Z"/>
</symbol><symbol viewBox="0 0 39 38" id="cat-link-icon-4" xmlns="http://www.w3.org/2000/svg">
<path fill-rule="evenodd" clip-rule="evenodd" d="M31.9172 5.00992C28.5361 1.89654 24.0153 0 19.0347 0C8.50738 0 0.034668 8.47272 0.034668 19C0.034668 29.5273 8.50738 38 19.0347 38C29.5367 38 38.0347 29.4776 38.0347 19C38.0347 13.6798 35.8707 8.88427 32.3712 5.44195L31.9172 5.00992ZM2.03467 19C2.03467 9.57728 9.61195 2 19.0347 2C28.4574 2 36.0347 9.57728 36.0347 19C36.0347 28.3743 28.4309 36 19.0347 36C9.61195 36 2.03467 28.4227 2.03467 19ZM34.5211 18.152L34.5096 19.2356C34.4311 26.6167 29.107 32.9077 21.9299 34.2531L21.5973 34.3117L20.2519 34.5335L20.4432 33.1873L20.429 32.5209L20.4284 32.27C20.4443 28.664 21.4935 25.252 24.4776 22.2679C26.7544 19.991 29.7645 18.5786 33.0451 18.2603L33.4401 18.2274L34.5211 18.152ZM4.61254 18.2264L3.54839 18.1701L3.55972 19.2356L3.56706 19.5755C3.80618 26.9221 9.23872 33.1194 16.472 34.3117L17.6347 34.5033L17.6349 33.3358L17.6403 32.8434L17.6319 32.4183C17.5571 29.9952 17.0192 27.3376 15.7261 24.8907C13.6462 20.955 10.0116 18.5122 4.61254 18.2264ZM32.4491 20.353L32.1249 20.4097C29.7418 20.86 27.5801 21.9938 25.8918 23.6821C23.4304 26.1435 22.5084 28.9441 22.4333 31.9384L22.4321 32.093L22.5071 32.0742C27.8627 30.6601 31.8507 26.0264 32.4362 20.4838L32.4491 20.353ZM5.63315 20.4838L5.61805 20.319L6.01641 20.373C9.84443 20.9412 12.3958 22.8694 13.9578 25.8252L14.1612 26.2268C15.0754 28.1132 15.5079 30.1609 15.6143 32.0526L15.6171 32.087L15.5622 32.0742C10.2066 30.6601 6.21862 26.0264 5.63315 20.4838ZM19.0347 15.525C20.937 15.525 22.5097 17.0977 22.5081 19.0555C22.403 20.9473 20.9071 22.475 19.0347 22.475C17.1324 22.475 15.5597 20.9023 15.5597 19C15.5597 17.0977 17.1324 15.525 19.0347 15.525ZM17.5597 19C17.5597 18.2023 18.237 17.525 19.0347 17.525C19.8324 17.525 20.5097 18.2023 20.5097 19C20.4632 19.8085 19.8106 20.475 19.0347 20.475C18.237 20.475 17.5597 19.7977 17.5597 19ZM19.0347 3.525C25.642 3.525 31.4712 7.69985 33.6021 13.7937L33.7108 14.1162L34.1357 15.425H3.93361L4.35854 14.1162C6.39379 7.84762 12.3114 3.525 19.0347 3.525ZM6.8249 13.2918C8.97139 8.6346 13.7122 5.525 19.0347 5.525L19.3533 5.52872C24.5457 5.65 29.1409 8.72775 31.2444 13.2918L31.3051 13.425H6.76605L6.8249 13.2918Z"/>
</symbol><symbol viewBox="0 0 40 31" id="cat-link-icon-5" xmlns="http://www.w3.org/2000/svg">
<path fill-rule="evenodd" clip-rule="evenodd" d="M5.10067 0V1.67785H34.6309V0H36.9128V1.67785H39.7987V3.95973H0V1.67785H2.81879V0H5.10067ZM37.4497 6.24161H2.61745C1.87919 6.24161 1.27517 6.51007 0.805369 6.97987C0.33557 7.44966 0 8.12081 0 8.85906V27.8523C0 28.5235 0.33557 29.1946 0.805369 29.6644C1.27517 30.1342 1.87919 30.4027 2.61745 30.4027H37.4497C38.1208 30.4027 38.7919 30.1342 39.2617 29.6644C39.7315 29.1946 40 28.5235 40 27.8523V8.85906C40 8.12081 39.7315 7.44966 39.2617 6.97987C38.7919 6.51007 38.1208 6.24161 37.4497 6.24161ZM2.61745 8.52349H37.4497C37.5168 8.52349 37.5839 8.52349 37.651 8.5906C37.7181 8.65772 37.7852 8.72483 37.7852 8.85906V27.8523C37.7852 27.9195 37.7181 27.9866 37.651 28.0537L37.651 28.0537C37.5839 28.1208 37.5168 28.1208 37.4497 28.1208H2.61745C2.55034 28.1208 2.41611 28.1208 2.41611 28.0537L2.4161 28.0537C2.34899 27.9866 2.28188 27.9195 2.28188 27.8523V8.85906C2.28188 8.72483 2.34899 8.65772 2.41611 8.5906C2.41611 8.52349 2.55034 8.52349 2.61745 8.52349ZM34.0268 17.047H27.7852V19.2617H34.0268V17.047ZM7.18121 21.4765V19.2617H5.16779V17.047H7.18121V14.8322H9.46309V17.047H11.4094V19.2617H9.46309V21.4765H7.18121ZM19.8658 15.7718L22.953 11.2752L21.0738 10L15.2349 18.5235L19.6644 18.0537L16.1074 23.8255L18.0537 24.9664L24.0268 15.302L19.8658 15.7718Z"/>
</symbol><symbol viewBox="0 0 40 29" id="cat-link-icon-6" xmlns="http://www.w3.org/2000/svg">
<path fill-rule="evenodd" clip-rule="evenodd" d="M18.4698 19.8386C18.4096 19.6987 18.3448 19.5483 18.2726 19.3824C18.5005 19.3666 18.712 19.3484 18.9125 19.3312C19.3136 19.2968 19.6709 19.2661 20.0282 19.2647C24.9636 19.2466 29.8486 19.7472 34.6896 20.7006C35.889 20.9368 36.3689 20.6026 36.6246 19.4068C36.9182 18.0334 37.2073 16.659 37.4965 15.2847L37.5798 14.8889C37.667 14.4743 37.7543 14.0596 37.8416 13.645C38.5405 10.3249 39.2394 7.00479 39.9352 3.68414C40.1035 2.88091 39.9492 2.34885 39.4121 2.08098C39.0981 1.92434 38.7349 1.85091 38.3855 1.78204C31.1463 0.355046 23.8475 -0.25337 16.4667 0.0968148C11.3705 0.338557 6.33459 0.990095 1.34779 2.04661C0.154172 2.29951 -0.176353 2.79873 0.0826387 3.98829C0.452281 5.68602 0.833612 7.38116 1.21494 9.0763C1.31027 9.50008 1.4056 9.92385 1.50075 10.3477C1.75331 11.4724 2.00665 12.5969 2.25998 13.7214C2.71106 15.7236 3.16213 17.7258 3.60883 19.7291C3.7486 20.3561 4.02827 20.854 4.71874 20.9379C4.96298 20.9677 5.21819 20.9262 5.46999 20.8854C5.5328 20.8752 5.5954 20.865 5.65756 20.856C5.97574 20.8098 6.29392 20.7635 6.61211 20.7173C9.3003 20.3269 11.9886 19.9365 14.6747 19.5322C15.3172 19.4355 15.693 19.647 15.9513 20.2573C16.4029 21.3248 16.9053 22.3726 17.429 23.4072C17.7123 23.9671 17.7799 24.4396 17.5066 25.0638C16.926 26.3892 17.6435 27.9325 18.971 28.4617C20.3796 29.0232 21.9199 28.3687 22.4788 26.971C23.0125 25.6364 22.3993 23.9991 21.0435 23.5729C20.1809 23.3016 19.7664 22.7947 19.4756 22.0313C19.3556 21.7166 19.2045 21.4138 19.0533 21.111C18.9686 20.9412 18.8838 20.7713 18.8045 20.5993C18.6952 20.3619 18.5918 20.1218 18.4698 19.8386ZM21.6135 2.52832C21.163 2.52832 20.7124 2.52448 20.2617 2.52065C19.2768 2.51226 18.292 2.50387 17.3084 2.53555C12.6737 2.6847 8.09997 3.34664 3.55683 4.24195C2.78404 4.39428 2.7238 4.49194 2.89832 5.27158C3.18385 6.547 3.47072 7.82213 3.75758 9.09726C4.40119 11.9581 5.04479 14.8189 5.67329 17.683C5.80126 18.2663 6.03856 18.4307 6.62681 18.3332C8.62158 18.0021 10.6213 17.6997 12.6208 17.3973L13.5729 17.2532C14.429 17.1234 14.4491 17.1133 14.0795 16.3249C13.271 14.6004 12.4599 12.8772 11.6487 11.1541L11.6486 11.1539C11.0491 9.88044 10.4496 8.60698 9.85127 7.33299C9.36246 6.2922 9.4827 5.60654 10.2046 5.25192C10.9144 4.90326 11.5739 5.25661 12.054 6.27191C13.5421 9.41875 15.0265 12.5672 16.5036 15.7193C16.5163 15.7463 16.5287 15.7727 16.5408 15.7985C16.8687 16.4988 17.0021 16.7837 17.2201 16.8832C17.3696 16.9514 17.5588 16.9324 17.8779 16.9003C18.013 16.8867 18.1712 16.8708 18.3596 16.8582C18.5489 16.8456 18.7389 16.843 18.9289 16.8405H18.9289C19.0136 16.8393 19.0983 16.8382 19.183 16.8362C24.0193 16.7212 28.7959 17.2744 33.5418 18.1418C34.1259 18.2486 34.3901 18.1016 34.5123 17.5093C35.3736 13.337 36.2533 9.16838 37.1412 5.00155C37.252 4.48129 37.198 4.16928 36.5855 4.055C31.6358 3.1309 26.6498 2.55229 21.6135 2.52832ZM20.8565 25.9923C20.8494 25.5137 20.398 25.0984 19.8909 25.104C19.4737 25.1086 19.1282 25.5353 19.1459 26.0242C19.1634 26.5071 19.521 26.8391 20.0112 26.8275C20.4915 26.8161 20.8634 26.4487 20.8565 25.9923Z"/>
</symbol><symbol viewBox="0 0 39 36" id="cat-link-icon-7" xmlns="http://www.w3.org/2000/svg">
<path fill-rule="evenodd" clip-rule="evenodd" d="M21.7022 33.7088C21.5618 33.716 21.439 33.7223 21.3407 33.7295C17.4444 33.6771 14.2203 32.6044 11.3946 30.4174C10.9169 30.0476 10.6206 30.0937 10.2433 30.5162C9.89684 30.9039 9.49994 31.2515 9.09776 31.5837C8.64794 31.9553 8.22012 31.9512 7.77219 31.5043C4.42628 28.1653 2.47859 24.1533 2.10946 19.4477C1.70941 14.3497 3.13653 9.77361 6.37938 5.79049C6.78797 5.28852 7.23414 4.81545 7.68195 4.34716C8.17336 3.83312 8.60357 3.79391 9.16625 4.25076C9.58678 4.59212 9.97652 4.97821 10.3413 5.37939C10.6659 5.73632 10.9267 5.72024 11.2972 5.43167C14.2432 3.13785 17.5881 2.02292 21.3277 2.05372C28.8907 2.11593 35.4935 7.74736 36.7178 15.2002C38.1919 24.1741 32.1144 32.3774 23.0785 33.5965C22.5814 33.6636 22.0789 33.6894 21.7027 33.7087L21.7023 33.7088H21.7022ZM6.54943 2.62544C2.25312 6.79783 0.0887459 11.8833 -0.000488281 17.5443C0.0506643 23.7347 2.18198 28.7325 6.29052 32.9052C7.54885 34.1833 9.02586 34.2791 10.4263 33.1292C10.863 32.7706 11.1648 32.7651 11.6302 33.0532C14.9521 35.1087 18.5649 35.987 22.4711 35.6979C32.6721 34.9433 40.2431 25.6054 38.8295 15.5017C37.0413 2.71958 22.893 -4.05392 11.837 2.5983C11.2161 2.97195 10.8269 2.97409 10.249 2.52565C8.96994 1.53327 7.5985 1.60667 6.54943 2.62544ZM16.1642 7.73306C17.6323 7.06431 19.1709 6.71592 20.0686 6.70661C26.6974 6.69505 31.5506 11.151 32.0444 17.043C32.5284 22.8172 28.374 28.0443 22.5554 28.9651C20.39 29.3078 18.3061 28.9919 16.2928 28.1377C15.8239 27.9388 15.661 27.7294 15.9057 27.1976C16.5488 25.7995 16.1986 24.5625 15.1727 23.4617C13.3643 21.5214 12.6058 19.2371 13.015 16.6036C13.2589 15.0333 13.9318 13.6497 15.0361 12.5041C16.1875 11.3096 16.5616 9.98691 15.8286 8.44593C15.6336 8.03595 15.844 7.87898 16.1642 7.73306ZM32.9544 12.5946C30.6876 7.40377 26.4335 4.91715 21.5581 4.6585C18.0831 4.69118 15.5853 5.47191 13.3303 7.01391C12.3881 7.65828 12.3965 7.67034 13.2212 8.49557L13.2878 8.56194C13.3544 8.62837 13.4211 8.69482 13.4872 8.76177C14.3624 9.64745 14.372 10.2016 13.5279 11.1186C10.1027 14.839 9.96443 20.4081 13.2006 24.3007C14.5476 25.9209 14.5448 25.9933 13.0741 27.4727C12.4302 28.1206 12.4316 28.1389 13.1671 28.6736C18.4394 32.5059 26.087 31.8179 30.4935 26.9624C34.3241 22.7412 35.2373 17.8219 32.9544 12.5946ZM4.68433 17.9237C4.74378 14.1895 5.79398 10.8906 8.01654 7.97787C8.36719 7.51838 8.62484 7.44699 9.03695 7.90008C9.5985 8.51755 10.1942 9.10725 10.8097 9.67144C11.2006 10.0295 11.1963 10.321 10.8947 10.7399C9.30352 12.9487 8.55823 15.4283 8.60712 18.1455C8.65551 20.8378 9.49129 23.2731 11.0802 25.4391C11.4206 25.9033 11.4312 26.2048 10.9971 26.5958C10.377 27.1543 9.79632 27.7583 9.21944 28.3625C8.90989 28.6869 8.70477 28.6625 8.42475 28.3107C5.98062 25.2403 4.77382 21.7363 4.68433 17.9237ZM21.326 13.7313C23.5916 13.7555 25.1911 15.4113 25.1761 17.7176C25.161 20.0431 23.4182 21.7557 21.0985 21.7243C18.8371 21.6938 17.1717 20.0026 17.1939 17.7592C17.2173 15.399 18.9538 13.7062 21.326 13.7313ZM21.1493 23.7572C24.6164 23.7532 27.2109 21.1459 27.2108 17.6653C27.2107 14.2442 24.6833 11.7048 21.2738 11.7002C17.8149 11.6954 15.1735 14.3038 15.1466 17.751C15.12 21.1326 17.747 23.761 21.1493 23.7572Z"/>
</symbol><symbol viewBox="0 0 40 31" id="cat-link-icon-8" xmlns="http://www.w3.org/2000/svg">
<path fill-rule="evenodd" clip-rule="evenodd" d="M27.4887 24.4295V27.4198C27.4905 28.9552 28.7347 30.1994 30.2701 30.2013H36.46C37.9953 30.1994 39.2395 28.9552 39.2414 27.4198V24.4295C39.2395 22.8941 37.9953 21.6499 36.46 21.648H34.4346V19.4999H34.6191C35.6825 19.4999 36.5447 18.6378 36.5447 17.5743V12.91C36.5447 11.8465 35.6825 10.9843 34.6191 10.9843H34.4346V8.83618H36.46C37.9953 8.83429 39.2395 7.59009 39.2414 6.05471V3.06271C39.2395 1.52734 37.9953 0.283136 36.46 0.28125H30.2701C28.7347 0.283136 27.4905 1.52734 27.4887 3.06271V6.053C27.4905 7.58838 28.7347 8.83258 30.2701 8.83447H32.295V10.9826H32.1102C31.0467 10.9826 30.1845 11.8447 30.1845 12.9082V14.1715H26.397V13.9519C26.397 12.8884 25.5349 12.0263 24.4714 12.0263H20.8559C20.5322 11.3768 19.87 10.9651 19.1443 10.9621H13.3854C12.3219 10.9621 11.4597 11.8242 11.4597 12.8877V14.1715H9.81567V12.9082C9.81567 11.8447 8.95353 10.9826 7.89004 10.9826H7.70646V8.83447H9.73008C11.2655 8.83258 12.5097 7.58838 12.5115 6.053V3.06271C12.5097 1.52734 11.2655 0.283136 9.73008 0.28125H3.54025C2.00488 0.283136 0.760675 1.52734 0.758789 3.06271V6.053C0.760675 7.58838 2.00488 8.83258 3.54025 8.83447H5.56559V10.9826H5.38116C4.31766 10.9826 3.45553 11.8447 3.45553 12.9082V17.5725C3.45553 18.636 4.31766 19.4982 5.38116 19.4982H5.56559V21.6463H3.54025C2.00488 21.6482 0.760675 22.8924 0.758789 24.4278V27.4198C0.760675 28.9552 2.00488 30.1994 3.54025 30.2013H9.73008C11.2655 30.1994 12.5097 28.9552 12.5115 27.4198V24.4295C12.5097 22.8941 11.2655 21.6499 9.73008 21.648H7.70518V19.4999H7.89004C8.95353 19.4999 9.81567 18.6378 9.81567 17.5743V16.311H11.4597V17.5948C11.4597 18.6583 12.3219 19.5204 13.3854 19.5204H19.1443C19.87 19.5174 20.5322 19.1058 20.8559 18.4562H24.4727C25.5362 18.4562 26.3983 17.5941 26.3983 16.5306V16.311H30.1845V17.5743C30.1845 18.6378 31.0467 19.4999 32.1102 19.4999H32.2938V21.648H30.2701C28.7916 21.6498 27.5831 22.8037 27.4939 24.2601L27.4887 24.4295ZM30.2701 6.69488C29.9156 6.69488 29.6283 6.4075 29.6283 6.053V3.06271C29.6283 2.70822 29.9156 2.42084 30.2701 2.42084H36.46C36.8145 2.42084 37.1018 2.70822 37.1018 3.06271V6.053C37.1018 6.4075 36.8145 6.69488 36.46 6.69488H30.2701ZM2.89838 6.053C2.89838 6.4075 3.18576 6.69488 3.54025 6.69488H9.73008C10.0846 6.69488 10.372 6.4075 10.372 6.053V3.06271C10.372 2.70822 10.0846 2.42084 9.73008 2.42084H3.54025C3.18576 2.42084 2.89838 2.70822 2.89838 3.06271V6.053ZM9.73008 23.7876C10.0846 23.7876 10.372 24.075 10.372 24.4295V27.4198C10.372 27.7743 10.0846 28.0617 9.73008 28.0617H3.54025C3.18576 28.0617 2.89838 27.7743 2.89838 27.4198V24.4295C2.89838 24.075 3.18576 23.7876 3.54025 23.7876H9.73008ZM5.59511 13.1239V17.3603H7.67608V13.1239H5.59511ZM13.5993 17.3808V13.1017H18.9303V17.3808H13.5993ZM21.0699 14.1659V16.3166H24.2587V14.1659H21.0699ZM32.3241 17.3603V13.1239H34.4038V17.3603H32.3241ZM37.1005 24.4295C37.1005 24.075 36.8132 23.7876 36.4587 23.7876H30.2701C29.9156 23.7876 29.6283 24.075 29.6283 24.4295V27.4198C29.6283 27.7743 29.9156 28.0617 30.2701 28.0617H36.4587C36.8132 28.0617 37.1005 27.7743 37.1005 27.4198V24.4295Z"/>
</symbol><symbol viewBox="0 0 30 29" id="cat-link-icon-9" xmlns="http://www.w3.org/2000/svg">
<path fill-rule="evenodd" clip-rule="evenodd" d="M4.72727 18.9274C4.72727 16.3166 6.84374 14.2001 9.45455 14.2001H13.8182L15.8182 9.30443C13.5133 8.70931 12.0105 6.49314 12.3104 4.13162C12.6104 1.77009 14.6195 0 17 0C19.3805 0 21.3896 1.77009 21.6896 4.13162C21.9895 6.49314 20.4867 8.70931 18.1818 9.30443L16.1818 14.2001H20.5455C23.1563 14.2001 25.2727 16.3166 25.2727 18.9274V20.1092C27.8835 20.1092 30 22.2257 30 24.8365V27.2001C30 27.8528 29.4709 28.3819 28.8182 28.3819H1.18182C0.529118 28.3819 0 27.8528 0 27.2001V24.8365C0 22.2257 2.11647 20.1092 4.72727 20.1092V18.9274ZM17 2.38193C15.6946 2.38193 14.6364 3.44017 14.6364 4.74557C14.6364 6.05097 15.6946 7.10921 17 7.10921C18.3054 7.10921 19.3636 6.05097 19.3636 4.74557C19.3636 3.44017 18.3054 2.38193 17 2.38193ZM27.6364 24.8365V26.0183H2.36364V24.8365C2.36364 23.5311 3.42187 22.4728 4.72727 22.4728H25.2727C26.5781 22.4728 27.6364 23.5311 27.6364 24.8365ZM22.9091 20.1092V18.9274C22.9091 17.622 21.8509 16.5638 20.5455 16.5638H9.45455C8.14915 16.5638 7.09091 17.622 7.09091 18.9274V20.1092H22.9091Z"/>
</symbol><symbol viewBox="0 0 20 20" id="filters-btn" xmlns="http://www.w3.org/2000/svg">
<path fill-rule="evenodd" clip-rule="evenodd" d="M2 0H4V3.17071C5.16519 3.58254 6 4.69378 6 6C6 7.30622 5.16519 8.41746 4 8.82929V20H2V8.82929C0.834808 8.41746 0 7.30622 0 6C0 4.69378 0.834808 3.58254 2 3.17071V0ZM7 14C7 15.3062 7.83481 16.4175 9 16.8293V20H11V16.8293C12.1652 16.4175 13 15.3062 13 14C13 12.6938 12.1652 11.5825 11 11.1707V0H9V11.1707C7.83481 11.5825 7 12.6938 7 14ZM18 0H16V5.17071C14.8348 5.58254 14 6.69378 14 8C14 9.30622 14.8348 10.4175 16 10.8293V20H18V10.8293C19.1652 10.4175 20 9.30622 20 8C20 6.69378 19.1652 5.58254 18 5.17071V0ZM18 8C18 8.55228 17.5523 9 17 9C16.4477 9 16 8.55228 16 8C16 7.44772 16.4477 7 17 7C17.5523 7 18 7.44772 18 8ZM10 15C10.5523 15 11 14.5523 11 14C11 13.4477 10.5523 13 10 13C9.44772 13 9 13.4477 9 14C9 14.5523 9.44772 15 10 15ZM4 6C4 6.55228 3.55228 7 3 7C2.44772 7 2 6.55228 2 6C2 5.44772 2.44772 5 3 5C3.55228 5 4 5.44772 4 6Z"/>
</symbol><symbol viewBox="0 0 30 24" id="icon-basket" xmlns="http://www.w3.org/2000/svg">
<path id="ay&#xD0;&#xBA;&#xD0;&#xBE;&#xD1;&#x80;&#xD0;&#xB7;&#xD0;&#xB8;&#xD0;&#xBD;&#xD0;&#xB0; copy" fill-rule="evenodd" clip-rule="evenodd" d="M0 2.52632H6.02929L10.3958 16H26.464L30 4.52522H9.30518L7.83865 0H0V2.52632ZM24.6267 13.4737H12.2052L10.1239 7.05154H26.6057L24.6267 13.4737ZM17.4812 21.0526C17.4812 22.6804 16.1767 24 14.5676 24C12.9585 24 11.6541 22.6804 11.6541 21.0526C11.6541 19.4248 12.9585 18.1053 14.5676 18.1053C16.1767 18.1053 17.4812 19.4248 17.4812 21.0526ZM23.7244 24C25.3335 24 26.638 22.6804 26.638 21.0526C26.638 19.4248 25.3335 18.1053 23.7244 18.1053C22.1153 18.1053 20.8109 19.4248 20.8109 21.0526C20.8109 22.6804 22.1153 24 23.7244 24Z"/>
</symbol><symbol viewBox="0 0 24 24" id="icon-cabinet" xmlns="http://www.w3.org/2000/svg">
<path fill-rule="evenodd" clip-rule="evenodd" d="M24 21.0964C24 19.1673 22.6869 17.4859 20.8158 17.0185L16.2181 15.8695L16.2243 15.2833C16.2296 14.7569 16.4483 14.2325 16.8468 13.7958C18.1591 12.3574 18.7991 10.9712 19.0069 9.35909C19.085 8.75304 19.0997 8.29281 19.0997 7.25245C19.0997 3.27444 15.9693 0.0724969 12.0236 0C8.03086 0.0724936 4.90032 3.27426 4.90032 7.25147C4.90032 8.29184 4.91499 8.75207 4.99311 9.35811C5.20091 10.9702 5.84088 12.3564 7.15313 13.7947C7.55171 14.2315 7.77044 14.7559 7.77571 15.2817L7.78189 15.8685L3.18407 17.0175C1.31261 17.4864 0 19.1677 0 21.0964V22.7143C0 23.4244 0.575634 24 1.28571 24H22.7143C23.4244 24 24 23.4244 24 22.7143V21.0964ZM20.2696 19.5839C21.0027 19.7671 21.5172 20.426 21.5172 21.182V21.5172H2.48276V21.182C2.48276 20.4259 2.99753 19.7666 3.73123 19.5828L8.61295 18.3628C9.63691 18.1074 10.3517 17.1815 10.3403 16.1262L10.3315 15.286C10.3195 14.0978 9.84557 12.9616 9.02493 12.0623C8.06062 11.0054 7.64328 10.1014 7.50153 9.00171C7.44163 8.53702 7.42917 8.14605 7.42917 7.20713C7.42917 4.60514 9.45829 2.5299 12.0238 2.48276C14.5418 2.5299 16.5708 4.60526 16.5708 7.20812C16.5708 8.14704 16.5584 8.538 16.4985 9.00269C16.3567 10.1024 15.9394 11.0064 14.975 12.0633C14.1544 12.9626 13.6805 14.0988 13.6685 15.2876L13.6597 16.1276C13.6483 17.1833 14.3629 18.1084 15.3876 18.364L20.2696 19.5839Z"/>
</symbol><symbol viewBox="0 0 27 27" id="icon-close" xmlns="http://www.w3.org/2000/svg">
<path fill-rule="evenodd" clip-rule="evenodd" d="M15.9099 13.0815L26.163 23.3345L23.3345 26.163L13.0815 15.9099L2.82843 26.163L0 23.3345L10.253 13.0815L0 2.82843L2.82843 0L13.0815 10.253L23.3345 0L26.163 2.82843L15.9099 13.0815Z"/>
</symbol><symbol viewBox="0 0 26 24" id="icon-favorites" xmlns="http://www.w3.org/2000/svg">
<path fill-rule="evenodd" clip-rule="evenodd" d="M4.99257 24L13 19.9053L21.0074 24L19.477 15.321L26 9.13647L16.9896 7.86297L13 0L9.01036 7.86297L0 9.13647L6.52295 15.321L4.99257 24ZM17.8138 19.6738L13 17.2122L8.18618 19.6738L9.10443 14.4663L5.25477 10.8164L10.579 10.0638L13 5.29244L15.421 10.0638L20.7452 10.8164L16.8956 14.4663L17.8138 19.6738Z"/>
</symbol><symbol viewBox="0 0 22 31" id="icon-phone-header" xmlns="http://www.w3.org/2000/svg">
<path fill-rule="evenodd" clip-rule="evenodd" d="M19.4724 19.5082C18.3371 17.4343 15.7372 16.7286 13.7093 17.9569L12.9395 18.4199C12.9395 18.4199 11.9289 16.7388 11.1308 14.8769C10.3327 13.015 9.73822 10.9522 9.73822 10.9522L10.6102 10.4214C12.5908 9.22186 13.2712 6.63158 12.1621 4.58432L10.8183 2.16007C9.68608 0.091985 7.09432 -0.618325 5.06535 0.588609L2.12301 2.37647C-1.19407 4.39754 -0.619537 11.0991 3.81459 19.1674C8.297 27.2964 12.9128 31.6223 16.3313 29.5518C16.3586 29.5333 16.384 29.5161 16.408 29.4997C16.4877 29.4455 16.5534 29.4008 16.6313 29.3502C16.7121 29.3107 16.7395 29.2975 16.7768 29.2803L16.926 29.201L19.262 27.785C21.2466 26.5615 21.9239 23.9768 20.8093 21.9197L19.4724 19.5082ZM15.2606 20.5251C15.8276 20.1817 16.5233 20.3705 16.8434 20.9553L18.18 23.3663C18.5284 24.0161 18.3092 24.8477 17.6962 25.2256L15.4377 26.5945C15.4028 26.6112 15.3645 26.6298 15.3133 26.6548C15.2325 26.6943 15.2052 26.7074 15.1678 26.7247L14.9751 26.8136L14.8147 26.9524C14.8005 26.9646 14.7778 26.9813 14.6994 27.0356C13.6641 27.6594 10.0766 24.3088 6.44405 17.7211C4.74417 14.628 4.28502 12.3169 3.79806 9.86577C3.74196 9.58338 3.68549 9.29913 3.62671 9.01162C3.14243 6.64285 3.32381 5.15831 3.68355 4.93913L6.61226 3.15947C7.16711 2.82949 7.86874 3.02178 8.18927 3.60726L9.52993 6.02571C9.87467 6.66219 9.65698 7.49095 9.05212 7.85729L7.09133 9.05072L6.02106 9.70214L6.47138 10.871C6.47138 10.871 7.32452 13.7912 8.50218 16.3248C9.67984 18.8583 11.3252 21.3131 11.3252 21.3131L12.1372 22.4038L15.2606 20.5251Z"/>
</symbol><symbol viewBox="0 0 17 18" id="icon-reset" xmlns="http://www.w3.org/2000/svg">
<g clip-path="url(#bdclip0_109_1659)">
<path fill-rule="evenodd" clip-rule="evenodd" d="M11.0006 1C14.4508 1.88831 17 5.02035 17 8.7478C17 11.7271 15.3713 14.3261 12.9558 15.7029L15 17.7478H9V11.7478L10.7034 13.4501C12.6262 12.7535 14 10.9111 14 8.7478C14 6.69799 12.7665 4.93628 11.0013 4.16442L11.0006 1ZM5.99935 16.7478C2.54923 15.8595 0 12.7274 0 9C0 6.02065 1.62865 3.4217 4.04422 2.04486L2 0H8V6L6.29661 4.29765C4.37383 4.9943 3 6.83671 3 9C3 11.0498 4.23348 12.8115 5.99868 13.5834L5.99935 16.7478Z"/>
</g>
<defs>
<clipPath id="bdclip0_109_1659">
<rect width="17" height="17.7478"/>
</clipPath>
</defs>
</symbol><symbol viewBox="0 0 24 23" id="icon-search" xmlns="http://www.w3.org/2000/svg">
<path fill-rule="evenodd" clip-rule="evenodd" d="M16.1334 17.1275C14.4231 18.6086 12.1924 19.5047 9.75235 19.5047C4.36628 19.5047 0 15.1384 0 9.75235C0 4.36628 4.36628 0 9.75235 0C15.1384 0 19.5047 4.36628 19.5047 9.75235C19.5047 11.7377 18.9114 13.5846 17.8925 15.1252L23.4497 20.6825L21.569 22.5632L16.1334 17.1275ZM16.845 9.75235C16.845 13.6695 13.6695 16.845 9.75235 16.845C5.83521 16.845 2.65973 13.6695 2.65973 9.75235C2.65973 5.83521 5.83521 2.65973 9.75235 2.65973C13.6695 2.65973 16.845 5.83521 16.845 9.75235Z"/>
</symbol><symbol viewBox="0 0 16 16" id="input_clear" xmlns="http://www.w3.org/2000/svg">
<path fill-rule="evenodd" clip-rule="evenodd" d="M8 0C3.6 0 0 3.6 0 8C0 12.4 3.6 16 8 16C12.4 16 16 12.4 16 8C16 3.6 12.4 0 8 0ZM12 11.0494L10.88 12.2353L8 9.18588L5.12 12.2353L4 11.0494L6.88 8L4 4.95059L5.12 3.76471L8 6.81412L10.88 3.76471L12 4.95059L9.12 8L12 11.0494Z"/>
</symbol><symbol viewBox="0 0 31 18" id="logo-sidebar-catalog" xmlns="http://www.w3.org/2000/svg">
<path fill-rule="evenodd" clip-rule="evenodd" d="M31 0H0V4H31V0ZM25 7H6L7 11H24L25 7ZM3 7H0V18H5L3 7ZM28 7H31V18H26L28 7ZM23 14H8L9 18H22L23 14Z"/>
</symbol><symbol viewBox="0 0 77 14" id="logo_salt" xmlns="http://www.w3.org/2000/svg">
<path fill-rule="evenodd" clip-rule="evenodd" d="M32.7048 10.9764C34.2224 11.0205 35.7244 10.6559 37.0571 9.91985C37.1285 9.8802 37.2046 9.85222 37.3061 9.80557C37.673 10.5339 37.8597 11.3415 37.8501 12.159C37.8616 13.0733 37.8501 13.0919 36.9902 13.3741C35.5422 13.8278 34.028 14.0267 32.5134 13.9619C30.8998 13.9293 29.376 13.619 27.9883 12.77C26.3377 11.7718 25.4156 10.2767 25.1298 8.39213C24.8566 6.89013 25.0167 5.34034 25.5908 3.92792C26.453 1.89406 28.0528 0.760515 30.1391 0.289369C32.6121 -0.288017 35.2057 0.00401796 37.4928 1.11737C37.6103 1.17102 37.7763 1.30396 37.7763 1.39959C37.8041 2.50724 37.5391 3.60231 37.0087 4.57166C36.2249 4.17282 35.4849 3.74832 34.7034 3.40546C33.7746 2.99609 32.7409 2.89722 31.7527 3.12324C30.1321 3.49409 29.1593 4.67895 29.104 6.45157C29.0804 7.09895 29.1455 7.74653 29.2976 8.3758C29.7057 9.9665 31.0266 10.9414 32.7071 10.9858L32.7048 10.9764ZM73.0235 8.54374C72.9516 8.3518 72.8262 8.18509 72.6625 8.06379C72.4989 7.9425 72.3039 7.87183 72.1014 7.86034C71.0733 7.82536 70.0428 7.86034 68.9939 7.86034V10.9088C70.052 10.9088 71.0848 10.9508 72.1106 10.8831C72.2748 10.8493 72.4307 10.7831 72.5696 10.6882C72.7084 10.5934 72.8274 10.4718 72.9198 10.3304C73.0905 10.07 73.1895 9.7682 73.2065 9.45619C73.2235 9.14418 73.158 8.83322 73.0166 8.5554L73.0235 8.54374ZM76.4122 11.4966C75.7206 12.9846 74.4435 13.6774 72.8644 13.7123C70.4808 13.7683 68.0972 13.7287 65.7182 13.731C65.3862 13.731 65.1903 13.5771 65.1903 13.2459C65.1903 10.7362 65.1903 8.22575 65.1903 5.71454C65.1672 5.49762 65.1557 5.29237 65.1534 5.10578C65.1547 4.77476 65.1246 4.44438 65.0635 4.11917C65.0362 3.85923 64.9121 3.61955 64.7164 3.44886C64.5207 3.27816 64.2681 3.18926 64.01 3.20021C63.3184 3.17688 62.6061 3.20021 61.873 3.20021C61.873 3.89993 61.8846 4.59965 61.873 5.29937C61.8431 6.99969 61.7393 8.69301 61.2667 10.335C60.8818 11.6738 60.2547 12.8633 58.89 13.4325C58.37 13.6436 57.8196 13.7681 57.2602 13.801C56.4419 13.8476 55.6166 13.7776 54.7798 13.7567C54.5266 12.7605 54.5393 11.7141 54.8167 10.7245C55.1822 10.7433 55.5484 10.7433 55.914 10.7245C56.336 10.7018 56.7413 10.5504 57.0766 10.2902C57.412 10.0301 57.6616 9.67325 57.7928 9.26678C58.0676 8.49036 58.2472 7.68276 58.3276 6.86208C58.4175 5.7122 58.3506 4.55067 58.3506 3.2935H55.9301C55.8333 2.48183 55.7641 2.32322 55.7641 1.84975C55.732 1.32925 55.7881 0.807033 55.9301 0.305696H56.428C59.1943 0.305696 61.9606 0.284704 64.7384 0.31969C65.4236 0.317351 66.1045 0.430059 66.7532 0.653224C68.0972 1.14303 68.6551 2.2859 68.8717 3.62004C68.9328 4.02918 68.9628 4.44244 68.9617 4.85621V4.98916C68.9706 5.00423 68.9769 5.02083 68.9801 5.03814C70.0636 5.03814 71.0963 5.02181 72.1268 5.03814C72.7177 5.03636 73.3078 5.0863 73.8903 5.18741C75.3748 5.49062 76.32 6.40259 76.6865 7.886C77.0201 9.08074 76.9253 10.3563 76.4191 11.4872L76.4122 11.4966ZM49.5907 6.15536C49.4708 4.54367 48.6686 3.16289 46.5939 3.0556C45.0401 2.9763 43.846 3.53607 43.3389 5.24106C43.2026 5.81928 43.1253 6.41015 43.1084 7.00435C43.1099 7.29195 43.1269 7.57926 43.1591 7.86501C43.3343 9.41372 43.9797 10.7339 45.8585 10.9484C47.5068 11.135 49.0328 10.5706 49.4731 8.61604C49.6326 7.80707 49.6738 6.97877 49.5953 6.15769L49.5907 6.15536ZM51.9905 11.8324C51.0446 12.8584 49.7915 13.5412 48.4242 13.7753C46.2781 14.1881 44.1757 14.0902 42.2208 12.9893C40.425 11.9747 39.4937 10.3583 39.1848 8.35948C38.9355 6.92374 39.0815 5.44627 39.6067 4.08885C40.3836 2.15063 41.822 0.923782 43.8138 0.384997C45.8746 -0.170115 47.9355 -0.118801 49.9134 0.74652C52.0112 1.66082 53.173 3.33315 53.5672 5.5606C53.6502 6.02708 53.6641 6.52154 53.7102 6.99969C53.6802 8.81196 53.233 10.468 51.9858 11.8371"/>
<rect y="5" width="20" height="0.999965"/>
<rect y="8" width="20" height="0.999965"/>
</symbol></svg>