<svg width="23" height="15" viewBox="0 0 23 15" fill="none" xmlns="http://www.w3.org/2000/svg">
<path d="M22.9481 7.09031L22.2005 4.68948L22.7166 3.01163L22.0507 2.06613L22.6123 0.458542C22.7151 0.164493 22.4387 -0.113586 22.2035 0.047202L21.2523 0.697499L20.299 1.09603L18.5815 3.1523L17.1137 3.38237L16.3346 4.43397L14.4737 4.29085L14.5325 3.3484C14.579 2.60229 13.8648 2.12331 13.3333 2.54417L11.3137 4.14353L10.4983 3.32803L9.25404 4.17079L6.79471 3.17205L6.85666 2.24042C6.91157 1.41491 6.14622 0.858213 5.53261 1.27733L4.30376 2.11668L3.11434 1.84864C2.60928 1.73483 2.15656 2.22957 2.22243 2.82328L2.29464 3.47399L1.88528 5.71502L0.453887 6.7412C0.0719382 7.01502 -0.0949635 7.56001 0.0542131 8.05236C0.164886 8.41766 0.312279 9.33166 0.473589 10.2764C0.619166 11.1291 1.63475 11.2229 1.89333 10.4074L2.3254 9.04457L2.71142 8.73621C3.03005 8.48167 3.45838 8.52192 3.73777 8.83267L4.44325 9.61726L5.59472 9.51171L7.67497 9.83112L8.4115 11.739C8.4869 11.9343 8.62362 12.0886 8.79364 12.1705L10.3627 12.9256C10.5253 13.0039 10.707 13.0102 10.8735 12.9434L12.4196 12.3223L13.3117 13.1774L15.5642 13.7346C15.814 13.7964 16.0647 13.6346 16.152 13.3553L16.8069 11.2605L17.9287 12.4652L19.3755 12.5791L19.0234 14.0089C18.9431 14.335 19.0539 14.6841 19.2972 14.8712C19.6286 15.1259 20.0768 14.9896 20.2587 14.5787L21.203 12.4456L20.2543 10.0638L18.8902 9.72637L18.96 8.42608L19.8928 7.68089L20.222 5.42L21.0007 7.12537L21.3778 7.91989C21.6056 8.39984 22.1216 8.57931 22.5384 8.32356C22.9204 8.08915 23.0953 7.56278 22.9481 7.09031Z" fill="#C0B9B4"/>
</svg>
