<svg width="21" height="21" viewBox="0 0 21 21" fill="none" xmlns="http://www.w3.org/2000/svg">
<path fill-rule="evenodd" clip-rule="evenodd" d="M0 8.47524C0 3.78398 4.71383 0 10.5 0C16.2862 0 20.9777 3.78398 21 8.47524C21 8.58588 20.9553 8.69652 20.866 8.78504L14.0074 16.0211C13.8511 15.7555 13.6277 15.5342 13.3596 15.3793L19.9947 8.38672C19.883 7.92202 18.833 7.30242 17.1798 7.30242C15.4149 7.30242 14.4543 7.87777 14.2979 8.45311L12.2202 15.0917H11.2596L13.2926 8.58588C13.3149 8.47524 13.3149 8.32034 13.2479 8.20969C12.9574 7.78925 11.9745 7.30242 10.5223 7.30242C9.02553 7.30242 8.02021 7.78925 7.75213 8.23182C7.70745 8.34247 7.70745 8.47524 7.75213 8.58588L9.78511 15.0917H8.80213L6.72447 8.45311C6.56809 7.94415 5.60745 7.30242 3.86489 7.30242C2.2117 7.30242 1.1617 7.92202 1.05 8.38672L7.64043 15.3793C7.37234 15.5342 7.14894 15.7555 6.99255 16.0211L0.134043 8.78504C0.0446808 8.69652 0 8.58588 0 8.47524ZM7.66277 16.9726C7.66277 16.4415 8.08723 16.0211 8.6234 16.0211H12.3766C12.9128 16.0211 13.3596 16.4636 13.3596 16.9947V20.0485C13.3596 20.5796 12.9351 21 12.3989 21H8.6234C8.08723 21 7.66277 20.5796 7.66277 20.0485V16.9726Z" fill="#C0B9B4"/>
</svg>
