<svg width="25" height="25" viewBox="0 0 25 25" fill="none" xmlns="http://www.w3.org/2000/svg">
<path fill-rule="evenodd" clip-rule="evenodd" d="M25 21.9754C25 19.9659 23.6322 18.2145 21.6832 17.7276L16.8939 16.5307L16.9003 15.9201C16.9058 15.3717 17.1336 14.8255 17.5488 14.3706C18.9158 12.8723 19.5824 11.4283 19.7988 9.74905C19.8802 9.11775 19.8955 8.63835 19.8955 7.55463C19.8955 3.41088 16.6347 0.0755176 12.5246 0C8.36548 0.0755142 5.10451 3.41069 5.10451 7.55362C5.10451 8.63733 5.11978 9.11674 5.20116 9.74804C5.41762 11.4273 6.08425 12.8713 7.45117 14.3695C7.86637 14.8245 8.09421 15.3707 8.0997 15.9184L8.10614 16.5297L3.31674 17.7266C1.3673 18.215 0 19.9663 0 21.9754V23.6607C0 24.4004 0.599619 25 1.33929 25H23.6607C24.4004 25 25 24.4004 25 23.6607V21.9754ZM14.2381 15.9246L14.2288 16.7996C14.217 17.8993 10.783 17.8974 10.7712 16.7981L10.7619 15.9229C10.7495 14.6853 10.2558 13.5017 9.40097 12.5649C8.39648 11.4639 7.96175 10.5223 7.81409 9.37678C7.7517 8.89272 7.73872 8.48547 7.73872 7.50743C7.73872 4.79702 9.85238 2.63531 12.5248 2.58621C15.1477 2.63531 17.2613 4.79715 17.2613 7.50845C17.2613 8.4865 17.2483 8.89375 17.1859 9.3778C17.0382 10.5233 16.6035 11.465 15.599 12.566C14.7442 13.5027 14.2505 14.6863 14.2381 15.9246Z" fill="#C0B9B4"/>
</svg>
