<svg width="19" height="15" viewBox="0 0 19 15" fill="none" xmlns="http://www.w3.org/2000/svg">
<path fill-rule="evenodd" clip-rule="evenodd" d="M10.2917 9.68144V5.31856C10.2917 4.01052 11.355 2.95014 12.6667 2.95014H19V2.36842C19 1.06038 17.9367 0 16.625 0H2.375C1.06332 0 0 1.06038 0 2.36842V12.6316C0 13.9396 1.06332 15 2.375 15H16.625C17.9367 15 19 13.9396 19 12.6316V12.0499H12.6667C11.355 12.0499 10.2917 10.9895 10.2917 9.68144ZM18.2083 4.52909H12.6667C12.2294 4.52909 11.875 4.88254 11.875 5.31856V9.68144C11.875 10.1175 12.2294 10.4709 12.6667 10.4709H18.2083C18.6456 10.4709 19 10.1175 19 9.68144V5.31856C19 4.88254 18.6456 4.52909 18.2083 4.52909ZM14.6458 8.68421C13.99 8.68421 13.4583 8.15402 13.4583 7.5C13.4583 6.84598 13.99 6.31579 14.6458 6.31579C15.3017 6.31579 15.8333 6.84598 15.8333 7.5C15.8333 8.15402 15.3017 8.68421 14.6458 8.68421Z" fill="#C0B9B4"/>
</svg>
