<svg width="42" height="14" viewBox="0 0 42 14" fill="none" xmlns="http://www.w3.org/2000/svg">
<path fill-rule="evenodd" clip-rule="evenodd" d="M12.5738 0.0866873L8.99376 9.01548L7.50936 1.387C7.33472 0.520124 6.63617 0.0866873 5.93763 0.0866873H0.0873181L0 0.433437C1.22245 0.693498 2.53222 1.12694 3.40541 1.56037C3.92931 1.82043 4.01663 2.0805 4.19127 2.68731L6.89813 13.1765H10.5655L16.1538 0H12.5738V0.0866873ZM17.1298 0L14.5385 13.1765H17.6795L20.1923 0H17.1298ZM36.4615 0H39.4038L42 13.1765H38.8846L38.4519 11.1827H34.125L33.4327 13.1765H29.8846L34.9904 0.95356C35.25 0.346749 35.7692 0 36.4615 0ZM35.25 8.49536L37.0673 3.55418L38.1058 8.49536H35.25ZM26.6673 2.87179C25.6173 3.05128 25.1798 3.58974 25.1798 4.03846C25.1438 4.70264 25.951 5.13926 26.9141 5.66019C28.2933 6.40624 29.9923 7.32524 29.9923 9.33333C29.9923 12.2051 27.6298 14 24.0423 14C22.4673 14 20.9798 13.641 20.1923 13.2821L20.8048 10.3205C21.5923 10.7692 22.5548 11.2179 24.3048 11.2179C25.3548 11.2179 26.4048 10.7692 26.4048 9.87179C26.4048 9.24359 25.9673 8.79487 24.6548 8.16667C23.4298 7.53846 21.6798 6.46154 21.6798 4.48718C21.6798 1.88462 24.0423 0 27.4548 0C28.7673 0 29.9048 0.358974 30.6923 0.628205L30.0798 3.5C28.5048 2.78205 27.1923 2.78205 26.6673 2.87179Z" fill="#5EB8F4"/>
</svg>
