<svg width="23" height="23" viewBox="0 0 23 23" fill="none" xmlns="http://www.w3.org/2000/svg">
<path fill-rule="evenodd" clip-rule="evenodd" d="M15.824 17.4591C14.1465 18.9689 11.9585 19.8823 9.56531 19.8823C4.28253 19.8823 0 15.4315 0 9.94116C0 4.45081 4.28253 0 9.56531 0C14.8481 0 19.1306 4.45081 19.1306 9.94116C19.1306 11.965 18.5487 13.8476 17.5493 15.418L23 21.0829L21.1554 23L15.824 17.4591ZM16.5219 9.94116C16.5219 13.9341 13.4073 17.1711 9.56531 17.1711C5.72329 17.1711 2.60872 13.9341 2.60872 9.94116C2.60872 5.94818 5.72329 2.71123 9.56531 2.71123C13.4073 2.71123 16.5219 5.94818 16.5219 9.94116Z" fill="black"/>
</svg>
