<svg width="24" height="14" viewBox="0 0 24 14" fill="none" xmlns="http://www.w3.org/2000/svg">
<path d="M23.0583 0.615061H19.1637C18.8398 0.615059 18.5422 0.798125 18.389 1.09152C18.389 1.09152 16.8357 4.03247 16.3368 5.02304C14.9945 7.68778 14.1253 6.85123 14.1253 5.61449V1.35022C14.1253 0.608191 13.5402 0.00665497 12.8184 0.00665497H9.8902C9.0794 -0.0553212 8.2952 0.318775 7.81773 0.995315C7.81773 0.995315 9.30463 0.748156 9.30463 2.80785C9.30463 3.3186 9.33022 4.78789 9.35353 6.02024C9.36254 6.39221 9.14491 6.73047 8.80843 6.86751C8.47195 7.00455 8.08804 6.91128 7.84682 6.63389C6.64827 4.92012 5.65546 3.06377 4.88998 1.10519C4.75573 0.806008 4.46432 0.614582 4.14383 0.615061C3.29922 0.615061 1.60908 0.615061 0.605359 0.615061C0.407784 0.613679 0.222158 0.712177 0.108802 0.878547C-0.0045535 1.04492 -0.0311698 1.25792 0.0376025 1.44835C1.11205 4.47828 5.74045 14 11.0233 14H13.2468C13.732 14 14.1253 13.5957 14.1253 13.0969V11.7166C14.1253 11.3627 14.3298 11.0426 14.6458 10.9021C14.9617 10.7616 15.3287 10.8275 15.5795 11.0698L18.241 13.6406C18.48 13.8715 18.7956 14 19.1236 14H22.6185C24.3041 14 24.3041 12.7975 23.3851 11.867C22.7383 11.2121 20.4044 8.68305 20.4044 8.68305C19.9915 8.24323 19.9521 7.55954 20.3117 7.07269C21.0661 6.05207 22.3 4.3814 22.8233 3.6657C23.5385 2.68745 24.8331 0.615061 23.0583 0.615061Z" fill="#4F7FFF"/>
</svg>
