<svg width="149" height="59" viewBox="0 0 149 59" fill="none" xmlns="http://www.w3.org/2000/svg">
<path fill-rule="evenodd" clip-rule="evenodd" d="M141.549 13.0678C141.861 13.1976 142.333 13.3943 142.614 13.5431C143.438 13.9781 143.941 14.7111 144.292 15.5541C145.543 18.5551 148.632 25.9901 148.946 26.7471H140.582C140.097 25.4541 137.558 18.6851 136.785 16.5861C136.693 16.3351 136.583 16.2361 136.3 16.2411C135.18 16.2611 129.561 16.2491 129.561 16.2491V26.7361H122.427V0.0370601H129.538V10.4111C129.538 10.4111 135.254 10.4261 136.442 10.4401C136.69 10.4431 136.792 10.3641 136.872 10.1341C137.404 8.61073 137.939 7.0885 138.473 5.56634L138.474 5.56509L138.474 5.56365L138.475 5.56231L138.475 5.56142L138.475 5.56072L138.476 5.56038C139.082 3.83402 139.689 2.10775 140.291 0.38006C140.387 0.10606 140.5 -0.00293986 140.813 6.01411e-05C142.64 0.0129387 144.467 0.0114697 146.294 0.0100005C146.878 0.00953034 147.463 0.00906014 148.048 0.00906014H148.412C148.406 0.0640601 145.537 6.96006 144.079 10.3571C143.532 11.6291 142.632 12.5661 141.239 12.9311C141.228 12.9337 141.358 12.9882 141.549 13.0678ZM55.9311 15.35C56.6381 14.585 56.8721 13.654 56.8701 12.636C56.8663 11.1777 56.8666 9.71918 56.8669 8.26066C56.8672 7.01068 56.8674 5.76071 56.8651 4.51096C56.8641 4.19196 56.8561 3.86796 56.8031 3.55496C56.4381 1.37496 54.8171 0.0139601 52.5611 0.0109601C46.7781 0.00396014 31.9171 0.0289601 31.9171 0.0289601V26.731H39.0511V5.79296H49.6971V12.232H43.3361C43.3361 12.232 43.3181 13.019 43.3431 13.382C43.3571 13.589 43.3991 13.815 43.5001 13.993C45.8731 18.159 50.6321 26.484 50.6321 26.484L51.1111 26.763L58.2451 26.757L52.2101 16.327C52.2101 16.327 53.2521 16.337 53.7401 16.325C54.6031 16.304 55.3431 15.987 55.9311 15.35ZM80.9527 20.9717H69.8507V0.0236601H62.7577C62.7577 0.0236601 62.7447 15.0667 62.7567 22.4837C62.7577 22.9237 62.8257 23.3767 62.9457 23.7987C63.4777 25.6637 65.0067 26.7537 67.0677 26.7557C72.9657 26.7597 88.0897 26.7407 88.0897 26.7407V0.0276601H80.9527V20.9717ZM68.8141 47.5147H82.2401V42.7017H68.8121V37.6427L84.8731 37.6477C84.8731 37.6477 85.2131 37.5997 85.3001 37.3727C85.7788 36.1248 86.2658 34.8801 86.7529 33.6351C86.9435 33.148 87.134 32.661 87.3241 32.1737C87.3581 32.0847 87.4141 31.8867 87.4141 31.8867H61.6731V58.6247L84.9091 58.6297C85.1341 58.6307 85.2971 58.3517 85.2971 58.3517L87.4191 52.8377H68.8141V47.5147ZM115.676 5.78456C112.624 5.76856 100.277 5.77556 100.277 5.77556V20.9876H118.339L116.246 26.4636L115.801 26.7626C115.801 26.7626 101.729 26.7576 97.603 26.7566C94.832 26.7566 93.106 25.0396 93.104 22.2676C93.099 16.7696 93.091 4.44656 93.152 3.78856C93.352 1.62356 95.011 0.0825601 97.186 0.0175601C97.837 -0.00243986 118.338 0.00856014 118.338 0.00856014C118.338 0.00856014 116.816 3.93956 116.288 5.37356C116.169 5.69856 116.015 5.78656 115.676 5.78456ZM4.089 0.31816L0 5.79016H10.607V26.7422H17.756V5.75316H27.181V0.0231601C27.06 0.0181601 4.523 0.00216014 4.523 0.00216014L4.089 0.31816ZM29.7084 37.6575L33.7974 32.1855L34.2314 31.8695L56.8894 31.8905V37.6205H47.4644V58.6095H40.3154V37.6575H29.7084ZM140.993 42.3836H129.781V32.0516H122.746V58.4706H129.801V48.1326H140.997V58.4656H148.048V32.0416H140.993V42.3836ZM99.9833 37.729H99.5623V52.781H116.971C116.796 53.237 116.639 53.646 116.482 54.054C116.345 54.412 116.208 54.77 116.07 55.128C115.677 56.1505 115.284 57.1731 114.9 58.199C114.814 58.429 114.701 58.498 114.461 58.497C111.46 58.4911 105.597 58.4911 101.08 58.4912C99.4519 58.4912 97.9988 58.4912 96.9173 58.491C94.1743 58.491 92.4653 56.793 92.4633 54.05C92.4583 48.712 92.4603 43.374 92.4633 38.036C92.4635 37.9016 92.4631 37.7672 92.4627 37.6327C92.461 36.9975 92.4592 36.3615 92.5153 35.731C92.7013 33.647 94.3363 32.118 96.4333 32.034C96.8677 32.0162 97.3032 32.0187 97.7386 32.0212C97.8915 32.0221 98.0444 32.023 98.1973 32.023C101.249 32.0223 106.914 32.0225 111.52 32.0228C113.47 32.0229 115.23 32.023 116.521 32.023H116.96C116.943 32.0731 116.927 32.119 116.912 32.1623C116.888 32.2346 116.866 32.2995 116.841 32.364C116.672 32.807 116.501 33.25 116.331 33.693C115.854 34.9359 115.376 36.179 114.907 37.425C114.815 37.669 114.692 37.736 114.439 37.735C111.904 37.7275 105.721 37.7283 101.947 37.7288C101.174 37.7289 100.502 37.729 99.9833 37.729Z" fill="white"/>
</svg>
