<svg width="62" height="62" viewBox="0 0 62 62" fill="none" xmlns="http://www.w3.org/2000/svg">
<g clip-path="url(#clip0_168_18)">
<path fill-rule="evenodd" clip-rule="evenodd" d="M0 26.3038L26.3038 0L61.3256 0L0 61.3256L0 26.3038Z" fill="#1858C0"/>
<path d="M9.98134 26.5555L13.9312 27.2386L13.2482 23.2887L14.7529 21.784L15.7528 27.4366L21.8706 28.5255L20.3461 30.05L16.02 29.3274L16.7526 33.6436L15.2677 35.1285L14.2183 29.07L8.49642 28.0404L9.98134 26.5555ZM17.4418 22.3817L18.6792 21.1443L22.1638 24.6289L21.5996 18.2239L22.7281 17.0954L28.0144 22.3817L26.777 23.6192L23.2924 20.1345L23.8665 26.5296L22.7281 27.6681L17.4418 22.3817ZM29.6295 12.2927L27.7783 14.1439L32.0153 18.3809L30.7779 19.6183L26.5409 15.3813L24.6798 17.2424L23.6304 16.1931L28.5802 11.2433L29.6295 12.2927Z" fill="white"/>
</g>
<defs>
<clipPath id="clip0_168_18">
<rect width="61.3256" height="61.3256" fill="white" transform="matrix(0 -1 1 0 0 61.3252)"/>
</clipPath>
</defs>
</svg>
