<svg width="62" height="62" viewBox="0 0 62 62" fill="none" xmlns="http://www.w3.org/2000/svg">
<g clip-path="url(#clip0_0_3795)">
<path fill-rule="evenodd" clip-rule="evenodd" d="M0 26.3039L26.3038 0.000106812L61.3256 0.000106812L0 61.3257L0 26.3039Z" fill="#CF1235"/>
<path d="M4.8585 33.5378L5.96158 32.4347L11.9013 38.3744L10.7982 39.4775L4.8585 33.5378ZM7.72652 42.5491L6.62344 43.6522L0.683739 37.7125L1.78683 36.6094L7.72652 42.5491ZM8.33746 36.847L5.0876 40.0969L4.14573 39.155L7.3956 35.9051L8.33746 36.847ZM15.5275 34.8669C15.0637 35.3308 14.5517 35.6447 13.9917 35.8088C13.426 35.9672 12.8632 35.9756 12.3031 35.8342C11.7431 35.6928 11.2396 35.3986 10.7928 34.9517C10.3402 34.4992 10.0461 33.9957 9.91029 33.4414C9.76887 32.8813 9.78018 32.3213 9.94423 31.7613C10.1083 31.2013 10.4222 30.6893 10.8861 30.2254C11.3556 29.7559 11.8704 29.4391 12.4304 29.2751C12.9961 29.1054 13.5533 29.0912 14.102 29.2327C14.6564 29.3684 15.1627 29.6654 15.6209 30.1236C16.0678 30.5705 16.3619 31.074 16.5034 31.634C16.6504 32.1884 16.6419 32.7512 16.4779 33.3226C16.3138 33.8826 15.9971 34.3974 15.5275 34.8669ZM14.6196 33.959C14.8798 33.6988 15.0552 33.4103 15.1457 33.0935C15.2362 32.7767 15.2306 32.4542 15.1287 32.1261C15.0326 31.7924 14.8402 31.4813 14.5517 31.1928C14.2576 30.8986 13.9465 30.7063 13.6184 30.6158C13.2903 30.5139 12.9678 30.5083 12.651 30.5988C12.3343 30.6893 12.0486 30.8618 11.794 31.1164C11.5338 31.3766 11.3584 31.6651 11.2679 31.9819C11.1831 32.293 11.1887 32.6155 11.2849 32.9492C11.3754 33.2773 11.5677 33.5884 11.8619 33.8826C12.1504 34.1711 12.4615 34.3634 12.7953 34.4596C13.129 34.5558 13.4515 34.5614 13.7626 34.4766C14.0794 34.3861 14.3651 34.2135 14.6196 33.959ZM18.9343 31.3414L14.4031 26.8103L16.6178 24.5956C17.1665 24.0469 17.6982 23.7188 18.213 23.6113C18.7334 23.4982 19.1803 23.6283 19.5537 24.0016C19.9214 24.3693 20.0628 24.8049 19.9779 25.3084C19.8874 25.8062 19.5989 26.2983 19.1124 26.7848L18.9767 26.3945C19.5254 25.8458 20.0345 25.5403 20.504 25.4781C20.9735 25.4045 21.4006 25.5601 21.7853 25.9448C22.1869 26.3464 22.351 26.8103 22.2775 27.3363C22.1983 27.8568 21.8532 28.4225 21.2422 29.0334L18.9343 31.3414ZM19.1718 29.5595L20.3852 28.3461C20.6737 28.0576 20.8463 27.7945 20.9028 27.557C20.9538 27.3137 20.883 27.0959 20.6907 26.9036C20.4871 26.6999 20.2693 26.6179 20.0373 26.6575C19.8054 26.6971 19.5452 26.8612 19.2567 27.1497L18.0094 28.397L19.1718 29.5595ZM17.3051 27.6927L18.4167 26.5812C18.6882 26.3096 18.8437 26.0579 18.8833 25.826C18.9229 25.5827 18.8522 25.3706 18.6712 25.1896C18.4845 25.0029 18.2752 24.935 18.0433 24.9859C17.817 25.0312 17.5681 25.1896 17.2966 25.4611L16.185 26.5727L17.3051 27.6927ZM24.1878 26.0878L19.6567 21.5567L20.7174 20.496L23.7042 23.4828L23.2205 17.9929L24.1878 17.0255L28.719 21.5567L27.6583 22.6173L24.6715 19.6305L25.1636 25.112L24.1878 26.0878ZM30.1458 20.1299L25.6146 15.5987L26.6753 14.5381L28.5166 16.3794L30.7991 14.0968L28.9578 12.2555L30.0185 11.1949L34.5496 15.726L33.489 16.7867L31.6986 14.9963L29.416 17.2788L31.2064 19.0692L30.1458 20.1299ZM39.221 11.0547L35.4111 10.5201L35.742 9.12003L40.4683 9.80734L39.221 11.0547ZM35.9711 14.3045L31.44 9.7734L32.5006 8.71274L37.0318 13.2439L35.9711 14.3045ZM34.902 11.742L34.0195 10.8595L35.5553 9.32368L36.4378 10.2061L34.902 11.742ZM36.4123 9.58672L35.3008 10.4607L34.6898 6.52354L35.8269 5.38651L36.4123 9.58672ZM43.8828 6.39288L42.9664 5.47647L42.7118 5.3407L41.1081 3.73698C40.797 3.42586 40.4632 3.27878 40.1068 3.29575C39.7448 3.30706 39.3743 3.50222 38.9952 3.88123C38.7407 4.13579 38.5286 4.42712 38.3589 4.75522C38.1948 5.07766 38.0986 5.39444 38.0704 5.70557L36.8824 5.34919C36.939 4.91927 37.0889 4.49217 37.3321 4.06791C37.5754 3.63233 37.878 3.23352 38.2401 2.87148C38.8963 2.21529 39.5609 1.86739 40.2341 1.8278C40.9073 1.77688 41.5719 2.07953 42.2281 2.73572L44.884 5.39161L43.8828 6.39288ZM42.5166 7.8778C42.1772 8.21721 41.8237 8.45763 41.456 8.59905C41.0826 8.73481 40.7234 8.77158 40.3783 8.70936C40.0333 8.63582 39.7306 8.46894 39.4704 8.20873C39.2159 7.95417 39.0462 7.66567 38.9613 7.34323C38.8821 7.01513 38.9217 6.65309 39.0801 6.25711C39.2385 5.86113 39.5468 5.43404 40.005 4.97583L41.3202 3.66062L42.0245 4.36489L40.7856 5.60375C40.4236 5.96578 40.2398 6.26843 40.2341 6.51167C40.2228 6.74926 40.302 6.95291 40.4717 7.12261C40.664 7.31494 40.8931 7.39131 41.159 7.35171C41.4249 7.31212 41.6936 7.15655 41.9651 6.88502C42.2253 6.62481 42.3978 6.33348 42.4827 6.01104C42.5732 5.68294 42.5478 5.35767 42.4063 5.03523L43.2209 5.49344C43.385 5.86113 43.4076 6.25146 43.2888 6.66441C43.1757 7.0717 42.9183 7.47616 42.5166 7.8778Z" fill="white"/>
</g>
<defs>
<clipPath id="clip0_0_3795">
<rect width="61.3256" height="61.3256" fill="white" transform="matrix(0 -1 1 0 0 61.3257)"/>
</clipPath>
</defs>
</svg>
