<svg width="149" height="59" viewBox="0 0 149 59" fill="none" xmlns="http://www.w3.org/2000/svg">
<path fill-rule="evenodd" clip-rule="evenodd" d="M142.613 13.5431C143.437 13.9781 143.94 14.7111 144.291 15.5541C145.542 18.5551 148.631 25.9901 148.945 26.7471H140.581C140.096 25.4541 137.557 18.6851 136.784 16.5861C136.692 16.3351 136.582 16.2361 136.299 16.2411C135.179 16.2611 129.56 16.2491 129.56 16.2491V26.7361H122.426V0.0371179H129.537V10.4111C129.537 10.4111 135.253 10.4261 136.441 10.4401C136.689 10.4431 136.791 10.3641 136.871 10.1341C137.403 8.61078 137.938 7.08854 138.473 5.56637L138.473 5.5653L138.474 5.56405L138.474 5.56261L138.475 5.56136L138.475 5.5602L138.476 5.55886C139.082 3.83302 139.688 2.10727 140.29 0.380118C140.386 0.106118 140.499 -0.00288207 140.812 0.000117928C142.64 0.0129965 144.466 0.0115275 146.293 0.0100583C146.878 0.00958813 147.463 0.00911793 148.047 0.00911793H148.411C148.405 0.0641179 145.536 6.96012 144.078 10.3571C143.531 11.6291 142.631 12.5661 141.238 12.9311C141.227 12.9338 141.358 12.9882 141.549 13.0679C141.86 13.1977 142.332 13.3944 142.613 13.5431ZM53.7396 16.325C54.6026 16.304 55.3426 15.987 55.9306 15.35C56.6376 14.585 56.8716 13.654 56.8696 12.636C56.8658 11.1778 56.8661 9.71923 56.8664 8.26072C56.8667 7.01074 56.8669 5.76077 56.8646 4.51102C56.8636 4.19202 56.8556 3.86802 56.8026 3.55502C56.4376 1.37502 54.8166 0.0140179 52.5606 0.0110179C46.7776 0.00401793 31.9166 0.0290179 31.9166 0.0290179V26.731H39.0506V5.79302H49.6966V12.232H43.3356C43.3356 12.232 43.3176 13.019 43.3426 13.382C43.3566 13.589 43.3986 13.815 43.4996 13.993C45.8726 18.159 50.6316 26.484 50.6316 26.484L51.1106 26.763L58.2446 26.757L52.2096 16.327C52.2096 16.327 53.2516 16.337 53.7396 16.325ZM80.9522 20.9717H69.8502V0.0237179H62.7572C62.7572 0.0237179 62.7442 15.0667 62.7562 22.4837C62.7572 22.9237 62.8252 23.3767 62.9452 23.7987C63.4772 25.6637 65.0062 26.7537 67.0672 26.7557C72.9652 26.7597 88.0892 26.7407 88.0892 26.7407V0.0277179H80.9522V20.9717ZM39.1052 47.5147H52.5312V42.7017H39.1032V37.6427L55.1642 37.6477C55.1642 37.6477 55.5042 37.5997 55.5912 37.3727C56.0699 36.1249 56.5569 34.8801 57.044 33.6351L57.044 33.6351L57.0441 33.635L57.0441 33.635L57.0441 33.6349L57.0441 33.6348C57.2346 33.1479 57.4252 32.6609 57.6152 32.1737C57.6492 32.0847 57.7052 31.8867 57.7052 31.8867H31.9642V58.6247L55.2002 58.6297C55.4252 58.6307 55.5882 58.3517 55.5882 58.3517L57.7102 52.8377H39.1052V47.5147ZM115.676 5.78462C112.624 5.76862 100.277 5.77562 100.277 5.77562V20.9876H118.339L116.246 26.4636L115.801 26.7626C115.801 26.7626 101.729 26.7576 97.6025 26.7566C94.8315 26.7566 93.1055 25.0396 93.1035 22.2676C93.0985 16.7696 93.0905 4.44662 93.1515 3.78862C93.3515 1.62362 95.0105 0.0826179 97.1855 0.0176179C97.8365 -0.00238207 118.338 0.00861793 118.338 0.00861793C118.338 0.00861793 116.816 3.93962 116.288 5.37362C116.169 5.69862 116.015 5.78662 115.676 5.78462ZM4.08851 0.318218L-0.000488281 5.79022H10.6065V26.7422H17.7555V5.75322H27.1805V0.0232179C27.0595 0.0182179 4.52251 0.00221793 4.52251 0.00221793L4.08851 0.318218ZM-0.000488281 37.6575L4.08851 32.1855L4.52251 31.8695L27.1805 31.8905V37.6205H17.7555V58.6095H10.6065V37.6575H-0.000488281ZM111.284 42.3836H100.072V32.0516H93.037V58.4706H100.092V48.1326H111.288V58.4656H118.339V32.0416H111.284V42.3836ZM70.2744 37.729H69.8534V52.781H87.2624C87.0874 53.237 86.9304 53.646 86.7734 54.054C86.6361 54.4124 86.4984 54.7707 86.3607 55.1289C85.9679 56.1512 85.575 57.1734 85.1914 58.199C85.1054 58.429 84.9924 58.498 84.7524 58.497C81.7509 58.4911 75.8881 58.4912 71.3708 58.4912C69.743 58.4913 68.2899 58.4913 67.2084 58.491C64.4654 58.491 62.7564 56.793 62.7544 54.05C62.7494 48.712 62.7514 43.374 62.7544 38.036C62.7546 37.9016 62.7542 37.7671 62.7538 37.6326C62.7521 36.9974 62.7503 36.3615 62.8064 35.731C62.9924 33.647 64.6274 32.118 66.7244 32.034C67.1588 32.0163 67.5943 32.0188 68.0297 32.0213C68.1826 32.0221 68.3356 32.023 68.4884 32.023C71.5398 32.0223 77.2052 32.0226 81.8114 32.0228C83.761 32.0229 85.5208 32.023 86.8124 32.023H87.2514C87.2338 32.0732 87.2182 32.1191 87.2035 32.1624C87.1789 32.2348 87.1568 32.2996 87.1324 32.364C86.9628 32.8067 86.7928 33.2492 86.6228 33.6919C86.1452 34.9351 85.6674 36.1787 85.1984 37.425C85.1064 37.669 84.9834 37.736 84.7304 37.735C82.1953 37.7276 76.0125 37.7283 72.2378 37.7288C71.4651 37.7289 70.7933 37.729 70.2744 37.729Z" fill="#E12A4C"/>
</svg>
