<svg width="92" height="57" viewBox="0 0 92 57" fill="none" xmlns="http://www.w3.org/2000/svg">
<g clip-path="url(#clip0_139_6909)">
<path fill-rule="evenodd" clip-rule="evenodd" d="M68 21.3216C68 25.302 66.9002 29.0276 64.9855 32.2158H65.0216L64.8338 32.4647C64.1414 33.5827 63.3479 34.6325 62.4661 35.6016L46.3145 57L30.4911 35.5544C27.0768 31.78 25 26.7914 25 21.3216C25 9.54603 34.6259 0 46.5 0C58.3741 0 68 9.54603 68 21.3216ZM46.5 30.2057C51.4475 30.2057 55.4583 26.2282 55.4583 21.3216C55.4583 16.4151 51.4475 12.4376 46.5 12.4376C41.5525 12.4376 37.5417 16.4151 37.5417 21.3216C37.5417 26.2282 41.5525 30.2057 46.5 30.2057Z" fill="#E12A4C"/>
<g filter="url(#filter0_d_139_6909)">
<path fill-rule="evenodd" clip-rule="evenodd" d="M47.8991 7.08861H91.206C91.6443 7.08861 92 7.44323 92 7.88017V23.7114C92 24.1483 91.6443 24.503 91.206 24.503H61.584C59.8067 30.5398 53.5431 35 46.089 35C38.6348 35 32.3712 30.5398 30.5939 24.503H0.794014C0.355718 24.503 0 24.1483 0 23.7114V7.88017C0 7.44323 0.355718 7.08861 0.794014 7.08861H44.2788C44.8729 7.03007 45.4769 7 46.089 7C46.701 7 47.305 7.03007 47.8991 7.08861Z" fill="url(#paint0_linear_139_6909)"/>
<path fill-rule="evenodd" clip-rule="evenodd" d="M21.3004 14.4652H20.1242V17.1343H18.9661V10.8008H20.1242V13.4518H21.3366L23.1552 10.8008H24.4039L22.2414 13.868L24.4853 17.1343H23.1552L21.3004 14.4652ZM10.2439 12.3027L7.98193 17.5234C7.77082 18.0481 7.51446 18.4176 7.21286 18.6317C6.91127 18.8459 6.54633 18.9529 6.11807 18.9529C5.87679 18.9529 5.63853 18.9137 5.40328 18.8353C5.16804 18.7569 4.97502 18.6483 4.82422 18.5096L5.27661 17.6772C5.38519 17.7797 5.51337 17.8612 5.66115 17.9215C5.80893 17.9818 5.95822 18.012 6.10902 18.012C6.30807 18.012 6.47244 17.9607 6.60213 17.8581C6.73182 17.7556 6.85095 17.5837 6.95952 17.3424L7.04095 17.1524L4.93279 12.3027H6.10902L7.62907 15.8766L9.15816 12.3027H10.2439ZM15.1117 12.3027V17.1343H13.9807V13.2618H12.1711L12.1259 14.2209C12.0957 14.8603 12.0369 15.3956 11.9494 15.8269C11.862 16.2582 11.7142 16.599 11.5061 16.8493C11.298 17.0996 11.013 17.2248 10.6511 17.2248C10.4822 17.2248 10.2741 17.1916 10.0268 17.1253L10.081 16.1752C10.1655 16.1933 10.2379 16.2024 10.2982 16.2024C10.5274 16.2024 10.6993 16.1104 10.8139 15.9264C10.9285 15.7424 11.0024 15.5223 11.0356 15.2659C11.0688 15.0096 11.0974 14.6431 11.1216 14.1666L11.203 12.3027H15.1117ZM16.4508 16.985C16.5955 17.1268 16.7705 17.1976 16.9755 17.1976C17.1806 17.1976 17.3555 17.1268 17.5003 16.985C17.6451 16.8433 17.7175 16.6638 17.7175 16.4467C17.7175 16.2235 17.6466 16.0425 17.5048 15.9038C17.3631 15.7651 17.1867 15.6957 16.9755 15.6957C16.7644 15.6957 16.588 15.7651 16.4462 15.9038C16.3045 16.0425 16.2336 16.2235 16.2336 16.4467C16.2336 16.6638 16.306 16.8433 16.4508 16.985ZM27.0187 12.2484C27.7305 12.2484 28.2748 12.4188 28.6518 12.7596C29.0288 13.1005 29.2173 13.6147 29.2173 14.3023V17.1343H28.1497V16.5462C28.011 16.7573 27.8134 16.9187 27.557 17.0303C27.3007 17.1418 26.9916 17.1976 26.6296 17.1976C26.2677 17.1976 25.951 17.1358 25.6796 17.0122C25.4082 16.8885 25.1986 16.7166 25.0508 16.4964C24.903 16.2763 24.8291 16.0274 24.8291 15.75C24.8291 15.3157 24.9905 14.9673 25.3132 14.7049C25.6359 14.4426 26.1441 14.3114 26.8377 14.3114H28.0863V14.239C28.0863 13.9012 27.9853 13.6418 27.7832 13.4609C27.5812 13.2799 27.2811 13.1894 26.883 13.1894C26.6115 13.1894 26.3446 13.2316 26.0822 13.3161C25.8199 13.4005 25.5982 13.5182 25.4172 13.669L24.9739 12.8456C25.2272 12.6526 25.5318 12.5048 25.8877 12.4023C26.2436 12.2997 26.6206 12.2484 27.0187 12.2484ZM26.8649 16.3743C27.1484 16.3743 27.4002 16.3094 27.6204 16.1798C27.8405 16.0501 27.9959 15.8646 28.0863 15.6233V15.0623H26.9192C26.2677 15.0623 25.942 15.2765 25.942 15.7047C25.942 15.9098 26.0234 16.0727 26.1863 16.1933C26.3492 16.314 26.5754 16.3743 26.8649 16.3743ZM34.5601 12.5561C34.1892 12.351 33.7684 12.2484 33.2979 12.2484C32.9662 12.2484 32.6631 12.3057 32.3886 12.4204C32.1142 12.535 31.8834 12.7069 31.6965 12.9361V12.3027H30.6198V18.8896H31.7507V16.5462C32.1308 16.9805 32.6465 17.1976 33.2979 17.1976C33.7684 17.1976 34.1892 17.0951 34.5601 16.89C34.9311 16.6849 35.2221 16.3939 35.4332 16.0169C35.6444 15.6399 35.7499 15.2071 35.7499 14.7185C35.7499 14.2299 35.6444 13.7986 35.4332 13.4247C35.2221 13.0507 34.9311 12.7612 34.5601 12.5561ZM34.1982 15.8133C33.9298 16.0908 33.5875 16.2295 33.1713 16.2295C32.8998 16.2295 32.6555 16.1677 32.4384 16.044C32.2212 15.9204 32.0493 15.7439 31.9227 15.5147C31.796 15.2855 31.7327 15.0201 31.7327 14.7185C31.7327 14.4169 31.796 14.1515 31.9227 13.9223C32.0493 13.6931 32.2212 13.5167 32.4384 13.393C32.6555 13.2693 32.8998 13.2075 33.1713 13.2075C33.5875 13.2075 33.9298 13.3463 34.1982 13.6237C34.4666 13.9012 34.6008 14.2661 34.6008 14.7185C34.6008 15.1709 34.4666 15.5358 34.1982 15.8133ZM41.9749 16.1752V18.211H40.9163V17.1343H37.1885V18.211H36.139V16.1752H36.3652C36.6728 16.1632 36.8824 15.9656 36.994 15.5826C37.1056 15.1996 37.1795 14.6582 37.2157 13.9585L37.279 12.3027H41.2601V16.1752H41.9749ZM38.2471 14.0399C38.223 14.5949 38.1778 15.0473 38.1114 15.3971C38.0451 15.747 37.9244 16.0063 37.7495 16.1752H40.1291V13.2618H38.2743L38.2471 14.0399ZM46.4219 12.7596C46.0449 12.4188 45.5005 12.2484 44.7888 12.2484C44.3907 12.2484 44.0137 12.2997 43.6578 12.4023C43.3019 12.5048 42.9973 12.6526 42.7439 12.8456L43.1873 13.669C43.3682 13.5182 43.5899 13.4005 43.8523 13.3161C44.1147 13.2316 44.3816 13.1894 44.653 13.1894C45.0512 13.1894 45.3512 13.2799 45.5533 13.4609C45.7554 13.6418 45.8564 13.9012 45.8564 14.239V14.3114H44.6078C43.9141 14.3114 43.4059 14.4426 43.0832 14.7049C42.7605 14.9673 42.5992 15.3157 42.5992 15.75C42.5992 16.0274 42.6731 16.2763 42.8208 16.4964C42.9686 16.7166 43.1782 16.8885 43.4497 17.0122C43.7211 17.1358 44.0378 17.1976 44.3997 17.1976C44.7616 17.1976 45.0708 17.1418 45.3271 17.0303C45.5835 16.9187 45.781 16.7573 45.9197 16.5462V17.1343H46.9874V14.3023C46.9874 13.6147 46.7989 13.1005 46.4219 12.7596ZM45.3904 16.1798C45.1703 16.3094 44.9184 16.3743 44.6349 16.3743C44.3454 16.3743 44.1192 16.314 43.9564 16.1933C43.7935 16.0727 43.7121 15.9098 43.7121 15.7047C43.7121 15.2765 44.0378 15.0623 44.6892 15.0623H45.8564V15.6233C45.7659 15.8646 45.6106 16.0501 45.3904 16.1798ZM51.3575 17.1343H52.4885V12.3027H51.3575V14.4199C50.9715 14.6009 50.5673 14.6914 50.1451 14.6914C49.8134 14.6914 49.557 14.616 49.376 14.4652C49.1951 14.3144 49.1046 14.0852 49.1046 13.7775V12.3027H47.9736V13.8499C47.9736 14.4411 48.1395 14.8799 48.4713 15.1664C48.803 15.4529 49.2795 15.5962 49.9008 15.5962C50.4075 15.5962 50.8931 15.4846 51.3575 15.2614V17.1343ZM54.0086 12.3027H55.1395V15.4876L57.8087 12.3027H58.8401V17.1343H57.7091V13.9494L55.0491 17.1343H54.0086V12.3027ZM61.4912 12.3027H60.3602V17.1343H61.4912V15.2252H63.925V17.1343H65.056V12.3027H63.925V14.2661H61.4912V12.3027ZM68.7747 17.1976C68.2741 17.1976 67.8247 17.0921 67.4266 16.881C67.0285 16.6698 66.7178 16.3758 66.4947 15.9988C66.2715 15.6218 66.1599 15.195 66.1599 14.7185C66.1599 14.242 66.2715 13.8167 66.4947 13.4428C66.7178 13.0688 67.027 12.7762 67.4221 12.5651C67.8172 12.354 68.268 12.2484 68.7747 12.2484C69.2512 12.2484 69.669 12.345 70.0279 12.538C70.3868 12.731 70.6567 13.0085 70.8376 13.3704L69.969 13.8771C69.8303 13.6539 69.6569 13.4865 69.4488 13.3749C69.2407 13.2633 69.013 13.2075 68.7657 13.2075C68.3434 13.2075 67.9936 13.3447 67.7161 13.6192C67.4387 13.8937 67.2999 14.2601 67.2999 14.7185C67.2999 15.1769 67.4371 15.5434 67.7116 15.8178C67.986 16.0923 68.3374 16.2295 68.7657 16.2295C69.013 16.2295 69.2407 16.1737 69.4488 16.0621C69.6569 15.9505 69.8303 15.7832 69.969 15.56L70.8376 16.0667C70.6507 16.4286 70.3777 16.7075 70.0188 16.9036C69.6599 17.0996 69.2452 17.1976 68.7747 17.1976ZM72.9639 15.1981H73.8415L75.2982 17.1343H76.6283L74.7554 14.628L76.5107 12.3027H75.2982L73.8687 14.2571H72.9639V12.3027H71.8329V17.1343H72.9639V15.1981ZM80.7677 12.7596C80.3907 12.4188 79.8463 12.2484 79.1346 12.2484C78.7365 12.2484 78.3595 12.2997 78.0036 12.4023C77.6477 12.5048 77.3431 12.6526 77.0897 12.8456L77.5331 13.669C77.714 13.5182 77.9357 13.4005 78.1981 13.3161C78.4605 13.2316 78.7274 13.1894 78.9988 13.1894C79.3969 13.1894 79.697 13.2799 79.8991 13.4609C80.1012 13.6418 80.2022 13.9012 80.2022 14.239V14.3114H78.9536C78.2599 14.3114 77.7517 14.4426 77.429 14.7049C77.1063 14.9673 76.945 15.3157 76.945 15.75C76.945 16.0274 77.0189 16.2763 77.1666 16.4964C77.3144 16.7166 77.524 16.8885 77.7955 17.0122C78.0669 17.1358 78.3836 17.1976 78.7455 17.1976C79.1074 17.1976 79.4165 17.1418 79.6729 17.0303C79.9293 16.9187 80.1268 16.7573 80.2655 16.5462V17.1343H81.3332V14.3023C81.3332 13.6147 81.1447 13.1005 80.7677 12.7596ZM79.7362 16.1798C79.5161 16.3094 79.2642 16.3743 78.9807 16.3743C78.6912 16.3743 78.465 16.314 78.3022 16.1933C78.1393 16.0727 78.0579 15.9098 78.0579 15.7047C78.0579 15.2765 78.3836 15.0623 79.035 15.0623H80.2022V15.6233C80.1117 15.8646 79.9564 16.0501 79.7362 16.1798ZM84.5995 12.3027H86.8162V17.1343H85.8028V15.6776H84.5271L83.5409 17.1343H82.3285L83.4685 15.5238C83.1186 15.4031 82.8517 15.2177 82.6678 14.9673C82.4838 14.717 82.3918 14.4079 82.3918 14.0399C82.3918 13.485 82.5878 13.0567 82.9799 12.7551C83.372 12.4535 83.9118 12.3027 84.5995 12.3027ZM84.6357 13.2528C83.9058 13.2528 83.5409 13.5272 83.5409 14.0761C83.5409 14.619 83.8937 14.8904 84.5995 14.8904H85.8028V13.2528H84.6357Z" fill="white"/>
<path d="M46.163 28.5695V29.9995H39.455V28.8685L43.069 25.4365C43.4763 25.0465 43.7515 24.7064 43.8945 24.416C44.0375 24.1257 44.109 23.8375 44.109 23.5515C44.109 23.1269 43.966 22.8019 43.68 22.5765C43.394 22.3512 42.9737 22.2385 42.419 22.2385C41.4917 22.2385 40.781 22.5549 40.287 23.1875L39.104 22.2775C39.4593 21.8009 39.9382 21.4304 40.5405 21.166C41.1428 20.9017 41.8167 20.7695 42.562 20.7695C43.55 20.7695 44.3387 21.0035 44.928 21.4715C45.5173 21.9395 45.812 22.5765 45.812 23.3825C45.812 23.8765 45.708 24.3402 45.5 24.7735C45.292 25.2069 44.8933 25.7009 44.304 26.2555L41.873 28.5695H46.163Z" fill="white"/>
<path fill-rule="evenodd" clip-rule="evenodd" d="M53.0399 25.2155C53.5166 25.4322 53.8828 25.7247 54.1384 26.093C54.3941 26.4614 54.5219 26.8925 54.5219 27.3865C54.5219 27.9412 54.3681 28.4265 54.0604 28.8425C53.7528 29.2585 53.3173 29.577 52.7539 29.798C52.1906 30.019 51.5363 30.1295 50.7909 30.1295C50.0456 30.1295 49.3934 30.019 48.8344 29.798C48.2754 29.577 47.8443 29.2585 47.5409 28.8425C47.2376 28.4265 47.0859 27.9412 47.0859 27.3865C47.0859 26.8925 47.2116 26.4614 47.4629 26.093C47.7143 25.7247 48.0739 25.4322 48.5419 25.2155C48.1779 25.0162 47.8984 24.754 47.7034 24.429C47.5084 24.104 47.4109 23.7292 47.4109 23.3045C47.4109 22.7932 47.5518 22.3469 47.8334 21.9655C48.1151 21.5842 48.5116 21.2895 49.0229 21.0815C49.5343 20.8735 50.1236 20.7695 50.7909 20.7695C51.4669 20.7695 52.0606 20.8735 52.5719 21.0815C53.0833 21.2895 53.4819 21.5842 53.7679 21.9655C54.0539 22.3469 54.1969 22.7932 54.1969 23.3045C54.1969 23.7292 54.0973 24.1019 53.8979 24.4225C53.6986 24.7432 53.4126 25.0075 53.0399 25.2155ZM50.7909 22.0955C50.2623 22.0955 49.8441 22.2082 49.5364 22.4335C49.2288 22.6589 49.0749 22.9752 49.0749 23.3825C49.0749 23.7725 49.2288 24.0824 49.5364 24.312C49.8441 24.5417 50.2623 24.6565 50.7909 24.6565C51.3283 24.6565 51.7529 24.5417 52.0649 24.312C52.3769 24.0824 52.5329 23.7725 52.5329 23.3825C52.5329 22.9752 52.3748 22.6589 52.0584 22.4335C51.7421 22.2082 51.3196 22.0955 50.7909 22.0955ZM52.2729 28.4135C51.9089 28.6735 51.4149 28.8035 50.7909 28.8035C50.1669 28.8035 49.6773 28.6735 49.3219 28.4135C48.9666 28.1535 48.7889 27.7939 48.7889 27.3345C48.7889 26.8839 48.9666 26.5285 49.3219 26.2685C49.6773 26.0085 50.1669 25.8785 50.7909 25.8785C51.4149 25.8785 51.9089 26.0085 52.2729 26.2685C52.6369 26.5285 52.8189 26.8839 52.8189 27.3345C52.8189 27.7939 52.6369 28.1535 52.2729 28.4135Z" fill="white"/>
</g>
</g>
<defs>
<filter id="filter0_d_139_6909" x="-6" y="7" width="104" height="40" filterUnits="userSpaceOnUse" color-interpolation-filters="sRGB">
<feFlood flood-opacity="0" result="BackgroundImageFix"/>
<feColorMatrix in="SourceAlpha" type="matrix" values="0 0 0 0 0 0 0 0 0 0 0 0 0 0 0 0 0 0 127 0" result="hardAlpha"/>
<feOffset dy="6"/>
<feGaussianBlur stdDeviation="3"/>
<feColorMatrix type="matrix" values="0 0 0 0 1 0 0 0 0 1 0 0 0 0 1 0 0 0 0.155593 0"/>
<feBlend mode="normal" in2="BackgroundImageFix" result="effect1_dropShadow_139_6909"/>
<feBlend mode="normal" in="SourceGraphic" in2="effect1_dropShadow_139_6909" result="shape"/>
</filter>
<linearGradient id="paint0_linear_139_6909" x1="0" y1="7" x2="0" y2="35" gradientUnits="userSpaceOnUse">
<stop stop-color="#4293E6"/>
<stop offset="1" stop-color="#1F5AC8"/>
</linearGradient>
<clipPath id="clip0_139_6909">
<rect width="92" height="57" fill="white"/>
</clipPath>
</defs>
</svg>
