<svg width="22" height="15" viewBox="0 0 22 15" fill="none" xmlns="http://www.w3.org/2000/svg">
<path fill-rule="evenodd" clip-rule="evenodd" d="M19.8 0H2.2C0.99 0 0 0.987805 0 2.19512V12.8049C0 14.0122 0.99 15 2.2 15H19.8C21.01 15 22 14.0122 22 12.8049V2.19512C22 0.987805 21.01 0 19.8 0ZM10.2824 12.522H4.09857C3.41548 12.522 2.87619 11.7485 2.87619 11.012C2.91214 9.90707 4.02667 9.24415 5.2131 8.69171C6.04 8.32341 6.14786 7.99195 6.14786 7.62366C6.14786 7.25537 5.93214 6.9239 5.64452 6.6661C5.17714 6.22415 4.88952 5.56122 4.88952 4.82463C4.88952 3.42512 5.71643 2.24659 7.15452 2.24659C8.59262 2.24659 9.41952 3.42512 9.41952 4.82463C9.41952 5.56122 9.16786 6.22415 8.66452 6.6661C8.3769 6.9239 8.16119 7.25537 8.16119 7.62366C8.16119 7.99195 8.26905 8.32341 9.09595 8.65488C10.2824 9.17049 11.3969 9.90707 11.4329 11.012C11.5048 11.7485 10.9655 12.522 10.2824 12.522ZM19 9.42857C19 9.74286 18.6538 10 18.2308 10H14.7692C14.3462 10 14 9.74286 14 9.42857V8.57143C14 8.25714 14.3462 8 14.7692 8H18.2308C18.6538 8 19 8.25714 19 8.57143V9.42857ZM19 5.42857C19 5.74286 18.6684 6 18.2632 6H12.7368C12.3316 6 12 5.74286 12 5.42857V4.57143C12 4.25714 12.3316 4 12.7368 4H18.2632C18.6684 4 19 4.25714 19 4.57143V5.42857Z" fill="#C0B9B4"/>
</svg>
