<svg width="28" height="28" viewBox="0 0 28 28" fill="none" xmlns="http://www.w3.org/2000/svg">
<path fill-rule="evenodd" clip-rule="evenodd" d="M24.5 10.2083C24.325 4.55 19.7167 0 14 0C8.28333 0 3.675 4.55 3.5 10.2083C1.45833 10.9083 0 12.8917 0 15.1667C0 17.6167 1.69167 19.6583 3.90833 20.2417C5.19167 24.7333 9.21667 28 14 28C18.7833 28 22.8083 24.7333 24.0917 20.2417C26.3083 19.6583 28 17.6167 28 15.1667C28 12.8917 26.5417 10.9083 24.5 10.2083ZM5.83333 17.2667C5.83333 16.1 6.06667 14.35 6.53333 13.3C6.59167 13.125 6.70833 12.95 6.76667 12.775C8.51667 12.075 10.0333 10.85 11.025 9.275C13.0667 11.8417 16.275 13.5917 19.8333 13.5917C21.0583 13.5917 21.4083 13.65 21.525 13.5917C21.7583 14.35 21.9917 15.2833 22.05 16.2167C21.7 17.675 19.425 19.075 16.2167 19.25C16.1 18.9583 15.75 18.6667 15.4 18.6667H12.4833C12.0167 18.6667 11.6667 19.1333 11.6667 19.6V21.35C11.6667 21.8167 12.0167 22.1667 12.4833 22.1667H15.4C15.8083 22.1667 16.1 21.9917 16.2167 21.6417C18.3167 21.5833 20.1833 21 21.6417 20.125C20.5333 23.3333 17.5583 25.6667 14 25.6667C9.50833 25.6667 5.83333 21.875 5.83333 17.2667Z" fill="#C0B9B4"/>
</svg>
