<svg width="46" height="13" viewBox="0 0 46 13" fill="none" xmlns="http://www.w3.org/2000/svg">
<path fill-rule="evenodd" clip-rule="evenodd" d="M18.2414 0.0179977H22.0337V7.77184C22.2084 7.8352 22.3018 7.79914 22.3801 7.63455C23.3761 5.54199 24.3762 3.45141 25.3819 1.36367C25.7793 0.538697 26.4429 0.0590015 27.3351 0.0245846C28.1605 -0.00724561 28.9873 -0.00121725 29.814 0.00481117C30.1625 0.00735168 30.5109 0.00989221 30.8592 0.00959927C30.8715 0.00959927 30.8838 0.0130394 30.9 0.0175802C30.9089 0.0200819 30.9191 0.0229176 30.931 0.0256962V12.9892H27.137V5.22956C26.7705 5.16452 26.765 5.16645 26.6281 5.45204C26.3823 5.9649 26.136 6.47754 25.8897 6.99017C25.1708 8.48655 24.4519 9.98294 23.745 11.4852L23.7142 11.5509C23.5286 11.9469 23.349 12.3302 22.9778 12.5879C22.6308 12.8286 22.2517 12.9839 21.8343 12.9888C20.973 12.9989 20.1115 12.9991 19.2501 12.9993C18.9434 12.9994 18.6367 12.9995 18.3301 13C18.3134 13 18.2967 12.9967 18.2765 12.9926C18.2659 12.9905 18.2544 12.9882 18.2414 12.9861V0.0179977ZM15.069 12.9793V0.0182458C15.0538 0.0156154 15.0409 0.0129039 15.0294 0.0104941C15.0082 0.00603877 14.9918 0.0026147 14.9755 0.00264142C14.6232 0.00288033 14.2709 0.00239308 13.9186 0.00190584C12.9959 0.000629709 12.0733 -0.000646423 11.1507 0.011123C10.569 0.018534 10.0945 0.289861 9.72323 0.754739C9.44188 1.10702 9.32655 1.53088 9.2106 1.95703L9.19759 2.00482C8.69641 3.84202 8.19205 5.67827 7.68558 7.51394C7.66996 7.57051 7.62776 7.64293 7.58122 7.66035C7.53058 7.67933 7.43483 7.66402 7.40463 7.6254C7.37032 7.58141 7.35653 7.51981 7.34288 7.4588C7.3381 7.43746 7.33334 7.41619 7.32772 7.39578C7.1564 6.77219 6.98537 6.14851 6.81435 5.52483L6.81422 5.52435L6.81412 5.524L6.81405 5.52374C6.45625 4.21893 6.09845 2.91411 5.73785 1.61014C5.44702 0.55847 4.73232 0.00367073 3.67637 0.0013239C2.87259 -0.000480524 2.06879 -5.3392e-05 1.26499 0.000373743C0.913321 0.000560615 0.561653 0.000747488 0.209985 0.000747488H0V12.9805H3.75204V5.3458C3.93959 5.29157 4.01295 5.35193 4.06252 5.53161C4.42357 6.83984 4.78767 8.14715 5.15177 9.45447L5.15181 9.45463C5.46331 10.5731 5.7748 11.6915 6.08439 12.8105C6.12511 12.9576 6.18416 13.0014 6.32832 13C6.89026 12.9946 7.45224 12.9953 8.01421 12.996H8.01447C8.20944 12.9963 8.40442 12.9966 8.59939 12.9966L8.78615 12.9966L10.9217 5.34119H11.3074V12.9793H15.069ZM43.6574 8.41092C44.3488 7.94822 44.8627 7.32538 45.2069 6.5H33.3103V13H37.0257V9.10027H37.2846C37.6776 9.10027 38.0706 9.1001 38.4637 9.09993C39.3865 9.09953 40.3094 9.09914 41.2323 9.10093C42.101 9.10263 42.9175 8.90607 43.6574 8.41092ZM31.9512 0.00554038H31.7355C31.733 0.0181094 31.7305 0.0277387 31.7285 0.0354701C31.7252 0.0481641 31.7233 0.0557413 31.7245 0.0628121C31.7323 0.107164 31.7404 0.151631 31.7522 0.195135C32.0571 1.31677 32.6489 2.28303 33.5397 3.07677C34.9105 4.29814 36.5609 4.86322 38.4298 4.87028C40.1132 4.87665 41.7966 4.8752 43.4801 4.87376C44.2039 4.87314 44.9278 4.87252 45.6516 4.87252H45.8438C46.1264 4.08857 46.0049 3.33883 45.6449 2.63449C44.7499 0.883205 43.2281 0.0250166 41.1926 0.0110554C39.0307 -0.00375071 36.8687 -0.000490275 34.7066 0.00277018C33.7881 0.00415527 32.8696 0.00554038 31.9512 0.00554038Z" fill="#57BD69"/>
</svg>
