<svg width="38" height="23" viewBox="0 0 38 23" fill="none" xmlns="http://www.w3.org/2000/svg">
<path fill-rule="evenodd" clip-rule="evenodd" d="M18.9618 2.93289C21.0262 1.08054 23.7022 0 26.6076 0C32.8773 0 38 5.17114 38 11.5C38 17.8289 32.8773 23 26.6076 23C23.6258 23 20.9497 21.9195 18.9618 20.0671C16.9738 21.9195 14.2978 23 11.3924 23C5.12274 23 0 17.8289 0 11.5C0 5.17114 5.12274 0 11.3924 0C14.2978 0 16.9738 1.08054 18.9618 2.93289ZM17.2032 11.6544C17.2797 11.1141 17.5855 10.8054 17.9678 10.8054C18.6461 10.8054 18.6023 11.3521 18.5838 11.5832L18.5838 11.5833C18.5814 11.6127 18.5795 11.637 18.5795 11.6544H17.2032ZM7.72233 13.1208C7.72233 13.4295 7.87525 13.5839 8.18109 13.5839C8.7163 13.5839 9.02213 13.1208 9.09859 12.4262H8.79276C8.10463 12.4262 7.72233 12.6577 7.72233 13.1208ZM27.2958 13.1208C27.2958 13.4295 27.4487 13.5839 27.7545 13.5839C28.2897 13.5839 28.5956 13.1208 28.672 12.4262H28.3662C27.6016 12.4262 27.2958 12.6577 27.2958 13.1208ZM34.5594 10.9597C34.0241 10.9597 33.5654 11.6544 33.5654 12.5805C33.5654 13.198 33.7948 13.5067 34.1771 13.5067C34.7887 13.5067 35.171 12.8121 35.171 11.8859C35.2475 11.2685 35.0181 10.9597 34.5594 10.9597ZM4.8169 14.5872L5.50503 10.1107L3.8994 14.5872H3.05835L2.98189 10.1107L2.2173 14.5872H1.07042L2.06439 8.72148H3.82294L3.8994 12.349L5.12274 8.72148H7.03421L6.04024 14.5872H4.8169ZM8.94567 14.1242V14.5872C8.94567 14.5872 9.78672 14.5872 9.93964 14.5101C10.0161 14.1242 10.2455 12.6577 10.3219 11.9631C10.3984 11.5772 10.3984 11.2685 10.3984 11.0369V11.0369C10.3984 10.1107 9.86318 9.64765 8.79276 9.64765C8.334 9.64765 7.95171 9.72483 7.34004 9.87919C7.34004 9.87919 7.18712 10.8826 7.18712 10.9597C7.4165 10.8826 7.87525 10.7282 8.48692 10.7282C9.02213 10.7282 9.25151 10.8826 9.25151 11.1913C9.25151 11.2685 9.25151 11.3456 9.17505 11.5H8.63984C7.26358 11.5 6.49899 12.1946 6.49899 13.3523C6.49899 14.1242 6.95775 14.6644 7.64587 14.6644C8.18109 14.6644 8.63984 14.5101 8.94567 14.1242ZM12.6157 11.7315C13.2274 12.0403 13.4567 12.4262 13.4567 13.0436C13.4567 14.1242 12.8451 14.6644 11.5453 14.6644C10.8448 14.6644 10.5936 14.5997 10.3212 14.5295L10.2455 14.5101C10.2455 14.4329 10.3984 13.4295 10.3984 13.4295C10.7807 13.5839 11.163 13.5839 11.5453 13.5839C12.004 13.5839 12.2334 13.4295 12.2334 13.1208C12.2334 12.8893 12.1569 12.8121 11.6217 12.5805C10.9336 12.2718 10.7042 11.8859 10.7042 11.2685C10.7042 10.4195 11.163 9.64765 12.5392 9.64765C12.6921 9.64765 12.8833 9.66694 13.0744 9.68624L13.0744 9.68624L13.0745 9.68624C13.2656 9.70554 13.4568 9.72483 13.6097 9.72483L13.4567 10.8054C13.1509 10.7282 12.8451 10.7282 12.5392 10.7282C12.1569 10.7282 11.9276 10.8826 11.9276 11.1141C12.004 11.4228 12.0805 11.5 12.6157 11.7315ZM15.5976 13.4295C15.5211 13.5067 15.4447 13.5067 15.2918 13.5067C15.0624 13.5067 14.9095 13.3523 14.7565 13.1208C14.7565 13.0382 14.8222 12.6903 14.9068 12.2428C14.9802 11.8541 15.0678 11.3902 15.1388 10.9597H15.7505L15.9034 9.80201H15.2918L15.4447 9.10738H14.2213L13.6861 12.349C13.6097 12.8121 13.5332 13.3523 13.5332 13.5839C13.5332 14.2785 13.9155 14.6644 14.5272 14.6644C14.833 14.6644 15.1388 14.5872 15.4447 14.5101L15.5976 13.4295ZM18.1972 13.5839C18.6559 13.5839 19.0382 13.5067 19.497 13.2752L19.2676 14.4329C18.8089 14.5872 18.4266 14.5872 17.9678 14.5872C16.5915 14.5872 15.9034 13.8926 15.9034 12.5034C15.9034 10.8826 16.8209 9.64765 18.0443 9.64765C19.0382 9.64765 19.7264 10.3423 19.7264 11.3456C19.7264 11.6411 19.6815 11.8913 19.6262 12.2001V12.2001C19.6093 12.2947 19.5914 12.3948 19.5734 12.5034H17.1268C17.0503 13.2752 17.5091 13.5839 18.1972 13.5839ZM19.7264 14.5872H20.9497L20.9637 14.4979C21.4101 11.6434 21.4927 11.1149 22.2495 11.1913C22.326 10.5738 22.5553 10.0336 22.7083 9.80201C22.173 9.72483 21.8672 10.0336 21.4849 10.5738C21.4849 10.4581 21.504 10.3423 21.5231 10.2265C21.5423 10.1107 21.5614 9.99497 21.5614 9.8792H20.4145C20.2616 11.3456 20.0322 12.8121 19.8028 14.2785L19.7264 14.5872ZM25.6901 14.5101C25.2314 14.6644 24.9256 14.6644 24.6197 14.6644C23.3199 14.6644 22.4789 13.6611 22.4789 12.1174C22.4789 10.0336 23.6258 8.56711 25.3078 8.56711C25.7909 8.56711 26.3363 8.75575 26.6066 8.84925C26.6358 8.85934 26.6618 8.86832 26.6841 8.87584L26.4547 10.1107C25.996 9.87919 25.6901 9.80201 25.3843 9.80201C24.4668 9.80201 23.7787 10.7282 23.7787 11.9631C23.7787 12.8121 24.2374 13.3523 24.9256 13.3523C25.2314 13.3523 25.5372 13.2752 25.996 13.0436L25.6901 14.5101ZM28.5191 14.5872H29.5131C29.5131 14.2013 29.7425 12.7349 29.8954 11.9631C29.9718 11.5772 29.9718 11.2685 29.9718 11.0369C29.9718 10.1107 29.4366 9.64765 28.3662 9.64765C27.9074 9.64765 27.5252 9.72483 26.9135 9.87919C26.9135 9.87919 26.7606 10.8826 26.7606 10.9597C26.9899 10.8826 27.4487 10.7282 28.0604 10.7282C28.5956 10.7282 28.825 10.8826 28.825 11.1913C28.825 11.2685 28.825 11.3456 28.7485 11.5H28.2133C26.837 11.5 26.0724 12.1946 26.0724 13.3523C26.0724 14.1242 26.5312 14.6644 27.2193 14.6644C27.7545 14.6644 28.2133 14.5101 28.5191 14.1242V14.5872ZM31.1952 14.5872H29.9718L30.0483 14.2785C30.2777 12.8121 30.507 11.3456 30.66 9.8792H31.8068C31.8068 9.99497 31.7877 10.1107 31.7686 10.2265C31.7495 10.3423 31.7304 10.4581 31.7304 10.5738C32.1127 10.0336 32.4185 9.72483 32.9537 9.80201C32.8008 10.0336 32.5714 10.5738 32.495 11.1913C31.7304 11.1141 31.5775 11.6544 31.1952 14.5872ZM34.8779 14.5101L34.8652 14.5872V14.5101H34.8779ZM34.9417 14.1242L34.8779 14.5101H36.0121L36.9296 8.6443H35.7062L35.4004 10.3423C35.0946 9.95638 34.7123 9.72483 34.2535 9.72483C33.1831 9.72483 32.2656 11.1141 32.2656 12.6577C32.2656 13.8926 32.8773 14.6644 33.7948 14.6644C34.2535 14.6644 34.6358 14.5101 34.9417 14.1242Z" fill="#FF6B00"/>
</svg>
