<svg width="22" height="22" viewBox="0 0 22 22" fill="none" xmlns="http://www.w3.org/2000/svg">
<path fill-rule="evenodd" clip-rule="evenodd" d="M16.8185 13.7069C16.8071 14.0759 16.7103 14.4309 16.5763 14.7721C16.4607 15.0664 16.2301 15.2735 15.9778 15.4575C15.6275 15.7129 15.2457 15.9076 14.8233 16.0045C14.3183 16.1204 13.821 16.1313 13.3096 15.963C12.5282 15.706 11.7636 15.412 11.0271 15.0518C10.6748 14.8796 10.3504 14.6494 10.02 14.4353C9.51991 14.1113 9.07581 13.7173 8.66643 13.2893C8.34985 12.9583 8.05804 12.603 7.76836 12.2479C7.55075 11.9812 7.33619 11.7088 7.15221 11.419C6.87104 10.9761 6.56531 10.5487 6.33115 10.0751C6.15241 9.7136 6.00241 9.34377 5.90687 8.95615C5.8414 8.69061 5.82919 8.4121 5.79317 8.13937C5.79961 7.63092 5.9077 7.15008 6.14145 6.70435C6.24913 6.49899 6.40053 6.31503 6.54207 6.12884C6.62442 6.02055 6.72398 5.92465 6.82005 5.82736C7.09603 5.54792 7.42047 5.41305 7.82162 5.4873C7.9516 5.51137 8.08732 5.51584 8.21992 5.512C8.39185 5.50705 8.52609 5.57614 8.60061 5.71781C8.70025 5.90718 8.77882 6.10831 8.85579 6.30844C9.07386 6.87543 9.27729 7.44817 9.50499 8.01126C9.63124 8.32347 9.55106 8.58432 9.35742 8.82317C9.17614 9.04681 8.97949 9.25895 8.78034 9.46743C8.56098 9.69709 8.53684 9.80849 8.69954 10.076C8.88786 10.3856 9.06586 10.7038 9.28113 10.9943C9.63386 11.4703 10.0185 11.9229 10.4968 12.2834C10.7989 12.5113 11.1038 12.7369 11.4202 12.9442C11.6092 13.068 11.8232 13.1538 12.0254 13.2578C12.1268 13.31 12.225 13.3689 12.3284 13.4164C12.3893 13.4444 12.457 13.4598 12.5231 13.4744C12.7322 13.5207 12.8458 13.3782 12.9637 13.2482C13.1064 13.0908 13.2478 12.9322 13.3876 12.7723C13.5044 12.6387 13.6172 12.5015 13.7338 12.3676C13.7935 12.299 13.8515 12.2271 13.9208 12.1691C14.0342 12.0744 14.1674 12.0913 14.2879 12.1486C14.6408 12.3164 14.9909 12.4899 15.3394 12.6667C15.7078 12.8536 16.0742 13.0448 16.4389 13.2388C16.5356 13.2902 16.6235 13.358 16.7146 13.4194C16.8186 13.4896 16.8215 13.608 16.8185 13.7069M21.9717 10.0586C21.9079 9.58433 21.8667 9.10588 21.7767 8.63668C21.6925 8.1975 21.5754 7.76225 21.4386 7.33609C21.3143 6.9489 21.1559 6.57101 20.99 6.19896C20.8734 5.9376 20.7225 5.69087 20.5802 5.44134C20.4513 5.21512 20.3256 4.98554 20.1769 4.77222C19.8414 4.29083 19.4878 3.82357 19.0782 3.39871C18.6328 2.9367 18.1661 2.50074 17.64 2.13038C17.3582 1.9319 17.0816 1.72413 16.7874 1.54521C16.4768 1.35632 16.1557 1.18054 15.8254 1.02875C15.4504 0.856459 15.0646 0.704282 14.675 0.567404C14.35 0.45322 14.0166 0.35527 13.6798 0.283508C13.2503 0.191997 12.8147 0.125624 12.3796 0.0636576C11.7183 -0.0304794 11.0504 -0.000363814 10.3885 0.0289983C9.88035 0.0515109 9.3754 0.168389 8.87154 0.257366C8.33565 0.351959 7.82502 0.533566 7.31541 0.721155C6.67016 0.958678 6.06331 1.26913 5.4837 1.63252C5.16303 1.83358 4.84518 2.04291 4.54801 2.27612C4.23842 2.51907 3.94226 2.78237 3.66389 3.0602C3.33954 3.38396 3.02356 3.71925 2.7351 4.07447C2.30744 4.60109 1.94705 5.17375 1.62755 5.77355C1.38111 6.2362 1.1758 6.71528 1.00044 7.2057C0.815086 7.72399 0.670557 8.25732 0.584947 8.80159C0.520004 9.21447 0.474532 9.63168 0.446693 10.0487C0.420187 10.4456 0.404118 10.846 0.425704 11.2426C0.461084 11.8938 0.533498 12.5412 0.696212 13.1778C0.833776 13.7162 0.995984 14.2439 1.20532 14.759C1.40518 15.2509 1.63891 15.7242 1.91526 16.1779C1.94314 16.2236 1.94493 16.3024 1.92719 16.3555C1.78613 16.7777 1.63608 17.197 1.49132 17.618C1.33068 18.0854 1.1712 18.5532 1.01392 19.0217C0.814696 19.6152 0.620625 20.2104 0.419658 20.8033C0.283979 21.2036 0.140185 21.6012 0 22H0.137817C0.363727 21.916 0.588257 21.8281 0.816006 21.7494C0.987915 21.69 1.16424 21.6433 1.33803 21.5892C1.78348 21.4505 2.22949 21.3136 2.67361 21.1709C3.05648 21.0479 3.43591 20.9144 3.81904 20.7922C4.19461 20.6724 4.57337 20.5625 4.94985 20.4455C5.26868 20.3464 5.58556 20.241 5.90522 20.1447C5.95315 20.1302 6.02025 20.1337 6.06379 20.1566C6.59917 20.4375 7.1475 20.6909 7.72523 20.8707C8.18801 21.0147 8.65747 21.1408 9.12984 21.2498C9.42048 21.3169 9.72244 21.3349 10.0189 21.3783C10.538 21.4544 11.0613 21.4661 11.5826 21.4405C12.0367 21.4181 12.4915 21.3678 12.9403 21.295C13.3922 21.2217 13.8387 21.1122 14.2842 21.0045C14.4752 20.9584 14.659 20.8805 14.8436 20.8104C15.1166 20.7067 15.3956 20.614 15.657 20.4862C16.0554 20.2914 16.4448 20.0774 16.8304 19.8582C17.0673 19.7235 17.3005 19.5773 17.5167 19.4121C17.8567 19.1521 18.1842 18.8756 18.511 18.5991C18.9392 18.2367 19.3115 17.8205 19.65 17.376C19.8808 17.0729 20.0988 16.7599 20.3126 16.4446C20.4566 16.2323 20.6019 16.0174 20.7136 15.7878C20.9167 15.3706 21.0965 14.9422 21.2835 14.5173C21.3398 14.3894 21.3972 14.2607 21.4375 14.1274C21.5976 13.5969 21.7634 13.0671 21.8328 12.5147C21.8812 12.1296 21.9252 11.744 21.9726 11.3588C21.975 11.3389 21.9906 11.3207 22 11.3017V10.1384C21.9903 10.1118 21.9753 10.0859 21.9717 10.0586" fill="#28BA1D"/>
</svg>
